<ttFont>
    <TTGlyph name=".notdef" xMin="123" yMin="0" xMax="543" yMax="689">
      <contour>
        <pt x="123" y="689" on="1"/>
        <pt x="543" y="689" on="1"/>
        <pt x="543" y="0" on="1"/>
        <pt x="123" y="0" on="1"/>
      </contour>
      <contour>
        <pt x="489" y="52" on="1"/>
        <pt x="489" y="637" on="1"/>
        <pt x="178" y="637" on="1"/>
        <pt x="178" y="52" on="1"/>
      </contour>
      <contour>
        <pt x="231" y="497" on="1"/>
        <pt x="231" y="517" on="0"/>
        <pt x="295" y="536" on="0"/>
        <pt x="324" y="536" on="1"/>
        <pt x="388" y="536" on="0"/>
        <pt x="435" y="466" on="0"/>
        <pt x="435" y="421" on="1"/>
        <pt x="435" y="369" on="0"/>
        <pt x="390" y="310" on="0"/>
        <pt x="340" y="303" on="1"/>
        <pt x="340" y="258" on="1"/>
        <pt x="340" y="247" on="0"/>
        <pt x="324" y="234" on="0"/>
        <pt x="315" y="234" on="1"/>
        <pt x="305" y="234" on="0"/>
        <pt x="290" y="247" on="0"/>
        <pt x="290" y="258" on="1"/>
        <pt x="290" y="342" on="1"/>
        <pt x="344" y="345" on="0"/>
        <pt x="381" y="379" on="0"/>
        <pt x="381" y="419" on="1"/>
        <pt x="381" y="448" on="0"/>
        <pt x="357" y="488" on="0"/>
        <pt x="320" y="488" on="1"/>
        <pt x="304" y="488" on="0"/>
        <pt x="281" y="483" on="0"/>
        <pt x="268" y="477" on="1"/>
        <pt x="264" y="476" on="0"/>
        <pt x="258" y="474" on="0"/>
        <pt x="255" y="474" on="1"/>
        <pt x="244" y="474" on="0"/>
        <pt x="231" y="487" on="0"/>
      </contour>
      <contour>
        <pt x="280" y="170" on="1"/>
        <pt x="280" y="185" on="0"/>
        <pt x="300" y="205" on="0"/>
        <pt x="315" y="205" on="1"/>
        <pt x="330" y="205" on="0"/>
        <pt x="350" y="185" on="0"/>
        <pt x="350" y="170" on="1"/>
        <pt x="350" y="154" on="0"/>
        <pt x="330" y="133" on="0"/>
        <pt x="315" y="133" on="1"/>
        <pt x="300" y="133" on="0"/>
        <pt x="280" y="154" on="0"/>
      </contour>
    </TTGlyph>
    <TTGlyph name="A" xMin="-11" yMin="0" xMax="599" yMax="693">
      <contour>
        <pt x="292" y="578" on="1"/>
        <pt x="215" y="266" on="1"/>
        <pt x="369" y="266" on="1"/>
      </contour>
      <contour>
        <pt x="435" y="0" on="1"/>
        <pt x="397" y="152" on="1"/>
        <pt x="187" y="152" on="1"/>
        <pt x="150" y="0" on="1"/>
        <pt x="-11" y="0" on="1"/>
        <pt x="200" y="693" on="1"/>
        <pt x="389" y="693" on="1"/>
        <pt x="599" y="0" on="1"/>
      </contour>
    </TTGlyph>
    <TTGlyph name="AE" xMin="-22" yMin="0" xMax="806" yMax="693">
      <contour>
        <pt x="341" y="578" on="1"/>
        <pt x="235" y="266" on="1"/>
        <pt x="398" y="266" on="1"/>
      </contour>
      <contour>
        <pt x="446" y="0" on="1"/>
        <pt x="418" y="152" on="1"/>
        <pt x="197" y="152" on="1"/>
        <pt x="145" y="0" on="1"/>
        <pt x="-22" y="0" on="1"/>
        <pt x="251" y="693" on="1"/>
        <pt x="769" y="693" on="1"/>
        <pt x="752" y="580" on="1"/>
        <pt x="477" y="580" on="1"/>
        <pt x="514" y="406" on="1"/>
        <pt x="760" y="406" on="1"/>
        <pt x="760" y="295" on="1"/>
        <pt x="537" y="295" on="1"/>
        <pt x="576" y="113" on="1"/>
        <pt x="806" y="113" on="1"/>
        <pt x="806" y="0" on="1"/>
      </contour>
    </TTGlyph>
    <TTGlyph name="AEacute" xMin="-22" yMin="0" xMax="806" yMax="951">
      <component glyphName="AE" x="0" y="0" flags="0x204"/>
      <component glyphName="acute.case" x="313" y="0" flags="0x4"/>
    </TTGlyph>
    <TTGlyph name="Aacute" xMin="-11" yMin="0" xMax="599" yMax="951">
      <component glyphName="A" x="0" y="0" flags="0x204"/>
      <component glyphName="acute.case" x="125" y="0" flags="0x4"/>
    </TTGlyph>
    <TTGlyph name="Abreve" xMin="-11" yMin="0" xMax="599" yMax="924">
      <component glyphName="A" x="0" y="0" flags="0x204"/>
      <component glyphName="breve.case" x="95" y="0" flags="0x4"/>
    </TTGlyph>
    <TTGlyph name="Acircumflex" xMin="-11" yMin="0" xMax="599" yMax="945">
      <component glyphName="A" x="0" y="0" flags="0x204"/>
      <component glyphName="circumflex.case" x="78" y="0" flags="0x4"/>
    </TTGlyph>
    <TTGlyph name="Adieresis" xMin="-11" yMin="0" xMax="599" yMax="921">
      <component glyphName="A" x="0" y="0" flags="0x204"/>
      <component glyphName="dieresis.case" x="70" y="0" flags="0x4"/>
    </TTGlyph>
    <TTGlyph name="Agrave" xMin="-11" yMin="0" xMax="599" yMax="951">
      <component glyphName="A" x="0" y="0" flags="0x204"/>
      <component glyphName="grave.case" x="120" y="0" flags="0x4"/>
    </TTGlyph>
    <TTGlyph name="Alpha" xMin="-11" yMin="0" xMax="599" yMax="693">
      <component glyphName="A" x="0" y="0" flags="0x204"/>
    </TTGlyph>
    <TTGlyph name="Alphatonos" xMin="-53" yMin="0" xMax="599" yMax="722">
      <component glyphName="A" x="0" y="0" flags="0x204"/>
      <component glyphName="tonos.case" x="-94" y="0" flags="0x4"/>
    </TTGlyph>
    <TTGlyph name="Amacron" xMin="-11" yMin="0" xMax="599" yMax="884">
      <component glyphName="A" x="0" y="0" flags="0x204"/>
      <component glyphName="macron.case" x="113" y="-3" flags="0x4"/>
    </TTGlyph>
    <TTGlyph name="Aogonek" xMin="-11" yMin="-244" xMax="599" yMax="693">
      <component glyphName="A" x="0" y="0" flags="0x204"/>
      <component glyphName="ogonek" x="294" y="0" flags="0x4"/>
    </TTGlyph>
    <TTGlyph name="Aring" xMin="-11" yMin="0" xMax="599" yMax="989">
      <component glyphName="A" x="0" y="0" flags="0x204"/>
      <component glyphName="ring.case" x="129" y="0" flags="0x4"/>
    </TTGlyph>
    <TTGlyph name="Atilde" xMin="-11" yMin="0" xMax="599" yMax="916">
      <component glyphName="A" x="0" y="0" flags="0x204"/>
      <component glyphName="tilde.case" x="79" y="0" flags="0x4"/>
    </TTGlyph>
    <TTGlyph name="B" xMin="69" yMin="0" xMax="587" yMax="693">
      <contour>
        <pt x="69" y="693" on="1"/>
        <pt x="261" y="693" on="1"/>
        <pt x="398" y="693" on="0"/>
        <pt x="558" y="612" on="0"/>
        <pt x="558" y="516" on="1"/>
        <pt x="558" y="450" on="0"/>
        <pt x="479" y="378" on="0"/>
        <pt x="430" y="367" on="1"/>
        <pt x="488" y="356" on="0"/>
        <pt x="587" y="285" on="0"/>
        <pt x="587" y="201" on="1"/>
        <pt x="587" y="85" on="0"/>
        <pt x="417" y="0" on="0"/>
        <pt x="288" y="0" on="1"/>
        <pt x="69" y="0" on="1"/>
      </contour>
      <contour>
        <pt x="225" y="582" on="1"/>
        <pt x="225" y="413" on="1"/>
        <pt x="291" y="413" on="1"/>
        <pt x="342" y="413" on="0"/>
        <pt x="399" y="456" on="0"/>
        <pt x="399" y="501" on="1"/>
        <pt x="399" y="547" on="0"/>
        <pt x="338" y="582" on="0"/>
        <pt x="276" y="582" on="1"/>
      </contour>
      <contour>
        <pt x="225" y="114" on="1"/>
        <pt x="289" y="114" on="1"/>
        <pt x="349" y="114" on="0"/>
        <pt x="426" y="150" on="0"/>
        <pt x="426" y="209" on="1"/>
        <pt x="426" y="264" on="0"/>
        <pt x="356" y="309" on="0"/>
        <pt x="302" y="309" on="1"/>
        <pt x="225" y="309" on="1"/>
      </contour>
    </TTGlyph>
    <TTGlyph name="Beta" xMin="69" yMin="0" xMax="587" yMax="693">
      <component glyphName="B" x="0" y="0" flags="0x204"/>
    </TTGlyph>
    <TTGlyph name="C" xMin="36" yMin="-16" xMax="564" yMax="709">
      <contour>
        <pt x="36" y="348" on="1"/>
        <pt x="36" y="435" on="0"/>
        <pt x="83" y="570" on="0"/>
        <pt x="166" y="661" on="0"/>
        <pt x="279" y="709" on="0"/>
        <pt x="345" y="709" on="1"/>
        <pt x="414" y="709" on="0"/>
        <pt x="513" y="669" on="0"/>
        <pt x="556" y="634" on="1"/>
        <pt x="479" y="543" on="1"/>
        <pt x="451" y="567" on="0"/>
        <pt x="390" y="593" on="0"/>
        <pt x="354" y="593" on="1"/>
        <pt x="287" y="593" on="0"/>
        <pt x="199" y="478" on="0"/>
        <pt x="199" y="348" on="1"/>
        <pt x="199" y="220" on="0"/>
        <pt x="287" y="105" on="0"/>
        <pt x="357" y="105" on="1"/>
        <pt x="399" y="105" on="0"/>
        <pt x="463" y="140" on="0"/>
        <pt x="493" y="163" on="1"/>
        <pt x="564" y="72" on="1"/>
        <pt x="530" y="38" on="0"/>
        <pt x="421" y="-16" on="0"/>
        <pt x="349" y="-16" on="1"/>
        <pt x="209" y="-16" on="0"/>
        <pt x="36" y="171" on="0"/>
      </contour>
    </TTGlyph>
    <TTGlyph name="Cacute" xMin="36" yMin="-16" xMax="564" yMax="951">
      <component glyphName="C" x="0" y="0" flags="0x204"/>
      <component glyphName="acute.case" x="184" y="0" flags="0x4"/>
    </TTGlyph>
    <TTGlyph name="Cacute.loclPLK" xMin="36" yMin="-16" xMax="564" yMax="960">
      <component glyphName="C" x="0" y="0" flags="0x204"/>
      <component glyphName="acute.case.loclPLK" x="185" y="0" flags="0x4"/>
    </TTGlyph>
    <TTGlyph name="Ccaron" xMin="36" yMin="-16" xMax="564" yMax="940">
      <component glyphName="C" x="0" y="0" flags="0x204"/>
      <component glyphName="caron.case" x="136" y="0" flags="0x4"/>
    </TTGlyph>
    <TTGlyph name="Ccedilla" xMin="36" yMin="-260" xMax="564" yMax="709">
      <component glyphName="cedilla.case" x="199" y="0" flags="0x4"/>
      <component glyphName="C" x="0" y="0" flags="0x204"/>
    </TTGlyph>
    <TTGlyph name="Ccircumflex" xMin="36" yMin="-16" xMax="564" yMax="945">
      <component glyphName="C" x="0" y="0" flags="0x204"/>
      <component glyphName="circumflex.case" x="136" y="0" flags="0x4"/>
    </TTGlyph>
    <TTGlyph name="Cdotaccent" xMin="36" yMin="-16" xMax="564" yMax="933">
      <component glyphName="dotaccent.case" x="233" y="0" flags="0x4"/>
      <component glyphName="C" x="0" y="0" flags="0x204"/>
    </TTGlyph>
    <TTGlyph name="Chi" xMin="-3" yMin="0" xMax="579" yMax="693">
      <component glyphName="X" x="0" y="0" flags="0x204"/>
    </TTGlyph>
    <TTGlyph name="D" xMin="69" yMin="0" xMax="615" yMax="693">
      <contour>
        <pt x="69" y="693" on="1"/>
        <pt x="256" y="693" on="1"/>
        <pt x="325" y="693" on="0"/>
        <pt x="455" y="666" on="0"/>
        <pt x="554" y="591" on="0"/>
        <pt x="615" y="457" on="0"/>
        <pt x="615" y="350" on="1"/>
        <pt x="615" y="246" on="0"/>
        <pt x="557" y="109" on="0"/>
        <pt x="461" y="31" on="0"/>
        <pt x="337" y="0" on="0"/>
        <pt x="272" y="0" on="1"/>
        <pt x="69" y="0" on="1"/>
      </contour>
      <contour>
        <pt x="453" y="350" on="1"/>
        <pt x="453" y="422" on="0"/>
        <pt x="426" y="512" on="0"/>
        <pt x="379" y="561" on="0"/>
        <pt x="316" y="579" on="0"/>
        <pt x="279" y="579" on="1"/>
        <pt x="225" y="579" on="1"/>
        <pt x="225" y="113" on="1"/>
        <pt x="282" y="113" on="1"/>
        <pt x="357" y="113" on="0"/>
        <pt x="453" y="208" on="0"/>
      </contour>
    </TTGlyph>
    <TTGlyph name="Dcaron" xMin="69" yMin="0" xMax="615" yMax="940">
      <component glyphName="D" x="0" y="0" flags="0x204"/>
      <component glyphName="caron.case" x="80" y="0" flags="0x4"/>
    </TTGlyph>
    <TTGlyph name="Dcroat" xMin="15" yMin="0" xMax="628" yMax="693">
      <component glyphName="Eth" x="0" y="0" flags="0x204"/>
    </TTGlyph>
    <TTGlyph name="Delta" xMin="-11" yMin="0" xMax="608" yMax="693">
      <contour>
        <pt x="205" y="693" on="1"/>
        <pt x="394" y="693" on="1"/>
        <pt x="608" y="0" on="1"/>
        <pt x="-11" y="0" on="1"/>
      </contour>
      <contour>
        <pt x="416" y="115" on="1"/>
        <pt x="297" y="576" on="1"/>
        <pt x="177" y="115" on="1"/>
      </contour>
    </TTGlyph>
    <TTGlyph name="E" xMin="69" yMin="0" xMax="489" yMax="693">
      <contour>
        <pt x="69" y="693" on="1"/>
        <pt x="488" y="693" on="1"/>
        <pt x="471" y="580" on="1"/>
        <pt x="225" y="580" on="1"/>
        <pt x="225" y="407" on="1"/>
        <pt x="440" y="407" on="1"/>
        <pt x="440" y="297" on="1"/>
        <pt x="225" y="297" on="1"/>
        <pt x="225" y="113" on="1"/>
        <pt x="489" y="113" on="1"/>
        <pt x="489" y="0" on="1"/>
        <pt x="69" y="0" on="1"/>
      </contour>
    </TTGlyph>
    <TTGlyph name="Eacute" xMin="69" yMin="0" xMax="489" yMax="951">
      <component glyphName="E" x="0" y="0" flags="0x204"/>
      <component glyphName="acute.case" x="111" y="0" flags="0x4"/>
    </TTGlyph>
    <TTGlyph name="Ebreve" xMin="69" yMin="0" xMax="489" yMax="924">
      <component glyphName="E" x="0" y="0" flags="0x204"/>
      <component glyphName="breve.case" x="80" y="0" flags="0x4"/>
    </TTGlyph>
    <TTGlyph name="Ecaron" xMin="69" yMin="0" xMax="489" yMax="940">
      <component glyphName="E" x="0" y="0" flags="0x204"/>
      <component glyphName="caron.case" x="63" y="0" flags="0x4"/>
    </TTGlyph>
    <TTGlyph name="Ecircumflex" xMin="69" yMin="0" xMax="489" yMax="945">
      <component glyphName="circumflex.case" x="63" y="0" flags="0x4"/>
      <component glyphName="E" x="0" y="0" flags="0x204"/>
    </TTGlyph>
    <TTGlyph name="Edieresis" xMin="69" yMin="0" xMax="489" yMax="921">
      <component glyphName="E" x="0" y="0" flags="0x204"/>
      <component glyphName="dieresis.case" x="56" y="0" flags="0x4"/>
    </TTGlyph>
    <TTGlyph name="Edotaccent" xMin="69" yMin="0" xMax="489" yMax="933">
      <component glyphName="dotaccent.case" x="160" y="0" flags="0x4"/>
      <component glyphName="E" x="0" y="0" flags="0x204"/>
    </TTGlyph>
    <TTGlyph name="Egrave" xMin="69" yMin="0" xMax="489" yMax="951">
      <component glyphName="grave.case" x="105" y="0" flags="0x4"/>
      <component glyphName="E" x="0" y="0" flags="0x204"/>
    </TTGlyph>
    <TTGlyph name="Emacron" xMin="69" yMin="0" xMax="489" yMax="884">
      <component glyphName="E" x="0" y="0" flags="0x204"/>
      <component glyphName="macron.case" x="99" y="-3" flags="0x4"/>
    </TTGlyph>
    <TTGlyph name="Eng" xMin="69" yMin="-220" xMax="597" yMax="693">
      <contour>
        <pt x="389" y="-220" on="1"/>
        <pt x="344" y="-120" on="1"/>
        <pt x="393" y="-98" on="0"/>
        <pt x="450" y="-50" on="0"/>
        <pt x="457" y="0" on="1"/>
        <pt x="397" y="0" on="1"/>
        <pt x="189" y="536" on="1"/>
        <pt x="185" y="536" on="1"/>
        <pt x="192" y="493" on="0"/>
        <pt x="209" y="357" on="0"/>
        <pt x="209" y="261" on="1"/>
        <pt x="209" y="0" on="1"/>
        <pt x="69" y="0" on="1"/>
        <pt x="69" y="693" on="1"/>
        <pt x="264" y="693" on="1"/>
        <pt x="476" y="155" on="1"/>
        <pt x="480" y="155" on="1"/>
        <pt x="473" y="189" on="0"/>
        <pt x="457" y="321" on="0"/>
        <pt x="457" y="401" on="1"/>
        <pt x="457" y="693" on="1"/>
        <pt x="597" y="693" on="1"/>
        <pt x="597" y="57" on="1"/>
        <pt x="597" y="-71" on="0"/>
        <pt x="481" y="-186" on="0"/>
      </contour>
    </TTGlyph>
    <TTGlyph name="Eogonek" xMin="69" yMin="-244" xMax="489" yMax="693">
      <component glyphName="ogonek" x="222" y="0" flags="0x4"/>
      <component glyphName="E" x="0" y="0" flags="0x204"/>
    </TTGlyph>
    <TTGlyph name="Epsilon" xMin="69" yMin="0" xMax="489" yMax="693">
      <component glyphName="E" x="0" y="0" flags="0x204"/>
    </TTGlyph>
    <TTGlyph name="Epsilontonos" xMin="-134" yMin="0" xMax="489" yMax="722">
      <component glyphName="E" x="0" y="0" flags="0x204"/>
      <component glyphName="tonos.case" x="-175" y="0" flags="0x4"/>
    </TTGlyph>
    <TTGlyph name="Eta" xMin="69" yMin="0" xMax="599" yMax="693">
      <component glyphName="H" x="0" y="0" flags="0x204"/>
    </TTGlyph>
    <TTGlyph name="Etatonos" xMin="-134" yMin="0" xMax="599" yMax="722">
      <component glyphName="H" x="0" y="0" flags="0x204"/>
      <component glyphName="tonos.case" x="-175" y="0" flags="0x4"/>
    </TTGlyph>
    <TTGlyph name="Eth" xMin="15" yMin="0" xMax="628" yMax="693">
      <contour>
        <pt x="286" y="0" on="1"/>
        <pt x="82" y="0" on="1"/>
        <pt x="82" y="305" on="1"/>
        <pt x="15" y="305" on="1"/>
        <pt x="15" y="401" on="1"/>
        <pt x="82" y="401" on="1"/>
        <pt x="82" y="693" on="1"/>
        <pt x="270" y="693" on="1"/>
        <pt x="339" y="693" on="0"/>
        <pt x="468" y="666" on="0"/>
        <pt x="568" y="591" on="0"/>
        <pt x="628" y="457" on="0"/>
        <pt x="628" y="350" on="1"/>
        <pt x="628" y="246" on="0"/>
        <pt x="570" y="109" on="0"/>
        <pt x="474" y="31" on="0"/>
        <pt x="351" y="0" on="0"/>
      </contour>
      <contour>
        <pt x="238" y="113" on="1"/>
        <pt x="295" y="113" on="1"/>
        <pt x="370" y="113" on="0"/>
        <pt x="467" y="208" on="0"/>
        <pt x="467" y="350" on="1"/>
        <pt x="467" y="422" on="0"/>
        <pt x="440" y="512" on="0"/>
        <pt x="393" y="561" on="0"/>
        <pt x="330" y="579" on="0"/>
        <pt x="293" y="579" on="1"/>
        <pt x="238" y="579" on="1"/>
        <pt x="238" y="401" on="1"/>
        <pt x="375" y="401" on="1"/>
        <pt x="375" y="305" on="1"/>
        <pt x="238" y="305" on="1"/>
      </contour>
    </TTGlyph>
    <TTGlyph name="Euro" xMin="9" yMin="-16" xMax="565" yMax="709">
      <contour>
        <pt x="531" y="21" on="1"/>
        <pt x="492" y="3" on="0"/>
        <pt x="416" y="-16" on="0"/>
        <pt x="371" y="-16" on="1"/>
        <pt x="261" y="-16" on="0"/>
        <pt x="119" y="112" on="0"/>
        <pt x="96" y="231" on="1"/>
        <pt x="9" y="231" on="1"/>
        <pt x="30" y="311" on="1"/>
        <pt x="92" y="311" on="1"/>
        <pt x="92" y="384" on="1"/>
        <pt x="9" y="384" on="1"/>
        <pt x="30" y="464" on="1"/>
        <pt x="97" y="464" on="1"/>
        <pt x="125" y="581" on="0"/>
        <pt x="275" y="709" on="0"/>
        <pt x="376" y="709" on="1"/>
        <pt x="436" y="709" on="0"/>
        <pt x="528" y="677" on="0"/>
        <pt x="565" y="652" on="1"/>
        <pt x="517" y="560" on="1"/>
        <pt x="484" y="580" on="0"/>
        <pt x="421" y="600" on="0"/>
        <pt x="384" y="600" on="1"/>
        <pt x="333" y="600" on="0"/>
        <pt x="265" y="535" on="0"/>
        <pt x="249" y="464" on="1"/>
        <pt x="494" y="464" on="1"/>
        <pt x="473" y="384" on="1"/>
        <pt x="243" y="384" on="1"/>
        <pt x="243" y="311" on="1"/>
        <pt x="458" y="311" on="1"/>
        <pt x="438" y="231" on="1"/>
        <pt x="247" y="231" on="1"/>
        <pt x="260" y="158" on="0"/>
        <pt x="329" y="94" on="0"/>
        <pt x="388" y="94" on="1"/>
        <pt x="429" y="94" on="0"/>
        <pt x="499" y="118" on="0"/>
        <pt x="531" y="137" on="1"/>
      </contour>
    </TTGlyph>
    <TTGlyph name="Euro.lf" xMin="11" yMin="-16" xMax="578" yMax="688">
      <contour>
        <pt x="544" y="21" on="1"/>
        <pt x="505" y="3" on="0"/>
        <pt x="429" y="-16" on="0"/>
        <pt x="384" y="-16" on="1"/>
        <pt x="269" y="-16" on="0"/>
        <pt x="122" y="109" on="0"/>
        <pt x="98" y="221" on="1"/>
        <pt x="11" y="221" on="1"/>
        <pt x="32" y="301" on="1"/>
        <pt x="94" y="301" on="1"/>
        <pt x="94" y="374" on="1"/>
        <pt x="11" y="374" on="1"/>
        <pt x="32" y="454" on="1"/>
        <pt x="99" y="454" on="1"/>
        <pt x="127" y="563" on="0"/>
        <pt x="285" y="688" on="0"/>
        <pt x="389" y="688" on="1"/>
        <pt x="449" y="688" on="0"/>
        <pt x="541" y="656" on="0"/>
        <pt x="578" y="631" on="1"/>
        <pt x="524" y="539" on="1"/>
        <pt x="493" y="559" on="0"/>
        <pt x="431" y="579" on="0"/>
        <pt x="394" y="579" on="1"/>
        <pt x="345" y="579" on="0"/>
        <pt x="270" y="518" on="0"/>
        <pt x="252" y="454" on="1"/>
        <pt x="496" y="454" on="1"/>
        <pt x="475" y="374" on="1"/>
        <pt x="245" y="374" on="1"/>
        <pt x="245" y="301" on="1"/>
        <pt x="460" y="301" on="1"/>
        <pt x="440" y="221" on="1"/>
        <pt x="250" y="221" on="1"/>
        <pt x="264" y="155" on="0"/>
        <pt x="339" y="94" on="0"/>
        <pt x="399" y="94" on="1"/>
        <pt x="439" y="94" on="0"/>
        <pt x="512" y="118" on="0"/>
        <pt x="544" y="137" on="1"/>
      </contour>
    </TTGlyph>
    <TTGlyph name="Euro.osf" xMin="11" yMin="-16" xMax="578" yMax="688">
      <component glyphName="Euro.lf" x="0" y="0" flags="0x204"/>
    </TTGlyph>
    <TTGlyph name="Euro.tosf" xMin="25" yMin="-16" xMax="577" yMax="688">
      <contour>
        <pt x="543" y="21" on="1"/>
        <pt x="503" y="3" on="0"/>
        <pt x="433" y="-16" on="0"/>
        <pt x="390" y="-16" on="1"/>
        <pt x="278" y="-16" on="0"/>
        <pt x="134" y="109" on="0"/>
        <pt x="111" y="221" on="1"/>
        <pt x="25" y="221" on="1"/>
        <pt x="46" y="301" on="1"/>
        <pt x="107" y="301" on="1"/>
        <pt x="107" y="374" on="1"/>
        <pt x="25" y="374" on="1"/>
        <pt x="46" y="454" on="1"/>
        <pt x="112" y="454" on="1"/>
        <pt x="140" y="563" on="0"/>
        <pt x="294" y="688" on="0"/>
        <pt x="395" y="688" on="1"/>
        <pt x="452" y="688" on="0"/>
        <pt x="540" y="656" on="0"/>
        <pt x="577" y="631" on="1"/>
        <pt x="523" y="539" on="1"/>
        <pt x="492" y="559" on="0"/>
        <pt x="435" y="579" on="0"/>
        <pt x="401" y="579" on="1"/>
        <pt x="354" y="579" on="0"/>
        <pt x="283" y="518" on="0"/>
        <pt x="266" y="454" on="1"/>
        <pt x="496" y="454" on="1"/>
        <pt x="475" y="374" on="1"/>
        <pt x="259" y="374" on="1"/>
        <pt x="259" y="301" on="1"/>
        <pt x="459" y="301" on="1"/>
        <pt x="439" y="221" on="1"/>
        <pt x="264" y="221" on="1"/>
        <pt x="277" y="155" on="0"/>
        <pt x="348" y="94" on="0"/>
        <pt x="405" y="94" on="1"/>
        <pt x="442" y="94" on="0"/>
        <pt x="511" y="118" on="0"/>
        <pt x="543" y="137" on="1"/>
      </contour>
    </TTGlyph>
    <TTGlyph name="F" xMin="69" yMin="0" xMax="476" yMax="693">
      <contour>
        <pt x="69" y="693" on="1"/>
        <pt x="476" y="693" on="1"/>
        <pt x="460" y="580" on="1"/>
        <pt x="225" y="580" on="1"/>
        <pt x="225" y="391" on="1"/>
        <pt x="430" y="391" on="1"/>
        <pt x="430" y="278" on="1"/>
        <pt x="225" y="278" on="1"/>
        <pt x="225" y="0" on="1"/>
        <pt x="69" y="0" on="1"/>
      </contour>
    </TTGlyph>
    <TTGlyph name="G" xMin="36" yMin="-16" xMax="596" yMax="709">
      <contour>
        <pt x="36" y="347" on="1"/>
        <pt x="36" y="434" on="0"/>
        <pt x="87" y="570" on="0"/>
        <pt x="176" y="661" on="0"/>
        <pt x="295" y="709" on="0"/>
        <pt x="362" y="709" on="1"/>
        <pt x="437" y="709" on="0"/>
        <pt x="549" y="662" on="0"/>
        <pt x="592" y="625" on="1"/>
        <pt x="510" y="540" on="1"/>
        <pt x="476" y="568" on="0"/>
        <pt x="413" y="595" on="0"/>
        <pt x="370" y="595" on="1"/>
        <pt x="298" y="595" on="0"/>
        <pt x="198" y="478" on="0"/>
        <pt x="198" y="347" on="1"/>
        <pt x="198" y="210" on="0"/>
        <pt x="273" y="99" on="0"/>
        <pt x="347" y="99" on="1"/>
        <pt x="373" y="99" on="0"/>
        <pt x="423" y="110" on="0"/>
        <pt x="445" y="123" on="1"/>
        <pt x="445" y="286" on="1"/>
        <pt x="351" y="286" on="1"/>
        <pt x="336" y="397" on="1"/>
        <pt x="596" y="397" on="1"/>
        <pt x="596" y="55" on="1"/>
        <pt x="544" y="21" on="0"/>
        <pt x="415" y="-16" on="0"/>
        <pt x="347" y="-16" on="1"/>
        <pt x="194" y="-16" on="0"/>
        <pt x="36" y="170" on="0"/>
      </contour>
    </TTGlyph>
    <TTGlyph name="Gamma" xMin="69" yMin="0" xMax="508" yMax="693">
      <component glyphName="uni0413" x="0" y="0" flags="0x204"/>
    </TTGlyph>
    <TTGlyph name="Gbreve" xMin="36" yMin="-16" xMax="596" yMax="924">
      <component glyphName="G" x="0" y="0" flags="0x204"/>
      <component glyphName="breve.case" x="152" y="0" flags="0x4"/>
    </TTGlyph>
    <TTGlyph name="Gcircumflex" xMin="36" yMin="-16" xMax="596" yMax="945">
      <component glyphName="circumflex.case" x="135" y="0" flags="0x4"/>
      <component glyphName="G" x="0" y="0" flags="0x204"/>
    </TTGlyph>
    <TTGlyph name="Gcommaaccent" xMin="36" yMin="-321" xMax="596" yMax="709">
      <component glyphName="uni0326.case" x="239" y="0" flags="0x4"/>
      <component glyphName="G" x="0" y="0" flags="0x204"/>
    </TTGlyph>
    <TTGlyph name="Gdotaccent" xMin="36" yMin="-16" xMax="596" yMax="933">
      <component glyphName="dotaccent.case" x="232" y="0" flags="0x4"/>
      <component glyphName="G" x="0" y="0" flags="0x204"/>
    </TTGlyph>
    <TTGlyph name="H" xMin="69" yMin="0" xMax="599" yMax="693">
      <contour>
        <pt x="599" y="0" on="1"/>
        <pt x="443" y="0" on="1"/>
        <pt x="443" y="300" on="1"/>
        <pt x="225" y="300" on="1"/>
        <pt x="225" y="0" on="1"/>
        <pt x="69" y="0" on="1"/>
        <pt x="69" y="693" on="1"/>
        <pt x="225" y="693" on="1"/>
        <pt x="225" y="422" on="1"/>
        <pt x="443" y="422" on="1"/>
        <pt x="443" y="693" on="1"/>
        <pt x="599" y="693" on="1"/>
      </contour>
    </TTGlyph>
    <TTGlyph name="Hbar" xMin="16" yMin="0" xMax="663" yMax="693">
      <contour>
        <pt x="230" y="422" on="1"/>
        <pt x="449" y="422" on="1"/>
        <pt x="449" y="501" on="1"/>
        <pt x="230" y="501" on="1"/>
      </contour>
      <contour>
        <pt x="230" y="300" on="1"/>
        <pt x="230" y="0" on="1"/>
        <pt x="74" y="0" on="1"/>
        <pt x="74" y="501" on="1"/>
        <pt x="16" y="501" on="1"/>
        <pt x="16" y="590" on="1"/>
        <pt x="74" y="590" on="1"/>
        <pt x="74" y="693" on="1"/>
        <pt x="230" y="693" on="1"/>
        <pt x="230" y="590" on="1"/>
        <pt x="449" y="590" on="1"/>
        <pt x="449" y="693" on="1"/>
        <pt x="604" y="693" on="1"/>
        <pt x="604" y="590" on="1"/>
        <pt x="663" y="590" on="1"/>
        <pt x="663" y="501" on="1"/>
        <pt x="604" y="501" on="1"/>
        <pt x="604" y="0" on="1"/>
        <pt x="449" y="0" on="1"/>
        <pt x="449" y="300" on="1"/>
      </contour>
    </TTGlyph>
    <TTGlyph name="Hcircumflex" xMin="69" yMin="0" xMax="599" yMax="945">
      <component glyphName="H" x="0" y="0" flags="0x204"/>
      <component glyphName="circumflex.case" x="117" y="0" flags="0x4"/>
    </TTGlyph>
    <TTGlyph name="I" xMin="69" yMin="0" xMax="225" yMax="693">
      <contour>
        <pt x="69" y="693" on="1"/>
        <pt x="225" y="693" on="1"/>
        <pt x="225" y="0" on="1"/>
        <pt x="69" y="0" on="1"/>
      </contour>
    </TTGlyph>
    <TTGlyph name="IJ" xMin="69" yMin="-165" xMax="544" yMax="693">
      <component glyphName="I" x="0" y="0" flags="0x204"/>
      <component glyphName="J" x="294" y="0" flags="0x4"/>
    </TTGlyph>
    <TTGlyph name="Iacute" xMin="8" yMin="0" xMax="283" yMax="951">
      <component glyphName="I" x="0" y="0" flags="0x204"/>
      <component glyphName="acute.case" x="-22" y="0" flags="0x4"/>
    </TTGlyph>
    <TTGlyph name="Ibreve" xMin="-23" yMin="0" xMax="317" yMax="924">
      <component glyphName="I" x="0" y="0" flags="0x204"/>
      <component glyphName="breve.case" x="-53" y="0" flags="0x4"/>
    </TTGlyph>
    <TTGlyph name="Icircumflex" xMin="-40" yMin="0" xMax="334" yMax="945">
      <component glyphName="I" x="0" y="0" flags="0x204"/>
      <component glyphName="circumflex.case" x="-70" y="0" flags="0x4"/>
    </TTGlyph>
    <TTGlyph name="Idieresis" xMin="-46" yMin="0" xMax="339" yMax="921">
      <component glyphName="I" x="0" y="0" flags="0x204"/>
      <component glyphName="dieresis.case" x="-77" y="0" flags="0x4"/>
    </TTGlyph>
    <TTGlyph name="Idotaccent" xMin="57" yMin="0" xMax="237" yMax="933">
      <component glyphName="I" x="0" y="0" flags="0x204"/>
      <component glyphName="dotaccent.case" x="27" y="0" flags="0x4"/>
    </TTGlyph>
    <TTGlyph name="Igrave" xMin="2" yMin="0" xMax="277" yMax="951">
      <component glyphName="I" x="0" y="0" flags="0x204"/>
      <component glyphName="grave.case" x="-28" y="0" flags="0x4"/>
    </TTGlyph>
    <TTGlyph name="Imacron" xMin="-4" yMin="0" xMax="297" yMax="884">
      <component glyphName="I" x="0" y="0" flags="0x204"/>
      <component glyphName="macron.case" x="-34" y="-3" flags="0x4"/>
    </TTGlyph>
    <TTGlyph name="Iogonek" xMin="-28" yMin="-244" xMax="225" yMax="693">
      <component glyphName="I" x="0" y="0" flags="0x204"/>
      <component glyphName="ogonek" x="-27" y="0" flags="0x4"/>
    </TTGlyph>
    <TTGlyph name="Iota" xMin="69" yMin="0" xMax="225" yMax="693">
      <component glyphName="I" x="0" y="0" flags="0x204"/>
    </TTGlyph>
    <TTGlyph name="Iotadieresis" xMin="-46" yMin="0" xMax="339" yMax="921">
      <component glyphName="I" x="0" y="0" flags="0x204"/>
      <component glyphName="dieresis.case" x="-77" y="0" flags="0x4"/>
    </TTGlyph>
    <TTGlyph name="Iotatonos" xMin="-134" yMin="0" xMax="225" yMax="722">
      <component glyphName="I" x="0" y="0" flags="0x204"/>
      <component glyphName="tonos.case" x="-175" y="0" flags="0x4"/>
    </TTGlyph>
    <TTGlyph name="Itilde" xMin="-39" yMin="0" xMax="332" yMax="916">
      <component glyphName="I" x="0" y="0" flags="0x204"/>
      <component glyphName="tilde.case" x="-69" y="0" flags="0x4"/>
    </TTGlyph>
    <TTGlyph name="J" xMin="-9" yMin="-165" xMax="250" yMax="693">
      <contour>
        <pt x="95" y="693" on="1"/>
        <pt x="250" y="693" on="1"/>
        <pt x="250" y="104" on="1"/>
        <pt x="250" y="-24" on="0"/>
        <pt x="120" y="-137" on="0"/>
        <pt x="33" y="-165" on="1"/>
        <pt x="-9" y="-55" on="1"/>
        <pt x="58" y="-29" on="0"/>
        <pt x="95" y="47" on="0"/>
        <pt x="95" y="110" on="1"/>
      </contour>
    </TTGlyph>
    <TTGlyph name="Jcircumflex" xMin="-14" yMin="-165" xMax="360" yMax="945">
      <component glyphName="J" x="0" y="0" flags="0x204"/>
      <component glyphName="circumflex.case" x="-44" y="0" flags="0x4"/>
    </TTGlyph>
    <TTGlyph name="K" xMin="69" yMin="0" xMax="638" yMax="693">
      <contour>
        <pt x="69" y="693" on="1"/>
        <pt x="225" y="693" on="1"/>
        <pt x="225" y="0" on="1"/>
        <pt x="69" y="0" on="1"/>
      </contour>
      <contour>
        <pt x="455" y="693" on="1"/>
        <pt x="620" y="693" on="1"/>
        <pt x="394" y="381" on="1"/>
        <pt x="638" y="0" on="1"/>
        <pt x="457" y="0" on="1"/>
        <pt x="230" y="370" on="1"/>
      </contour>
    </TTGlyph>
    <TTGlyph name="Kappa" xMin="69" yMin="0" xMax="638" yMax="693">
      <component glyphName="K" x="0" y="0" flags="0x204"/>
    </TTGlyph>
    <TTGlyph name="Kcommaaccent" xMin="69" yMin="-321" xMax="638" yMax="693">
      <component glyphName="uni0326.case" x="216" y="0" flags="0x4"/>
      <component glyphName="K" x="0" y="0" flags="0x204"/>
    </TTGlyph>
    <TTGlyph name="L" xMin="69" yMin="0" xMax="497" yMax="693">
      <contour>
        <pt x="69" y="693" on="1"/>
        <pt x="225" y="693" on="1"/>
        <pt x="225" y="124" on="1"/>
        <pt x="497" y="124" on="1"/>
        <pt x="480" y="0" on="1"/>
        <pt x="69" y="0" on="1"/>
      </contour>
    </TTGlyph>
    <TTGlyph name="Lacute" xMin="8" yMin="0" xMax="497" yMax="951">
      <component glyphName="acute.case" x="-22" y="0" flags="0x4"/>
      <component glyphName="L" x="0" y="0" flags="0x204"/>
    </TTGlyph>
    <TTGlyph name="Lambda" xMin="-11" yMin="0" xMax="599" yMax="693">
      <contour>
        <pt x="200" y="693" on="1"/>
        <pt x="389" y="693" on="1"/>
        <pt x="599" y="0" on="1"/>
        <pt x="435" y="0" on="1"/>
        <pt x="293" y="578" on="1"/>
        <pt x="150" y="0" on="1"/>
        <pt x="-11" y="0" on="1"/>
      </contour>
    </TTGlyph>
    <TTGlyph name="Lcaron" xMin="69" yMin="0" xMax="497" yMax="706">
      <component glyphName="caron.alt" x="217" y="0" flags="0x4"/>
      <component glyphName="L" x="0" y="0" flags="0x204"/>
    </TTGlyph>
    <TTGlyph name="Lcommaaccent" xMin="69" yMin="-321" xMax="497" yMax="693">
      <component glyphName="uni0326.case" x="167" y="0" flags="0x4"/>
      <component glyphName="L" x="0" y="0" flags="0x204"/>
    </TTGlyph>
    <TTGlyph name="Ldot" xMin="69" yMin="0" xMax="497" yMax="693">
      <component glyphName="L" x="0" y="0" flags="0x204"/>
      <component glyphName="dotaccent" x="277" y="-324" flags="0x4"/>
    </TTGlyph>
    <TTGlyph name="Lslash" xMin="10" yMin="0" xMax="533" yMax="693">
      <contour>
        <pt x="517" y="0" on="1"/>
        <pt x="106" y="0" on="1"/>
        <pt x="106" y="228" on="1"/>
        <pt x="62" y="201" on="1"/>
        <pt x="10" y="285" on="1"/>
        <pt x="106" y="344" on="1"/>
        <pt x="106" y="693" on="1"/>
        <pt x="261" y="693" on="1"/>
        <pt x="261" y="440" on="1"/>
        <pt x="393" y="522" on="1"/>
        <pt x="445" y="439" on="1"/>
        <pt x="261" y="325" on="1"/>
        <pt x="261" y="124" on="1"/>
        <pt x="533" y="124" on="1"/>
      </contour>
    </TTGlyph>
    <TTGlyph name="M" xMin="36" yMin="0" xMax="749" yMax="693">
      <contour>
        <pt x="498" y="693" on="1"/>
        <pt x="696" y="693" on="1"/>
        <pt x="749" y="0" on="1"/>
        <pt x="596" y="0" on="1"/>
        <pt x="582" y="276" on="1"/>
        <pt x="578" y="349" on="0"/>
        <pt x="575" y="497" on="0"/>
        <pt x="579" y="559" on="1"/>
        <pt x="466" y="74" on="1"/>
        <pt x="319" y="74" on="1"/>
        <pt x="200" y="559" on="1"/>
        <pt x="204" y="484" on="0"/>
        <pt x="205" y="346" on="0"/>
        <pt x="201" y="273" on="1"/>
        <pt x="188" y="0" on="1"/>
        <pt x="36" y="0" on="1"/>
        <pt x="89" y="693" on="1"/>
        <pt x="286" y="693" on="1"/>
        <pt x="396" y="219" on="1"/>
      </contour>
    </TTGlyph>
    <TTGlyph name="Mu" xMin="36" yMin="0" xMax="749" yMax="693">
      <component glyphName="M" x="0" y="0" flags="0x204"/>
    </TTGlyph>
    <TTGlyph name="N" xMin="69" yMin="0" xMax="597" yMax="693">
      <contour>
        <pt x="457" y="693" on="1"/>
        <pt x="597" y="693" on="1"/>
        <pt x="597" y="0" on="1"/>
        <pt x="398" y="0" on="1"/>
        <pt x="188" y="543" on="1"/>
        <pt x="194" y="496" on="0"/>
        <pt x="209" y="357" on="0"/>
        <pt x="209" y="261" on="1"/>
        <pt x="209" y="0" on="1"/>
        <pt x="69" y="0" on="1"/>
        <pt x="69" y="693" on="1"/>
        <pt x="263" y="693" on="1"/>
        <pt x="478" y="148" on="1"/>
        <pt x="472" y="187" on="0"/>
        <pt x="457" y="321" on="0"/>
        <pt x="457" y="401" on="1"/>
      </contour>
    </TTGlyph>
    <TTGlyph name="Nacute" xMin="69" yMin="0" xMax="597" yMax="951">
      <component glyphName="acute.case" x="169" y="0" flags="0x4"/>
      <component glyphName="N" x="0" y="0" flags="0x204"/>
    </TTGlyph>
    <TTGlyph name="Nacute.loclPLK" xMin="69" yMin="0" xMax="597" yMax="960">
      <component glyphName="N" x="0" y="0" flags="0x204"/>
      <component glyphName="acute.case.loclPLK" x="171" y="0" flags="0x4"/>
    </TTGlyph>
    <TTGlyph name="Ncaron" xMin="69" yMin="0" xMax="597" yMax="940">
      <component glyphName="N" x="0" y="0" flags="0x204"/>
      <component glyphName="caron.case" x="121" y="0" flags="0x4"/>
    </TTGlyph>
    <TTGlyph name="Ncommaaccent" xMin="69" yMin="-321" xMax="597" yMax="693">
      <component glyphName="uni0326.case" x="226" y="0" flags="0x4"/>
      <component glyphName="N" x="0" y="0" flags="0x204"/>
    </TTGlyph>
    <TTGlyph name="Ntilde" xMin="69" yMin="0" xMax="597" yMax="916">
      <component glyphName="tilde.case" x="123" y="0" flags="0x4"/>
      <component glyphName="N" x="0" y="0" flags="0x204"/>
    </TTGlyph>
    <TTGlyph name="Nu" xMin="69" yMin="0" xMax="597" yMax="693">
      <component glyphName="N" x="0" y="0" flags="0x204"/>
    </TTGlyph>
    <TTGlyph name="O" xMin="36" yMin="-16" xMax="655" yMax="709">
      <contour>
        <pt x="36" y="346" on="1"/>
        <pt x="36" y="515" on="0"/>
        <pt x="202" y="709" on="0"/>
        <pt x="345" y="709" on="1"/>
        <pt x="489" y="709" on="0"/>
        <pt x="655" y="519" on="0"/>
        <pt x="655" y="347" on="1"/>
        <pt x="655" y="178" on="0"/>
        <pt x="489" y="-16" on="0"/>
        <pt x="345" y="-16" on="1"/>
        <pt x="202" y="-16" on="0"/>
        <pt x="36" y="174" on="0"/>
      </contour>
      <contour>
        <pt x="492" y="347" on="1"/>
        <pt x="492" y="479" on="0"/>
        <pt x="417" y="594" on="0"/>
        <pt x="345" y="594" on="1"/>
        <pt x="275" y="594" on="0"/>
        <pt x="199" y="479" on="0"/>
        <pt x="199" y="346" on="1"/>
        <pt x="199" y="213" on="0"/>
        <pt x="276" y="99" on="0"/>
        <pt x="345" y="99" on="1"/>
        <pt x="417" y="99" on="0"/>
        <pt x="492" y="213" on="0"/>
      </contour>
    </TTGlyph>
    <TTGlyph name="OE" xMin="36" yMin="-16" xMax="866" yMax="709">
      <contour>
        <pt x="472" y="347" on="1"/>
        <pt x="472" y="479" on="0"/>
        <pt x="400" y="594" on="0"/>
        <pt x="335" y="594" on="1"/>
        <pt x="272" y="594" on="0"/>
        <pt x="199" y="479" on="0"/>
        <pt x="199" y="346" on="1"/>
        <pt x="199" y="213" on="0"/>
        <pt x="273" y="99" on="0"/>
        <pt x="335" y="99" on="1"/>
        <pt x="400" y="99" on="0"/>
        <pt x="472" y="213" on="0"/>
      </contour>
      <contour>
        <pt x="866" y="0" on="1"/>
        <pt x="421" y="0" on="1"/>
        <pt x="400" y="-8" on="0"/>
        <pt x="355" y="-16" on="0"/>
        <pt x="330" y="-16" on="1"/>
        <pt x="198" y="-16" on="0"/>
        <pt x="36" y="174" on="0"/>
        <pt x="36" y="346" on="1"/>
        <pt x="36" y="515" on="0"/>
        <pt x="198" y="709" on="0"/>
        <pt x="330" y="709" on="1"/>
        <pt x="355" y="709" on="0"/>
        <pt x="403" y="701" on="0"/>
        <pt x="425" y="693" on="1"/>
        <pt x="865" y="693" on="1"/>
        <pt x="849" y="580" on="1"/>
        <pt x="567" y="580" on="1"/>
        <pt x="593" y="545" on="0"/>
        <pt x="626" y="456" on="0"/>
        <pt x="632" y="407" on="1"/>
        <pt x="817" y="407" on="1"/>
        <pt x="817" y="297" on="1"/>
        <pt x="632" y="297" on="1"/>
        <pt x="627" y="244" on="0"/>
        <pt x="592" y="150" on="0"/>
        <pt x="563" y="113" on="1"/>
        <pt x="866" y="113" on="1"/>
      </contour>
    </TTGlyph>
    <TTGlyph name="Oacute" xMin="36" yMin="-16" xMax="655" yMax="951">
      <component glyphName="acute.case" x="178" y="0" flags="0x4"/>
      <component glyphName="O" x="0" y="0" flags="0x204"/>
    </TTGlyph>
    <TTGlyph name="Oacute.loclPLK" xMin="36" yMin="-16" xMax="655" yMax="960">
      <component glyphName="O" x="0" y="0" flags="0x204"/>
      <component glyphName="acute.case.loclPLK" x="180" y="0" flags="0x4"/>
    </TTGlyph>
    <TTGlyph name="Obreve" xMin="36" yMin="-16" xMax="655" yMax="924">
      <component glyphName="O" x="0" y="0" flags="0x204"/>
      <component glyphName="breve.case" x="147" y="0" flags="0x4"/>
    </TTGlyph>
    <TTGlyph name="Ocircumflex" xMin="36" yMin="-16" xMax="655" yMax="945">
      <component glyphName="circumflex.case" x="130" y="0" flags="0x4"/>
      <component glyphName="O" x="0" y="0" flags="0x204"/>
    </TTGlyph>
    <TTGlyph name="Odieresis" xMin="36" yMin="-16" xMax="655" yMax="921">
      <component glyphName="O" x="0" y="0" flags="0x204"/>
      <component glyphName="dieresis.case" x="123" y="0" flags="0x4"/>
    </TTGlyph>
    <TTGlyph name="Ograve" xMin="36" yMin="-16" xMax="655" yMax="951">
      <component glyphName="grave.case" x="172" y="0" flags="0x4"/>
      <component glyphName="O" x="0" y="0" flags="0x204"/>
    </TTGlyph>
    <TTGlyph name="Ohm" xMin="36" yMin="0" xMax="655" yMax="709">
      <component glyphName="Omega" x="0" y="0" flags="0x204"/>
    </TTGlyph>
    <TTGlyph name="Ohungarumlaut" xMin="36" yMin="-16" xMax="655" yMax="983">
      <component glyphName="hungarumlaut.case" x="187" y="0" flags="0x4"/>
      <component glyphName="O" x="0" y="0" flags="0x204"/>
    </TTGlyph>
    <TTGlyph name="Omacron" xMin="36" yMin="-16" xMax="655" yMax="884">
      <component glyphName="O" x="0" y="0" flags="0x204"/>
      <component glyphName="macron.case" x="166" y="-3" flags="0x4"/>
    </TTGlyph>
    <TTGlyph name="Omega" xMin="36" yMin="0" xMax="655" yMax="709">
      <contour>
        <pt x="36" y="374" on="1"/>
        <pt x="36" y="519" on="0"/>
        <pt x="202" y="709" on="0"/>
        <pt x="345" y="709" on="1"/>
        <pt x="491" y="709" on="0"/>
        <pt x="655" y="521" on="0"/>
        <pt x="655" y="375" on="1"/>
        <pt x="655" y="280" on="0"/>
        <pt x="590" y="153" on="0"/>
        <pt x="521" y="114" on="1"/>
        <pt x="634" y="114" on="1"/>
        <pt x="634" y="0" on="1"/>
        <pt x="385" y="0" on="1"/>
        <pt x="385" y="108" on="1"/>
        <pt x="450" y="136" on="0"/>
        <pt x="492" y="262" on="0"/>
        <pt x="492" y="375" on="1"/>
        <pt x="492" y="485" on="0"/>
        <pt x="417" y="594" on="0"/>
        <pt x="345" y="594" on="1"/>
        <pt x="275" y="594" on="0"/>
        <pt x="199" y="484" on="0"/>
        <pt x="199" y="374" on="1"/>
        <pt x="199" y="257" on="0"/>
        <pt x="243" y="136" on="0"/>
        <pt x="305" y="108" on="1"/>
        <pt x="305" y="0" on="1"/>
        <pt x="57" y="0" on="1"/>
        <pt x="57" y="114" on="1"/>
        <pt x="167" y="114" on="1"/>
        <pt x="102" y="150" on="0"/>
        <pt x="36" y="278" on="0"/>
      </contour>
    </TTGlyph>
    <TTGlyph name="Omegatonos" xMin="-95" yMin="0" xMax="655" yMax="722">
      <component glyphName="Omega" x="0" y="0" flags="0x204"/>
      <component glyphName="tonos.case" x="-136" y="0" flags="0x4"/>
    </TTGlyph>
    <TTGlyph name="Omicron" xMin="36" yMin="-16" xMax="655" yMax="709">
      <component glyphName="O" x="0" y="0" flags="0x204"/>
    </TTGlyph>
    <TTGlyph name="Omicrontonos" xMin="-91" yMin="-16" xMax="655" yMax="722">
      <component glyphName="O" x="0" y="0" flags="0x204"/>
      <component glyphName="tonos.case" x="-132" y="0" flags="0x4"/>
    </TTGlyph>
    <TTGlyph name="Oslash" xMin="36" yMin="-134" xMax="655" yMax="827">
      <contour>
        <pt x="199" y="346" on="1"/>
        <pt x="199" y="267" on="0"/>
        <pt x="221" y="168" on="0"/>
        <pt x="242" y="141" on="1"/>
        <pt x="378" y="592" on="1"/>
        <pt x="371" y="593" on="0"/>
        <pt x="354" y="594" on="0"/>
        <pt x="345" y="594" on="1"/>
        <pt x="275" y="594" on="0"/>
        <pt x="199" y="479" on="0"/>
      </contour>
      <contour>
        <pt x="345" y="99" on="1"/>
        <pt x="417" y="99" on="0"/>
        <pt x="492" y="213" on="0"/>
        <pt x="492" y="347" on="1"/>
        <pt x="492" y="427" on="0"/>
        <pt x="470" y="527" on="0"/>
        <pt x="448" y="554" on="1"/>
        <pt x="314" y="101" on="1"/>
        <pt x="321" y="100" on="0"/>
        <pt x="337" y="99" on="0"/>
      </contour>
      <contour>
        <pt x="345" y="-16" on="1"/>
        <pt x="332" y="-16" on="0"/>
        <pt x="307" y="-14" on="0"/>
        <pt x="294" y="-13" on="1"/>
        <pt x="258" y="-134" on="1"/>
        <pt x="140" y="-102" on="1"/>
        <pt x="180" y="26" on="1"/>
        <pt x="111" y="68" on="0"/>
        <pt x="36" y="231" on="0"/>
        <pt x="36" y="346" on="1"/>
        <pt x="36" y="515" on="0"/>
        <pt x="202" y="709" on="0"/>
        <pt x="345" y="709" on="1"/>
        <pt x="358" y="709" on="0"/>
        <pt x="384" y="707" on="0"/>
        <pt x="397" y="706" on="1"/>
        <pt x="434" y="827" on="1"/>
        <pt x="552" y="795" on="1"/>
        <pt x="511" y="667" on="1"/>
        <pt x="580" y="625" on="0"/>
        <pt x="655" y="462" on="0"/>
        <pt x="655" y="347" on="1"/>
        <pt x="655" y="178" on="0"/>
        <pt x="489" y="-16" on="0"/>
      </contour>
    </TTGlyph>
    <TTGlyph name="Oslashacute" xMin="36" yMin="-134" xMax="655" yMax="982">
      <component glyphName="Oslash" x="0" y="0" flags="0x204"/>
      <component glyphName="acute.case" x="174" y="31" flags="0x4"/>
    </TTGlyph>
    <TTGlyph name="Oslashacute.001" xMin="36" yMin="-134" xMax="655" yMax="982">
      <component glyphName="Oslash" x="0" y="0" flags="0x204"/>
      <component glyphName="acute.case" x="174" y="31" flags="0x4"/>
    </TTGlyph>
    <TTGlyph name="Otilde" xMin="36" yMin="-16" xMax="655" yMax="916">
      <component glyphName="O" x="0" y="0" flags="0x204"/>
      <component glyphName="tilde.case" x="132" y="0" flags="0x4"/>
    </TTGlyph>
    <TTGlyph name="P" xMin="69" yMin="0" xMax="575" yMax="693">
      <contour>
        <pt x="225" y="581" on="1"/>
        <pt x="225" y="347" on="1"/>
        <pt x="288" y="347" on="1"/>
        <pt x="346" y="347" on="0"/>
        <pt x="414" y="401" on="0"/>
        <pt x="414" y="468" on="1"/>
        <pt x="414" y="526" on="0"/>
        <pt x="348" y="581" on="0"/>
        <pt x="286" y="581" on="1"/>
      </contour>
      <contour>
        <pt x="301" y="233" on="1"/>
        <pt x="225" y="233" on="1"/>
        <pt x="225" y="0" on="1"/>
        <pt x="69" y="0" on="1"/>
        <pt x="69" y="693" on="1"/>
        <pt x="288" y="693" on="1"/>
        <pt x="421" y="693" on="0"/>
        <pt x="575" y="581" on="0"/>
        <pt x="575" y="468" on="1"/>
        <pt x="575" y="349" on="0"/>
        <pt x="420" y="233" on="0"/>
      </contour>
    </TTGlyph>
    <TTGlyph name="Phi" xMin="19" yMin="0" xMax="820" yMax="693">
      <contour>
        <pt x="495" y="0" on="1"/>
        <pt x="344" y="0" on="1"/>
        <pt x="344" y="75" on="1"/>
        <pt x="195" y="82" on="0"/>
        <pt x="19" y="220" on="0"/>
        <pt x="19" y="345" on="1"/>
        <pt x="19" y="473" on="0"/>
        <pt x="198" y="611" on="0"/>
        <pt x="344" y="617" on="1"/>
        <pt x="344" y="693" on="1"/>
        <pt x="495" y="693" on="1"/>
        <pt x="495" y="616" on="1"/>
        <pt x="644" y="609" on="0"/>
        <pt x="820" y="471" on="0"/>
        <pt x="820" y="349" on="1"/>
        <pt x="820" y="219" on="0"/>
        <pt x="641" y="80" on="0"/>
        <pt x="495" y="74" on="1"/>
      </contour>
      <contour>
        <pt x="662" y="349" on="1"/>
        <pt x="662" y="425" on="0"/>
        <pt x="578" y="517" on="0"/>
        <pt x="488" y="522" on="1"/>
        <pt x="488" y="169" on="1"/>
        <pt x="579" y="176" on="0"/>
        <pt x="662" y="271" on="0"/>
      </contour>
      <contour>
        <pt x="177" y="345" on="1"/>
        <pt x="177" y="268" on="0"/>
        <pt x="261" y="176" on="0"/>
        <pt x="350" y="170" on="1"/>
        <pt x="350" y="522" on="1"/>
        <pt x="259" y="515" on="0"/>
        <pt x="177" y="422" on="0"/>
      </contour>
    </TTGlyph>
    <TTGlyph name="Pi" xMin="69" yMin="0" xMax="596" yMax="693">
      <component glyphName="uni041F" x="0" y="0" flags="0x204"/>
    </TTGlyph>
    <TTGlyph name="Psi" xMin="21" yMin="0" xMax="702" yMax="693">
      <contour>
        <pt x="439" y="0" on="1"/>
        <pt x="284" y="0" on="1"/>
        <pt x="284" y="183" on="1"/>
        <pt x="153" y="199" on="0"/>
        <pt x="21" y="325" on="0"/>
        <pt x="21" y="429" on="1"/>
        <pt x="21" y="693" on="1"/>
        <pt x="171" y="693" on="1"/>
        <pt x="171" y="427" on="1"/>
        <pt x="171" y="368" on="0"/>
        <pt x="226" y="302" on="0"/>
        <pt x="290" y="292" on="1"/>
        <pt x="290" y="693" on="1"/>
        <pt x="433" y="693" on="1"/>
        <pt x="433" y="293" on="1"/>
        <pt x="495" y="303" on="0"/>
        <pt x="552" y="369" on="0"/>
        <pt x="552" y="427" on="1"/>
        <pt x="552" y="693" on="1"/>
        <pt x="702" y="693" on="1"/>
        <pt x="702" y="430" on="1"/>
        <pt x="702" y="326" on="0"/>
        <pt x="567" y="199" on="0"/>
        <pt x="439" y="184" on="1"/>
      </contour>
    </TTGlyph>
    <TTGlyph name="Q" xMin="36" yMin="-141" xMax="696" yMax="709">
      <contour>
        <pt x="601" y="-141" on="1"/>
        <pt x="552" y="-88" on="0"/>
        <pt x="432" y="-13" on="0"/>
        <pt x="336" y="-13" on="1"/>
        <pt x="199" y="-13" on="0"/>
        <pt x="36" y="174" on="0"/>
        <pt x="36" y="346" on="1"/>
        <pt x="36" y="515" on="0"/>
        <pt x="202" y="709" on="0"/>
        <pt x="345" y="709" on="1"/>
        <pt x="489" y="709" on="0"/>
        <pt x="655" y="519" on="0"/>
        <pt x="655" y="347" on="1"/>
        <pt x="655" y="222" on="0"/>
        <pt x="558" y="80" on="0"/>
        <pt x="493" y="44" on="1"/>
        <pt x="559" y="44" on="0"/>
        <pt x="655" y="11" on="0"/>
        <pt x="696" y="-19" on="1"/>
      </contour>
      <contour>
        <pt x="492" y="347" on="1"/>
        <pt x="492" y="479" on="0"/>
        <pt x="417" y="594" on="0"/>
        <pt x="345" y="594" on="1"/>
        <pt x="275" y="594" on="0"/>
        <pt x="199" y="479" on="0"/>
        <pt x="199" y="346" on="1"/>
        <pt x="199" y="213" on="0"/>
        <pt x="276" y="99" on="0"/>
        <pt x="345" y="99" on="1"/>
        <pt x="417" y="99" on="0"/>
        <pt x="492" y="213" on="0"/>
      </contour>
    </TTGlyph>
    <TTGlyph name="R" xMin="69" yMin="0" xMax="615" yMax="693">
      <contour>
        <pt x="225" y="582" on="1"/>
        <pt x="225" y="376" on="1"/>
        <pt x="298" y="376" on="1"/>
        <pt x="353" y="376" on="0"/>
        <pt x="412" y="427" on="0"/>
        <pt x="412" y="484" on="1"/>
        <pt x="412" y="535" on="0"/>
        <pt x="350" y="582" on="0"/>
        <pt x="287" y="582" on="1"/>
      </contour>
      <contour>
        <pt x="439" y="0" on="1"/>
        <pt x="294" y="268" on="1"/>
        <pt x="225" y="268" on="1"/>
        <pt x="225" y="0" on="1"/>
        <pt x="69" y="0" on="1"/>
        <pt x="69" y="693" on="1"/>
        <pt x="290" y="693" on="1"/>
        <pt x="430" y="693" on="0"/>
        <pt x="573" y="590" on="0"/>
        <pt x="573" y="484" on="1"/>
        <pt x="573" y="415" on="0"/>
        <pt x="506" y="327" on="0"/>
        <pt x="438" y="296" on="1"/>
        <pt x="615" y="0" on="1"/>
      </contour>
    </TTGlyph>
    <TTGlyph name="Racute" xMin="69" yMin="0" xMax="615" yMax="951">
      <component glyphName="R" x="0" y="0" flags="0x204"/>
      <component glyphName="acute.case" x="137" y="0" flags="0x4"/>
    </TTGlyph>
    <TTGlyph name="Rcaron" xMin="69" yMin="0" xMax="615" yMax="940">
      <component glyphName="R" x="0" y="0" flags="0x204"/>
      <component glyphName="caron.case" x="89" y="0" flags="0x4"/>
    </TTGlyph>
    <TTGlyph name="Rcommaaccent" xMin="69" yMin="-321" xMax="615" yMax="693">
      <component glyphName="uni0326.case" x="203" y="0" flags="0x4"/>
      <component glyphName="R" x="0" y="0" flags="0x204"/>
    </TTGlyph>
    <TTGlyph name="Rho" xMin="69" yMin="0" xMax="575" yMax="693">
      <component glyphName="P" x="0" y="0" flags="0x204"/>
    </TTGlyph>
    <TTGlyph name="S" xMin="11" yMin="-16" xMax="542" yMax="709">
      <contour>
        <pt x="40" y="511" on="1"/>
        <pt x="40" y="601" on="0"/>
        <pt x="180" y="709" on="0"/>
        <pt x="286" y="709" on="1"/>
        <pt x="364" y="709" on="0"/>
        <pt x="477" y="664" on="0"/>
        <pt x="523" y="621" on="1"/>
        <pt x="449" y="535" on="1"/>
        <pt x="413" y="565" on="0"/>
        <pt x="339" y="594" on="0"/>
        <pt x="297" y="594" on="1"/>
        <pt x="253" y="594" on="0"/>
        <pt x="200" y="557" on="0"/>
        <pt x="200" y="522" on="1"/>
        <pt x="200" y="488" on="0"/>
        <pt x="254" y="449" on="0"/>
        <pt x="337" y="423" on="1"/>
        <pt x="433" y="392" on="0"/>
        <pt x="542" y="297" on="0"/>
        <pt x="542" y="201" on="1"/>
        <pt x="542" y="105" on="0"/>
        <pt x="398" y="-16" on="0"/>
        <pt x="270" y="-16" on="1"/>
        <pt x="183" y="-16" on="0"/>
        <pt x="54" y="40" on="0"/>
        <pt x="11" y="81" on="1"/>
        <pt x="91" y="170" on="1"/>
        <pt x="128" y="137" on="0"/>
        <pt x="214" y="100" on="0"/>
        <pt x="266" y="100" on="1"/>
        <pt x="317" y="100" on="0"/>
        <pt x="380" y="147" on="0"/>
        <pt x="380" y="190" on="1"/>
        <pt x="380" y="230" on="0"/>
        <pt x="328" y="274" on="0"/>
        <pt x="251" y="298" on="1"/>
        <pt x="137" y="333" on="0"/>
        <pt x="40" y="433" on="0"/>
      </contour>
    </TTGlyph>
    <TTGlyph name="Sacute" xMin="11" yMin="-16" xMax="542" yMax="951">
      <component glyphName="S" x="0" y="0" flags="0x204"/>
      <component glyphName="acute.case" x="124" y="0" flags="0x4"/>
    </TTGlyph>
    <TTGlyph name="Sacute.loclPLK" xMin="11" yMin="-16" xMax="542" yMax="960">
      <component glyphName="S" x="0" y="0" flags="0x204"/>
      <component glyphName="acute.case.loclPLK" x="125" y="0" flags="0x4"/>
    </TTGlyph>
    <TTGlyph name="Scaron" xMin="11" yMin="-16" xMax="542" yMax="940">
      <component glyphName="S" x="0" y="0" flags="0x204"/>
      <component glyphName="caron.case" x="76" y="0" flags="0x4"/>
    </TTGlyph>
    <TTGlyph name="Scedilla" xMin="11" yMin="-260" xMax="542" yMax="709">
      <component glyphName="cedilla.case" x="138" y="0" flags="0x4"/>
      <component glyphName="S" x="0" y="0" flags="0x204"/>
    </TTGlyph>
    <TTGlyph name="Scircumflex" xMin="11" yMin="-16" xMax="542" yMax="945">
      <component glyphName="S" x="0" y="0" flags="0x204"/>
      <component glyphName="circumflex.case" x="76" y="0" flags="0x4"/>
    </TTGlyph>
    <TTGlyph name="Scommaaccent" xMin="11" yMin="-321" xMax="542" yMax="709">
      <component glyphName="uni0326.case" x="174" y="0" flags="0x4"/>
      <component glyphName="S" x="0" y="0" flags="0x204"/>
    </TTGlyph>
    <TTGlyph name="Sigma" xMin="24" yMin="0" xMax="479" yMax="693">
      <contour>
        <pt x="24" y="693" on="1"/>
        <pt x="479" y="693" on="1"/>
        <pt x="479" y="578" on="1"/>
        <pt x="196" y="578" on="1"/>
        <pt x="367" y="374" on="1"/>
        <pt x="367" y="309" on="1"/>
        <pt x="194" y="116" on="1"/>
        <pt x="479" y="116" on="1"/>
        <pt x="479" y="0" on="1"/>
        <pt x="24" y="0" on="1"/>
        <pt x="24" y="114" on="1"/>
        <pt x="219" y="340" on="1"/>
        <pt x="24" y="579" on="1"/>
      </contour>
    </TTGlyph>
    <TTGlyph name="T" xMin="10" yMin="0" xMax="535" yMax="693">
      <contour>
        <pt x="10" y="693" on="1"/>
        <pt x="535" y="693" on="1"/>
        <pt x="519" y="572" on="1"/>
        <pt x="346" y="572" on="1"/>
        <pt x="346" y="0" on="1"/>
        <pt x="191" y="0" on="1"/>
        <pt x="191" y="572" on="1"/>
        <pt x="10" y="572" on="1"/>
      </contour>
    </TTGlyph>
    <TTGlyph name="Tau" xMin="10" yMin="0" xMax="535" yMax="693">
      <component glyphName="T" x="0" y="0" flags="0x204"/>
    </TTGlyph>
    <TTGlyph name="Tbar" xMin="10" yMin="-1" xMax="535" yMax="692">
      <contour>
        <pt x="463" y="299" on="1"/>
        <pt x="346" y="299" on="1"/>
        <pt x="346" y="-1" on="1"/>
        <pt x="191" y="-1" on="1"/>
        <pt x="191" y="299" on="1"/>
        <pt x="75" y="299" on="1"/>
        <pt x="75" y="389" on="1"/>
        <pt x="191" y="389" on="1"/>
        <pt x="191" y="571" on="1"/>
        <pt x="10" y="571" on="1"/>
        <pt x="10" y="692" on="1"/>
        <pt x="535" y="692" on="1"/>
        <pt x="519" y="571" on="1"/>
        <pt x="346" y="571" on="1"/>
        <pt x="346" y="389" on="1"/>
        <pt x="463" y="389" on="1"/>
      </contour>
    </TTGlyph>
    <TTGlyph name="Tcaron" xMin="10" yMin="0" xMax="535" yMax="940">
      <component glyphName="T" x="0" y="0" flags="0x204"/>
      <component glyphName="caron.case" x="52" y="0" flags="0x4"/>
    </TTGlyph>
    <TTGlyph name="Tcedilla" xMin="10" yMin="-260" xMax="535" yMax="693">
      <component glyphName="cedillaTcedilla" x="165" y="0" flags="0x4"/>
      <component glyphName="T" x="0" y="0" flags="0x204"/>
    </TTGlyph>
    <TTGlyph name="Theta" xMin="36" yMin="-16" xMax="655" yMax="709">
      <contour>
        <pt x="36" y="346" on="1"/>
        <pt x="36" y="515" on="0"/>
        <pt x="202" y="709" on="0"/>
        <pt x="345" y="709" on="1"/>
        <pt x="489" y="709" on="0"/>
        <pt x="655" y="519" on="0"/>
        <pt x="655" y="347" on="1"/>
        <pt x="655" y="178" on="0"/>
        <pt x="489" y="-16" on="0"/>
        <pt x="345" y="-16" on="1"/>
        <pt x="202" y="-16" on="0"/>
        <pt x="36" y="174" on="0"/>
      </contour>
      <contour>
        <pt x="500" y="347" on="1"/>
        <pt x="500" y="479" on="0"/>
        <pt x="421" y="594" on="0"/>
        <pt x="345" y="594" on="1"/>
        <pt x="270" y="594" on="0"/>
        <pt x="191" y="479" on="0"/>
        <pt x="191" y="346" on="1"/>
        <pt x="191" y="213" on="0"/>
        <pt x="272" y="99" on="0"/>
        <pt x="345" y="99" on="1"/>
        <pt x="421" y="99" on="0"/>
        <pt x="500" y="213" on="0"/>
      </contour>
      <contour>
        <pt x="242" y="398" on="1"/>
        <pt x="449" y="398" on="1"/>
        <pt x="449" y="306" on="1"/>
        <pt x="242" y="306" on="1"/>
      </contour>
    </TTGlyph>
    <TTGlyph name="Thorn" xMin="69" yMin="0" xMax="575" yMax="693">
      <contour>
        <pt x="225" y="471" on="1"/>
        <pt x="225" y="229" on="1"/>
        <pt x="288" y="229" on="1"/>
        <pt x="346" y="229" on="0"/>
        <pt x="414" y="284" on="0"/>
        <pt x="414" y="356" on="1"/>
        <pt x="414" y="416" on="0"/>
        <pt x="348" y="471" on="0"/>
        <pt x="286" y="471" on="1"/>
      </contour>
      <contour>
        <pt x="301" y="116" on="1"/>
        <pt x="225" y="116" on="1"/>
        <pt x="225" y="0" on="1"/>
        <pt x="69" y="0" on="1"/>
        <pt x="69" y="693" on="1"/>
        <pt x="225" y="693" on="1"/>
        <pt x="225" y="583" on="1"/>
        <pt x="288" y="583" on="1"/>
        <pt x="421" y="583" on="0"/>
        <pt x="575" y="471" on="0"/>
        <pt x="575" y="356" on="1"/>
        <pt x="575" y="232" on="0"/>
        <pt x="420" y="116" on="0"/>
      </contour>
    </TTGlyph>
    <TTGlyph name="TseHelper.cy" xMin="69" yMin="0" xMax="589" yMax="693">
      <contour>
        <pt x="589" y="693" on="1"/>
        <pt x="589" y="0" on="1"/>
        <pt x="69" y="0" on="1"/>
        <pt x="69" y="693" on="1"/>
        <pt x="225" y="693" on="1"/>
        <pt x="225" y="122" on="1"/>
        <pt x="433" y="122" on="1"/>
        <pt x="433" y="693" on="1"/>
      </contour>
    </TTGlyph>
    <TTGlyph name="U" xMin="59" yMin="-16" xMax="593" yMax="693">
      <contour>
        <pt x="437" y="693" on="1"/>
        <pt x="593" y="693" on="1"/>
        <pt x="593" y="229" on="1"/>
        <pt x="593" y="125" on="0"/>
        <pt x="458" y="-16" on="0"/>
        <pt x="326" y="-16" on="1"/>
        <pt x="192" y="-16" on="0"/>
        <pt x="59" y="121" on="0"/>
        <pt x="59" y="229" on="1"/>
        <pt x="59" y="693" on="1"/>
        <pt x="215" y="693" on="1"/>
        <pt x="215" y="236" on="1"/>
        <pt x="215" y="168" on="0"/>
        <pt x="268" y="101" on="0"/>
        <pt x="326" y="101" on="1"/>
        <pt x="383" y="101" on="0"/>
        <pt x="437" y="168" on="0"/>
        <pt x="437" y="236" on="1"/>
      </contour>
    </TTGlyph>
    <TTGlyph name="Uacute" xMin="59" yMin="-16" xMax="593" yMax="951">
      <component glyphName="U" x="0" y="0" flags="0x204"/>
      <component glyphName="acute.case" x="157" y="0" flags="0x4"/>
    </TTGlyph>
    <TTGlyph name="Ubreve" xMin="59" yMin="-16" xMax="593" yMax="924">
      <component glyphName="U" x="0" y="0" flags="0x204"/>
      <component glyphName="breve.case" x="126" y="0" flags="0x4"/>
    </TTGlyph>
    <TTGlyph name="Ucircumflex" xMin="59" yMin="-16" xMax="593" yMax="945">
      <component glyphName="circumflex.case" x="109" y="0" flags="0x4"/>
      <component glyphName="U" x="0" y="0" flags="0x204"/>
    </TTGlyph>
    <TTGlyph name="Udieresis" xMin="59" yMin="-16" xMax="593" yMax="921">
      <component glyphName="U" x="0" y="0" flags="0x204"/>
      <component glyphName="dieresis.case" x="102" y="0" flags="0x4"/>
    </TTGlyph>
    <TTGlyph name="Ugrave" xMin="59" yMin="-16" xMax="593" yMax="951">
      <component glyphName="grave.case" x="151" y="0" flags="0x4"/>
      <component glyphName="U" x="0" y="0" flags="0x204"/>
    </TTGlyph>
    <TTGlyph name="Uhungarumlaut" xMin="59" yMin="-16" xMax="593" yMax="983">
      <component glyphName="hungarumlaut.case" x="166" y="0" flags="0x4"/>
      <component glyphName="U" x="0" y="0" flags="0x204"/>
    </TTGlyph>
    <TTGlyph name="Umacron" xMin="59" yMin="-16" xMax="593" yMax="884">
      <component glyphName="U" x="0" y="0" flags="0x204"/>
      <component glyphName="macron.case" x="145" y="-3" flags="0x4"/>
    </TTGlyph>
    <TTGlyph name="Uogonek" xMin="59" yMin="-244" xMax="593" yMax="693">
      <component glyphName="U" x="0" y="0" flags="0x204"/>
      <component glyphName="ogonek.thin" x="209" y="0" flags="0x4"/>
    </TTGlyph>
    <TTGlyph name="Upsilon" xMin="-6" yMin="0" xMax="594" yMax="693">
      <component glyphName="Y" x="0" y="0" flags="0x204"/>
    </TTGlyph>
    <TTGlyph name="Upsilondieresis" xMin="-6" yMin="0" xMax="594" yMax="921">
      <component glyphName="Y" x="0" y="0" flags="0x204"/>
      <component glyphName="dieresis.case" x="71" y="0" flags="0x4"/>
    </TTGlyph>
    <TTGlyph name="Upsilontonos" xMin="-202" yMin="0" xMax="594" yMax="722">
      <component glyphName="Y" x="0" y="0" flags="0x204"/>
      <component glyphName="tonos.case" x="-243" y="0" flags="0x4"/>
    </TTGlyph>
    <TTGlyph name="Uring" xMin="59" yMin="-16" xMax="593" yMax="989">
      <component glyphName="ring.case" x="160" y="0" flags="0x4"/>
      <component glyphName="U" x="0" y="0" flags="0x204"/>
    </TTGlyph>
    <TTGlyph name="Utilde" xMin="59" yMin="-16" xMax="593" yMax="916">
      <component glyphName="U" x="0" y="0" flags="0x204"/>
      <component glyphName="tilde.case" x="110" y="0" flags="0x4"/>
    </TTGlyph>
    <TTGlyph name="V" xMin="-11" yMin="0" xMax="580" yMax="693">
      <contour>
        <pt x="421" y="693" on="1"/>
        <pt x="580" y="693" on="1"/>
        <pt x="384" y="0" on="1"/>
        <pt x="192" y="0" on="1"/>
        <pt x="-11" y="693" on="1"/>
        <pt x="154" y="693" on="1"/>
        <pt x="290" y="125" on="1"/>
      </contour>
    </TTGlyph>
    <TTGlyph name="W" xMin="11" yMin="0" xMax="833" yMax="693">
      <contour>
        <pt x="685" y="693" on="1"/>
        <pt x="833" y="693" on="1"/>
        <pt x="714" y="0" on="1"/>
        <pt x="512" y="0" on="1"/>
        <pt x="421" y="535" on="1"/>
        <pt x="325" y="0" on="1"/>
        <pt x="128" y="0" on="1"/>
        <pt x="11" y="693" on="1"/>
        <pt x="166" y="693" on="1"/>
        <pt x="240" y="119" on="1"/>
        <pt x="341" y="693" on="1"/>
        <pt x="505" y="693" on="1"/>
        <pt x="600" y="119" on="1"/>
      </contour>
    </TTGlyph>
    <TTGlyph name="Wacute" xMin="11" yMin="0" xMax="833" yMax="951">
      <component glyphName="acute.case" x="254" y="0" flags="0x4"/>
      <component glyphName="W" x="0" y="0" flags="0x204"/>
    </TTGlyph>
    <TTGlyph name="Wcircumflex" xMin="11" yMin="0" xMax="833" yMax="945">
      <component glyphName="circumflex.case" x="207" y="0" flags="0x4"/>
      <component glyphName="W" x="0" y="0" flags="0x204"/>
    </TTGlyph>
    <TTGlyph name="Wdieresis" xMin="11" yMin="0" xMax="833" yMax="921">
      <component glyphName="W" x="0" y="0" flags="0x204"/>
      <component glyphName="dieresis.case" x="199" y="0" flags="0x4"/>
    </TTGlyph>
    <TTGlyph name="Wgrave" xMin="11" yMin="0" xMax="833" yMax="951">
      <component glyphName="grave.case" x="249" y="0" flags="0x4"/>
      <component glyphName="W" x="0" y="0" flags="0x204"/>
    </TTGlyph>
    <TTGlyph name="X" xMin="-3" yMin="0" xMax="579" yMax="693">
      <contour>
        <pt x="284" y="269" on="1"/>
        <pt x="162" y="0" on="1"/>
        <pt x="-3" y="0" on="1"/>
        <pt x="192" y="368" on="1"/>
        <pt x="12" y="693" on="1"/>
        <pt x="182" y="693" on="1"/>
        <pt x="286" y="466" on="1"/>
        <pt x="396" y="693" on="1"/>
        <pt x="561" y="693" on="1"/>
        <pt x="378" y="374" on="1"/>
        <pt x="579" y="0" on="1"/>
        <pt x="409" y="0" on="1"/>
      </contour>
    </TTGlyph>
    <TTGlyph name="Xi" xMin="31" yMin="0" xMax="491" yMax="693">
      <contour>
        <pt x="31" y="693" on="1"/>
        <pt x="490" y="693" on="1"/>
        <pt x="472" y="562" on="1"/>
        <pt x="31" y="562" on="1"/>
      </contour>
      <contour>
        <pt x="95" y="413" on="1"/>
        <pt x="424" y="413" on="1"/>
        <pt x="424" y="290" on="1"/>
        <pt x="95" y="290" on="1"/>
      </contour>
      <contour>
        <pt x="31" y="135" on="1"/>
        <pt x="491" y="135" on="1"/>
        <pt x="491" y="0" on="1"/>
        <pt x="31" y="0" on="1"/>
      </contour>
    </TTGlyph>
    <TTGlyph name="Y" xMin="-6" yMin="0" xMax="594" yMax="693">
      <contour>
        <pt x="430" y="693" on="1"/>
        <pt x="594" y="693" on="1"/>
        <pt x="372" y="261" on="1"/>
        <pt x="372" y="0" on="1"/>
        <pt x="216" y="0" on="1"/>
        <pt x="216" y="260" on="1"/>
        <pt x="-6" y="693" on="1"/>
        <pt x="165" y="693" on="1"/>
        <pt x="297" y="383" on="1"/>
      </contour>
    </TTGlyph>
    <TTGlyph name="Yacute" xMin="-6" yMin="0" xMax="594" yMax="951">
      <component glyphName="Y" x="0" y="0" flags="0x204"/>
      <component glyphName="acute.case" x="126" y="0" flags="0x4"/>
    </TTGlyph>
    <TTGlyph name="Ycircumflex" xMin="-6" yMin="0" xMax="594" yMax="945">
      <component glyphName="Y" x="0" y="0" flags="0x204"/>
      <component glyphName="circumflex.case" x="79" y="0" flags="0x4"/>
    </TTGlyph>
    <TTGlyph name="Ydieresis" xMin="-6" yMin="0" xMax="594" yMax="921">
      <component glyphName="Y" x="0" y="0" flags="0x204"/>
      <component glyphName="dieresis.case" x="71" y="0" flags="0x4"/>
    </TTGlyph>
    <TTGlyph name="Ygrave" xMin="-6" yMin="0" xMax="594" yMax="951">
      <component glyphName="Y" x="0" y="0" flags="0x204"/>
      <component glyphName="grave.case" x="121" y="0" flags="0x4"/>
    </TTGlyph>
    <TTGlyph name="Z" xMin="19" yMin="0" xMax="513" yMax="693">
      <contour>
        <pt x="51" y="693" on="1"/>
        <pt x="508" y="693" on="1"/>
        <pt x="508" y="574" on="1"/>
        <pt x="202" y="125" on="1"/>
        <pt x="513" y="125" on="1"/>
        <pt x="497" y="0" on="1"/>
        <pt x="19" y="0" on="1"/>
        <pt x="19" y="117" on="1"/>
        <pt x="331" y="571" on="1"/>
        <pt x="51" y="571" on="1"/>
      </contour>
    </TTGlyph>
    <TTGlyph name="Zacute" xMin="19" yMin="0" xMax="513" yMax="951">
      <component glyphName="Z" x="0" y="0" flags="0x204"/>
      <component glyphName="acute.case" x="106" y="0" flags="0x4"/>
    </TTGlyph>
    <TTGlyph name="Zacute.loclPLK" xMin="19" yMin="0" xMax="513" yMax="960">
      <component glyphName="Z" x="0" y="0" flags="0x204"/>
      <component glyphName="acute.case.loclPLK" x="108" y="0" flags="0x4"/>
    </TTGlyph>
    <TTGlyph name="Zcaron" xMin="19" yMin="0" xMax="513" yMax="940">
      <component glyphName="Z" x="0" y="0" flags="0x204"/>
      <component glyphName="caron.case" x="59" y="0" flags="0x4"/>
    </TTGlyph>
    <TTGlyph name="Zdotaccent" xMin="19" yMin="0" xMax="513" yMax="933">
      <component glyphName="dotaccent.case" x="156" y="0" flags="0x4"/>
      <component glyphName="Z" x="0" y="0" flags="0x204"/>
    </TTGlyph>
    <TTGlyph name="Zeta" xMin="19" yMin="0" xMax="513" yMax="693">
      <component glyphName="Z" x="0" y="0" flags="0x204"/>
    </TTGlyph>
    <TTGlyph name="a" xMin="29" yMin="-16" xMax="517" yMax="547">
      <contour>
        <pt x="244" y="91" on="1"/>
        <pt x="272" y="91" on="0"/>
        <pt x="317" y="120" on="0"/>
        <pt x="332" y="146" on="1"/>
        <pt x="332" y="244" on="1"/>
        <pt x="290" y="244" on="1"/>
        <pt x="234" y="244" on="0"/>
        <pt x="179" y="203" on="0"/>
        <pt x="179" y="161" on="1"/>
        <pt x="179" y="128" on="0"/>
        <pt x="213" y="91" on="0"/>
      </contour>
      <contour>
        <pt x="486" y="-14" on="1"/>
        <pt x="440" y="-10" on="0"/>
        <pt x="378" y="24" on="0"/>
        <pt x="360" y="62" on="1"/>
        <pt x="332" y="19" on="0"/>
        <pt x="247" y="-16" on="0"/>
        <pt x="201" y="-16" on="1"/>
        <pt x="122" y="-16" on="0"/>
        <pt x="29" y="77" on="0"/>
        <pt x="29" y="149" on="1"/>
        <pt x="29" y="235" on="0"/>
        <pt x="156" y="328" on="0"/>
        <pt x="275" y="328" on="1"/>
        <pt x="332" y="328" on="1"/>
        <pt x="332" y="352" on="1"/>
        <pt x="332" y="400" on="0"/>
        <pt x="289" y="437" on="0"/>
        <pt x="240" y="437" on="1"/>
        <pt x="215" y="437" on="0"/>
        <pt x="141" y="422" on="0"/>
        <pt x="101" y="409" on="1"/>
        <pt x="67" y="508" on="1"/>
        <pt x="116" y="527" on="0"/>
        <pt x="219" y="547" on="0"/>
        <pt x="264" y="547" on="1"/>
        <pt x="377" y="547" on="0"/>
        <pt x="480" y="451" on="0"/>
        <pt x="480" y="360" on="1"/>
        <pt x="480" y="150" on="1"/>
        <pt x="480" y="119" on="0"/>
        <pt x="498" y="91" on="0"/>
        <pt x="517" y="84" on="1"/>
      </contour>
    </TTGlyph>
    <TTGlyph name="a.sc" xMin="-11" yMin="0" xMax="529" yMax="568">
      <contour>
        <pt x="257" y="463" on="1"/>
        <pt x="199" y="224" on="1"/>
        <pt x="316" y="224" on="1"/>
      </contour>
      <contour>
        <pt x="371" y="0" on="1"/>
        <pt x="342" y="117" on="1"/>
        <pt x="173" y="117" on="1"/>
        <pt x="144" y="0" on="1"/>
        <pt x="-11" y="0" on="1"/>
        <pt x="170" y="568" on="1"/>
        <pt x="349" y="568" on="1"/>
        <pt x="529" y="0" on="1"/>
      </contour>
    </TTGlyph>
    <TTGlyph name="aacute" xMin="29" yMin="-16" xMax="517" yMax="831">
      <component glyphName="a" x="0" y="0" flags="0x204"/>
      <component glyphName="acute" x="92" y="0" flags="0x4"/>
    </TTGlyph>
    <TTGlyph name="aacute.sc" xMin="-11" yMin="0" xMax="529" yMax="861">
      <component glyphName="a.sc" x="0" y="0" flags="0x204"/>
      <component glyphName="acute.sc" x="86" y="0" flags="0x4"/>
    </TTGlyph>
    <TTGlyph name="abreve" xMin="29" yMin="-16" xMax="517" yMax="816">
      <component glyphName="a" x="0" y="0" flags="0x204"/>
      <component glyphName="breve" x="70" y="0" flags="0x4"/>
    </TTGlyph>
    <TTGlyph name="abreve.sc" xMin="-11" yMin="0" xMax="529" yMax="846">
      <component glyphName="breve.sc" x="59" y="0" flags="0x4"/>
      <component glyphName="a.sc" x="0" y="0" flags="0x204"/>
    </TTGlyph>
    <TTGlyph name="acircumflex" xMin="29" yMin="-16" xMax="517" yMax="818">
      <component glyphName="a" x="0" y="0" flags="0x204"/>
      <component glyphName="circumflex" x="53" y="0" flags="0x4"/>
    </TTGlyph>
    <TTGlyph name="acircumflex.sc" xMin="-11" yMin="0" xMax="529" yMax="848">
      <component glyphName="a.sc" x="0" y="0" flags="0x204"/>
      <component glyphName="circumflex.sc" x="42" y="0" flags="0x4"/>
    </TTGlyph>
    <TTGlyph name="acute" xMin="30" yMin="624" xMax="305" yMax="831">
      <contour>
        <pt x="30" y="701" on="1"/>
        <pt x="246" y="831" on="1"/>
        <pt x="305" y="717" on="1"/>
        <pt x="72" y="624" on="1"/>
      </contour>
    </TTGlyph>
    <TTGlyph name="acute.case" xMin="30" yMin="752" xMax="305" yMax="951">
      <contour>
        <pt x="30" y="828" on="1"/>
        <pt x="247" y="951" on="1"/>
        <pt x="305" y="837" on="1"/>
        <pt x="68" y="752" on="1"/>
      </contour>
    </TTGlyph>
    <TTGlyph name="acute.case.loclPLK" xMin="98" yMin="741" xMax="307" yMax="960">
      <contour>
        <pt x="98" y="780" on="1"/>
        <pt x="196" y="960" on="1"/>
        <pt x="307" y="896" on="1"/>
        <pt x="166" y="741" on="1"/>
      </contour>
    </TTGlyph>
    <TTGlyph name="acute.loclPLK" xMin="98" yMin="581" xMax="306" yMax="805">
      <contour>
        <pt x="98" y="620" on="1"/>
        <pt x="195" y="805" on="1"/>
        <pt x="306" y="741" on="1"/>
        <pt x="166" y="581" on="1"/>
      </contour>
    </TTGlyph>
    <TTGlyph name="acute.sc" xMin="30" yMin="654" xMax="305" yMax="861">
      <component glyphName="acute" x="0" y="30" flags="0x4"/>
    </TTGlyph>
    <TTGlyph name="acute.sc.loclPLK" xMin="98" yMin="626" xMax="306" yMax="850">
      <contour>
        <pt x="98" y="665" on="1"/>
        <pt x="195" y="850" on="1"/>
        <pt x="306" y="786" on="1"/>
        <pt x="166" y="626" on="1"/>
      </contour>
    </TTGlyph>
    <TTGlyph name="acutecomb" xMin="39" yMin="626" xMax="314" yMax="825">
      <contour>
        <pt x="39" y="702" on="1"/>
        <pt x="256" y="825" on="1"/>
        <pt x="314" y="711" on="1"/>
        <pt x="77" y="626" on="1"/>
      </contour>
    </TTGlyph>
    <TTGlyph name="acutecombcomb" xMin="39" yMin="626" xMax="314" yMax="825">
      <component glyphName="acutecomb" x="0" y="0" flags="0x204"/>
    </TTGlyph>
    <TTGlyph name="adieresis" xMin="29" yMin="-16" xMax="517" yMax="795">
      <component glyphName="a" x="0" y="0" flags="0x204"/>
      <component glyphName="dieresis" x="46" y="0" flags="0x4"/>
    </TTGlyph>
    <TTGlyph name="adieresis.sc" xMin="-11" yMin="0" xMax="529" yMax="825">
      <component glyphName="a.sc" x="0" y="0" flags="0x204"/>
      <component glyphName="dieresis.sc" x="35" y="0" flags="0x4"/>
    </TTGlyph>
    <TTGlyph name="ae" xMin="29" yMin="-16" xMax="824" yMax="547">
      <contour>
        <pt x="586" y="446" on="1"/>
        <pt x="545" y="446" on="0"/>
        <pt x="497" y="386" on="0"/>
        <pt x="492" y="313" on="1"/>
        <pt x="676" y="313" on="1"/>
        <pt x="676" y="319" on="1"/>
        <pt x="676" y="376" on="0"/>
        <pt x="635" y="446" on="0"/>
      </contour>
      <contour>
        <pt x="251" y="91" on="1"/>
        <pt x="282" y="91" on="0"/>
        <pt x="330" y="127" on="0"/>
        <pt x="352" y="159" on="1"/>
        <pt x="347" y="177" on="0"/>
        <pt x="341" y="216" on="0"/>
        <pt x="340" y="237" on="1"/>
        <pt x="340" y="241" on="1"/>
        <pt x="296" y="241" on="1"/>
        <pt x="242" y="241" on="0"/>
        <pt x="187" y="202" on="0"/>
        <pt x="187" y="159" on="1"/>
        <pt x="187" y="127" on="0"/>
        <pt x="220" y="91" on="0"/>
      </contour>
      <contour>
        <pt x="805" y="57" on="1"/>
        <pt x="765" y="26" on="0"/>
        <pt x="664" y="-16" on="0"/>
        <pt x="601" y="-16" on="1"/>
        <pt x="531" y="-16" on="0"/>
        <pt x="425" y="33" on="0"/>
        <pt x="393" y="75" on="1"/>
        <pt x="356" y="24" on="0"/>
        <pt x="260" y="-16" on="0"/>
        <pt x="205" y="-16" on="1"/>
        <pt x="123" y="-16" on="0"/>
        <pt x="29" y="77" on="0"/>
        <pt x="29" y="149" on="1"/>
        <pt x="29" y="235" on="0"/>
        <pt x="159" y="328" on="0"/>
        <pt x="281" y="328" on="1"/>
        <pt x="338" y="328" on="1"/>
        <pt x="338" y="351" on="1"/>
        <pt x="338" y="399" on="0"/>
        <pt x="295" y="436" on="0"/>
        <pt x="246" y="436" on="1"/>
        <pt x="220" y="436" on="0"/>
        <pt x="146" y="421" on="0"/>
        <pt x="106" y="408" on="1"/>
        <pt x="72" y="508" on="1"/>
        <pt x="121" y="527" on="0"/>
        <pt x="225" y="547" on="0"/>
        <pt x="270" y="547" on="1"/>
        <pt x="330" y="547" on="0"/>
        <pt x="408" y="510" on="0"/>
        <pt x="432" y="479" on="1"/>
        <pt x="460" y="510" on="0"/>
        <pt x="537" y="547" on="0"/>
        <pt x="588" y="547" on="1"/>
        <pt x="696" y="547" on="0"/>
        <pt x="824" y="404" on="0"/>
        <pt x="824" y="276" on="1"/>
        <pt x="824" y="263" on="0"/>
        <pt x="822" y="232" on="0"/>
        <pt x="821" y="221" on="1"/>
        <pt x="492" y="221" on="1"/>
        <pt x="499" y="147" on="0"/>
        <pt x="565" y="94" on="0"/>
        <pt x="615" y="94" on="1"/>
        <pt x="648" y="94" on="0"/>
        <pt x="709" y="117" on="0"/>
        <pt x="743" y="141" on="1"/>
      </contour>
    </TTGlyph>
    <TTGlyph name="ae.sc" xMin="-22" yMin="0" xMax="708" yMax="568">
      <contour>
        <pt x="301" y="460" on="1"/>
        <pt x="218" y="224" on="1"/>
        <pt x="343" y="224" on="1"/>
      </contour>
      <contour>
        <pt x="383" y="0" on="1"/>
        <pt x="362" y="117" on="1"/>
        <pt x="180" y="117" on="1"/>
        <pt x="139" y="0" on="1"/>
        <pt x="-22" y="0" on="1"/>
        <pt x="214" y="568" on="1"/>
        <pt x="676" y="568" on="1"/>
        <pt x="660" y="462" on="1"/>
        <pt x="433" y="462" on="1"/>
        <pt x="458" y="340" on="1"/>
        <pt x="668" y="340" on="1"/>
        <pt x="668" y="236" on="1"/>
        <pt x="479" y="236" on="1"/>
        <pt x="506" y="106" on="1"/>
        <pt x="708" y="106" on="1"/>
        <pt x="708" y="0" on="1"/>
      </contour>
    </TTGlyph>
    <TTGlyph name="aeacute" xMin="29" yMin="-16" xMax="824" yMax="831">
      <component glyphName="acute" x="249" y="0" flags="0x4"/>
      <component glyphName="ae" x="0" y="0" flags="0x204"/>
    </TTGlyph>
    <TTGlyph name="aeacute.sc" xMin="-22" yMin="0" xMax="708" yMax="861">
      <component glyphName="ae.sc" x="0" y="0" flags="0x204"/>
      <component glyphName="acute.sc" x="242" y="0" flags="0x4"/>
    </TTGlyph>
    <TTGlyph name="agrave" xMin="29" yMin="-16" xMax="517" yMax="831">
      <component glyphName="a" x="0" y="0" flags="0x204"/>
      <component glyphName="grave" x="112" y="0" flags="0x4"/>
    </TTGlyph>
    <TTGlyph name="agrave.sc" xMin="-11" yMin="0" xMax="529" yMax="861">
      <component glyphName="grave.sc" x="97" y="0" flags="0x4"/>
      <component glyphName="a.sc" x="0" y="0" flags="0x204"/>
    </TTGlyph>
    <TTGlyph name="alpha" xMin="37" yMin="-16" xMax="572" yMax="547">
      <contour>
        <pt x="37" y="261" on="1"/>
        <pt x="37" y="385" on="0"/>
        <pt x="150" y="547" on="0"/>
        <pt x="252" y="547" on="1"/>
        <pt x="318" y="547" on="0"/>
        <pt x="397" y="476" on="0"/>
        <pt x="411" y="406" on="1"/>
        <pt x="429" y="531" on="1"/>
        <pt x="558" y="531" on="1"/>
        <pt x="491" y="259" on="1"/>
        <pt x="517" y="150" on="1"/>
        <pt x="524" y="125" on="0"/>
        <pt x="550" y="101" on="0"/>
        <pt x="572" y="96" on="1"/>
        <pt x="524" y="-16" on="1"/>
        <pt x="479" y="-11" on="0"/>
        <pt x="419" y="35" on="0"/>
        <pt x="410" y="78" on="1"/>
        <pt x="403" y="116" on="1"/>
        <pt x="378" y="54" on="0"/>
        <pt x="299" y="-16" on="0"/>
        <pt x="238" y="-16" on="1"/>
        <pt x="147" y="-16" on="0"/>
        <pt x="37" y="125" on="0"/>
      </contour>
      <contour>
        <pt x="375" y="271" on="1"/>
        <pt x="357" y="367" on="0"/>
        <pt x="310" y="437" on="0"/>
        <pt x="271" y="437" on="1"/>
        <pt x="234" y="437" on="0"/>
        <pt x="189" y="351" on="0"/>
        <pt x="189" y="261" on="1"/>
        <pt x="189" y="171" on="0"/>
        <pt x="234" y="94" on="0"/>
        <pt x="269" y="94" on="1"/>
        <pt x="301" y="94" on="0"/>
        <pt x="356" y="164" on="0"/>
      </contour>
    </TTGlyph>
    <TTGlyph name="alpha.sc" xMin="-11" yMin="0" xMax="529" yMax="568">
      <component glyphName="a.sc" x="0" y="0" flags="0x204"/>
    </TTGlyph>
    <TTGlyph name="alphatonos" xMin="37" yMin="-16" xMax="572" yMax="843">
      <component glyphName="tonos" x="197" y="0" flags="0x4"/>
      <component glyphName="alpha" x="0" y="0" flags="0x204"/>
    </TTGlyph>
    <TTGlyph name="alphatonos.sc" xMin="-11" yMin="0" xMax="529" yMax="568">
      <component glyphName="a.sc" x="0" y="0" flags="0x204"/>
    </TTGlyph>
    <TTGlyph name="amacron" xMin="29" yMin="-16" xMax="517" yMax="761">
      <component glyphName="a" x="0" y="0" flags="0x204"/>
      <component glyphName="macron" x="89" y="0" flags="0x4"/>
    </TTGlyph>
    <TTGlyph name="amacron.sc" xMin="-11" yMin="0" xMax="529" yMax="791">
      <component glyphName="a.sc" x="0" y="0" flags="0x204"/>
      <component glyphName="macron.sc" x="78" y="0" flags="0x4"/>
    </TTGlyph>
    <TTGlyph name="ampersand" xMin="62" yMin="-16" xMax="733" yMax="709">
      <contour>
        <pt x="102" y="544" on="1"/>
        <pt x="102" y="608" on="0"/>
        <pt x="206" y="709" on="0"/>
        <pt x="311" y="709" on="1"/>
        <pt x="410" y="709" on="0"/>
        <pt x="522" y="617" on="0"/>
        <pt x="522" y="550" on="1"/>
        <pt x="522" y="487" on="0"/>
        <pt x="446" y="399" on="0"/>
        <pt x="388" y="362" on="1"/>
        <pt x="529" y="230" on="1"/>
        <pt x="543" y="261" on="0"/>
        <pt x="568" y="334" on="0"/>
        <pt x="578" y="377" on="1"/>
        <pt x="704" y="340" on="1"/>
        <pt x="685" y="283" on="0"/>
        <pt x="639" y="189" on="0"/>
        <pt x="613" y="152" on="1"/>
        <pt x="733" y="46" on="1"/>
        <pt x="607" y="-16" on="1"/>
        <pt x="526" y="61" on="1"/>
        <pt x="480" y="21" on="0"/>
        <pt x="370" y="-16" on="0"/>
        <pt x="307" y="-16" on="1"/>
        <pt x="198" y="-16" on="0"/>
        <pt x="62" y="90" on="0"/>
        <pt x="62" y="177" on="1"/>
        <pt x="62" y="239" on="0"/>
        <pt x="132" y="330" on="0"/>
        <pt x="198" y="373" on="1"/>
        <pt x="147" y="422" on="0"/>
        <pt x="102" y="496" on="0"/>
      </contour>
      <contour>
        <pt x="379" y="546" on="1"/>
        <pt x="379" y="576" on="0"/>
        <pt x="344" y="611" on="0"/>
        <pt x="313" y="611" on="1"/>
        <pt x="282" y="611" on="0"/>
        <pt x="246" y="574" on="0"/>
        <pt x="246" y="544" on="1"/>
        <pt x="246" y="516" on="0"/>
        <pt x="274" y="471" on="0"/>
        <pt x="306" y="440" on="1"/>
        <pt x="341" y="464" on="0"/>
        <pt x="379" y="513" on="0"/>
      </contour>
      <contour>
        <pt x="450" y="134" on="1"/>
        <pt x="283" y="292" on="1"/>
        <pt x="250" y="269" on="0"/>
        <pt x="219" y="217" on="0"/>
        <pt x="219" y="185" on="1"/>
        <pt x="219" y="142" on="0"/>
        <pt x="281" y="91" on="0"/>
        <pt x="332" y="91" on="1"/>
        <pt x="366" y="91" on="0"/>
        <pt x="425" y="113" on="0"/>
      </contour>
    </TTGlyph>
    <TTGlyph name="aogonek" xMin="29" yMin="-258" xMax="517" yMax="547">
      <component glyphName="a" x="0" y="0" flags="0x204"/>
      <component glyphName="ogonek" x="259" y="-14" flags="0x4"/>
    </TTGlyph>
    <TTGlyph name="aogonek.sc" xMin="-11" yMin="-244" xMax="529" yMax="568">
      <component glyphName="ogonek.sc" x="234" y="0" flags="0x4"/>
      <component glyphName="a.sc" x="0" y="0" flags="0x204"/>
    </TTGlyph>
    <TTGlyph name="approxequal" xMin="42" yMin="134" xMax="515" yMax="512">
      <component glyphName="approxequal.lf" x="23" y="0" flags="0x4"/>
    </TTGlyph>
    <TTGlyph name="approxequal.lf" xMin="19" yMin="134" xMax="492" yMax="512">
      <component glyphName="asciitilde.lf" x="0" y="-100" flags="0x4"/>
      <component glyphName="asciitilde.lf" x="0" y="105" flags="0x4"/>
    </TTGlyph>
    <TTGlyph name="approxequal.osf" xMin="19" yMin="134" xMax="492" yMax="512">
      <component glyphName="approxequal.lf" x="0" y="0" flags="0x204"/>
    </TTGlyph>
    <TTGlyph name="approxequal.tosf" xMin="42" yMin="134" xMax="515" yMax="512">
      <component glyphName="approxequal.lf" x="23" y="0" flags="0x4"/>
    </TTGlyph>
    <TTGlyph name="aring" xMin="29" yMin="-16" xMax="517" yMax="863">
      <component glyphName="a" x="0" y="0" flags="0x204"/>
      <component glyphName="ring" x="104" y="0" flags="0x4"/>
    </TTGlyph>
    <TTGlyph name="aring.sc" xMin="-11" yMin="0" xMax="529" yMax="893">
      <component glyphName="ring.sc" x="93" y="0" flags="0x4"/>
      <component glyphName="a.sc" x="0" y="0" flags="0x204"/>
    </TTGlyph>
    <TTGlyph name="arrowdown" xMin="113" yMin="-49" xMax="787" yMax="652">
      <contour>
        <pt x="381" y="652" on="1"/>
        <pt x="519" y="652" on="1"/>
        <pt x="519" y="149" on="1"/>
        <pt x="533" y="178" on="0"/>
        <pt x="566" y="218" on="0"/>
        <pt x="593" y="242" on="1"/>
        <pt x="703" y="344" on="1"/>
        <pt x="787" y="255" on="1"/>
        <pt x="450" y="-49" on="1"/>
        <pt x="113" y="255" on="1"/>
        <pt x="197" y="344" on="1"/>
        <pt x="307" y="242" on="1"/>
        <pt x="334" y="218" on="0"/>
        <pt x="367" y="178" on="0"/>
        <pt x="381" y="149" on="1"/>
      </contour>
    </TTGlyph>
    <TTGlyph name="arrowdownwhite" xMin="60" yMin="-94" xMax="660" yMax="750">
      <contour>
        <pt x="279" y="750" on="1"/>
        <pt x="441" y="750" on="1"/>
        <pt x="463" y="750" on="0"/>
        <pt x="491" y="722" on="0"/>
        <pt x="491" y="700" on="1"/>
        <pt x="491" y="204" on="1"/>
        <pt x="660" y="204" on="1"/>
        <pt x="360" y="-94" on="1"/>
        <pt x="60" y="204" on="1"/>
        <pt x="229" y="204" on="1"/>
        <pt x="229" y="700" on="1"/>
        <pt x="229" y="722" on="0"/>
        <pt x="257" y="750" on="0"/>
      </contour>
      <contour>
        <pt x="444" y="706" on="1"/>
        <pt x="276" y="706" on="1"/>
        <pt x="276" y="159" on="1"/>
        <pt x="169" y="159" on="1"/>
        <pt x="360" y="-30" on="1"/>
        <pt x="551" y="159" on="1"/>
        <pt x="444" y="159" on="1"/>
      </contour>
    </TTGlyph>
    <TTGlyph name="arrowleft" xMin="82" yMin="-3" xMax="802" yMax="661">
      <contour>
        <pt x="82" y="329" on="1"/>
        <pt x="380" y="661" on="1"/>
        <pt x="479" y="576" on="1"/>
        <pt x="381" y="469" on="1"/>
        <pt x="354" y="440" on="0"/>
        <pt x="315" y="406" on="0"/>
        <pt x="287" y="390" on="1"/>
        <pt x="802" y="390" on="1"/>
        <pt x="802" y="268" on="1"/>
        <pt x="287" y="268" on="1"/>
        <pt x="313" y="252" on="0"/>
        <pt x="356" y="216" on="0"/>
        <pt x="381" y="189" on="1"/>
        <pt x="479" y="82" on="1"/>
        <pt x="380" y="-3" on="1"/>
      </contour>
    </TTGlyph>
    <TTGlyph name="arrowleftwhite" xMin="40" yMin="13" xMax="920" yMax="613">
      <contour>
        <pt x="920" y="387" on="1"/>
        <pt x="920" y="239" on="1"/>
        <pt x="920" y="217" on="0"/>
        <pt x="892" y="189" on="0"/>
        <pt x="870" y="189" on="1"/>
        <pt x="338" y="189" on="1"/>
        <pt x="338" y="13" on="1"/>
        <pt x="40" y="313" on="1"/>
        <pt x="338" y="613" on="1"/>
        <pt x="338" y="437" on="1"/>
        <pt x="870" y="437" on="1"/>
        <pt x="892" y="437" on="0"/>
        <pt x="920" y="409" on="0"/>
      </contour>
      <contour>
        <pt x="876" y="233" on="1"/>
        <pt x="876" y="393" on="1"/>
        <pt x="293" y="393" on="1"/>
        <pt x="293" y="504" on="1"/>
        <pt x="104" y="313" on="1"/>
        <pt x="293" y="122" on="1"/>
        <pt x="293" y="233" on="1"/>
      </contour>
    </TTGlyph>
    <TTGlyph name="arrowright" xMin="98" yMin="-3" xMax="818" yMax="661">
      <contour>
        <pt x="520" y="661" on="1"/>
        <pt x="818" y="329" on="1"/>
        <pt x="520" y="-3" on="1"/>
        <pt x="421" y="82" on="1"/>
        <pt x="519" y="189" on="1"/>
        <pt x="544" y="216" on="0"/>
        <pt x="587" y="252" on="0"/>
        <pt x="613" y="268" on="1"/>
        <pt x="98" y="268" on="1"/>
        <pt x="98" y="390" on="1"/>
        <pt x="613" y="390" on="1"/>
        <pt x="585" y="406" on="0"/>
        <pt x="546" y="440" on="0"/>
        <pt x="519" y="469" on="1"/>
        <pt x="421" y="576" on="1"/>
      </contour>
    </TTGlyph>
    <TTGlyph name="arrowrightwhite" xMin="40" yMin="13" xMax="920" yMax="613">
      <contour>
        <pt x="40" y="239" on="1"/>
        <pt x="40" y="387" on="1"/>
        <pt x="40" y="409" on="0"/>
        <pt x="68" y="437" on="0"/>
        <pt x="90" y="437" on="1"/>
        <pt x="622" y="437" on="1"/>
        <pt x="622" y="613" on="1"/>
        <pt x="920" y="313" on="1"/>
        <pt x="622" y="13" on="1"/>
        <pt x="622" y="189" on="1"/>
        <pt x="90" y="189" on="1"/>
        <pt x="68" y="189" on="0"/>
        <pt x="40" y="217" on="0"/>
      </contour>
      <contour>
        <pt x="84" y="393" on="1"/>
        <pt x="84" y="233" on="1"/>
        <pt x="667" y="233" on="1"/>
        <pt x="667" y="122" on="1"/>
        <pt x="856" y="313" on="1"/>
        <pt x="667" y="504" on="1"/>
        <pt x="667" y="393" on="1"/>
      </contour>
    </TTGlyph>
    <TTGlyph name="arrowup" xMin="113" yMin="0" xMax="787" yMax="701">
      <contour>
        <pt x="519" y="0" on="1"/>
        <pt x="381" y="0" on="1"/>
        <pt x="381" y="503" on="1"/>
        <pt x="367" y="474" on="0"/>
        <pt x="334" y="434" on="0"/>
        <pt x="307" y="410" on="1"/>
        <pt x="197" y="308" on="1"/>
        <pt x="113" y="397" on="1"/>
        <pt x="450" y="701" on="1"/>
        <pt x="787" y="397" on="1"/>
        <pt x="703" y="308" on="1"/>
        <pt x="593" y="410" on="1"/>
        <pt x="566" y="434" on="0"/>
        <pt x="533" y="474" on="0"/>
        <pt x="519" y="503" on="1"/>
      </contour>
    </TTGlyph>
    <TTGlyph name="arrowupdn" xMin="113" yMin="-218" xMax="787" yMax="887">
      <contour>
        <pt x="113" y="583" on="1"/>
        <pt x="450" y="887" on="1"/>
        <pt x="787" y="583" on="1"/>
        <pt x="703" y="495" on="1"/>
        <pt x="593" y="596" on="1"/>
        <pt x="566" y="620" on="0"/>
        <pt x="533" y="660" on="0"/>
        <pt x="519" y="690" on="1"/>
        <pt x="519" y="-21" on="1"/>
        <pt x="533" y="9" on="0"/>
        <pt x="566" y="49" on="0"/>
        <pt x="593" y="73" on="1"/>
        <pt x="703" y="174" on="1"/>
        <pt x="787" y="86" on="1"/>
        <pt x="450" y="-218" on="1"/>
        <pt x="113" y="86" on="1"/>
        <pt x="197" y="174" on="1"/>
        <pt x="307" y="73" on="1"/>
        <pt x="334" y="49" on="0"/>
        <pt x="367" y="9" on="0"/>
        <pt x="381" y="-21" on="1"/>
        <pt x="381" y="690" on="1"/>
        <pt x="367" y="660" on="0"/>
        <pt x="334" y="620" on="0"/>
        <pt x="307" y="596" on="1"/>
        <pt x="197" y="495" on="1"/>
      </contour>
    </TTGlyph>
    <TTGlyph name="arrowupwhite" xMin="60" yMin="-12" xMax="660" yMax="832">
      <contour>
        <pt x="441" y="-12" on="1"/>
        <pt x="279" y="-12" on="1"/>
        <pt x="257" y="-12" on="0"/>
        <pt x="229" y="16" on="0"/>
        <pt x="229" y="38" on="1"/>
        <pt x="229" y="534" on="1"/>
        <pt x="60" y="534" on="1"/>
        <pt x="360" y="832" on="1"/>
        <pt x="660" y="534" on="1"/>
        <pt x="491" y="534" on="1"/>
        <pt x="491" y="38" on="1"/>
        <pt x="491" y="16" on="0"/>
        <pt x="463" y="-12" on="0"/>
      </contour>
      <contour>
        <pt x="276" y="32" on="1"/>
        <pt x="444" y="32" on="1"/>
        <pt x="444" y="579" on="1"/>
        <pt x="551" y="579" on="1"/>
        <pt x="360" y="768" on="1"/>
        <pt x="169" y="579" on="1"/>
        <pt x="276" y="579" on="1"/>
      </contour>
    </TTGlyph>
    <TTGlyph name="asciicircum" xMin="21" yMin="527" xMax="536" yMax="844">
      <contour>
        <pt x="210" y="844" on="1"/>
        <pt x="347" y="844" on="1"/>
        <pt x="536" y="527" on="1"/>
        <pt x="388" y="527" on="1"/>
        <pt x="277" y="730" on="1"/>
        <pt x="170" y="527" on="1"/>
        <pt x="21" y="527" on="1"/>
      </contour>
    </TTGlyph>
    <TTGlyph name="asciitilde" xMin="42" yMin="234" xMax="515" yMax="407">
      <component glyphName="asciitilde.lf" x="23" y="0" flags="0x4"/>
    </TTGlyph>
    <TTGlyph name="asciitilde.lf" xMin="19" yMin="234" xMax="492" yMax="407">
      <contour>
        <pt x="19" y="284" on="1"/>
        <pt x="41" y="328" on="0"/>
        <pt x="114" y="407" on="0"/>
        <pt x="176" y="407" on="1"/>
        <pt x="209" y="407" on="0"/>
        <pt x="256" y="388" on="0"/>
        <pt x="293" y="366" on="0"/>
        <pt x="325" y="347" on="0"/>
        <pt x="343" y="347" on="1"/>
        <pt x="369" y="347" on="0"/>
        <pt x="396" y="377" on="0"/>
        <pt x="408" y="399" on="1"/>
        <pt x="492" y="355" on="1"/>
        <pt x="470" y="311" on="0"/>
        <pt x="397" y="234" on="0"/>
        <pt x="336" y="234" on="1"/>
        <pt x="303" y="234" on="0"/>
        <pt x="255" y="253" on="0"/>
        <pt x="218" y="276" on="0"/>
        <pt x="187" y="295" on="0"/>
        <pt x="170" y="295" on="1"/>
        <pt x="142" y="295" on="0"/>
        <pt x="115" y="262" on="0"/>
        <pt x="103" y="240" on="1"/>
      </contour>
    </TTGlyph>
    <TTGlyph name="asciitilde.osf" xMin="19" yMin="234" xMax="492" yMax="407">
      <component glyphName="asciitilde.lf" x="0" y="0" flags="0x204"/>
    </TTGlyph>
    <TTGlyph name="asciitilde.tosf" xMin="42" yMin="234" xMax="515" yMax="407">
      <component glyphName="asciitilde.lf" x="23" y="0" flags="0x4"/>
    </TTGlyph>
    <TTGlyph name="asterisk" xMin="9" yMin="333" xMax="439" yMax="742">
      <contour>
        <pt x="292" y="333" on="1"/>
        <pt x="224" y="462" on="1"/>
        <pt x="157" y="333" on="1"/>
        <pt x="51" y="409" on="1"/>
        <pt x="152" y="513" on="1"/>
        <pt x="9" y="538" on="1"/>
        <pt x="49" y="659" on="1"/>
        <pt x="179" y="596" on="1"/>
        <pt x="159" y="742" on="1"/>
        <pt x="289" y="742" on="1"/>
        <pt x="269" y="595" on="1"/>
        <pt x="398" y="660" on="1"/>
        <pt x="439" y="539" on="1"/>
        <pt x="296" y="514" on="1"/>
        <pt x="397" y="410" on="1"/>
      </contour>
    </TTGlyph>
    <TTGlyph name="at" xMin="51" yMin="-221" xMax="969" yMax="709">
      <contour>
        <pt x="526" y="-221" on="1"/>
        <pt x="419" y="-221" on="0"/>
        <pt x="242" y="-156" on="0"/>
        <pt x="119" y="-36" on="0"/>
        <pt x="51" y="136" on="0"/>
        <pt x="51" y="242" on="1"/>
        <pt x="51" y="343" on="0"/>
        <pt x="122" y="515" on="0"/>
        <pt x="248" y="639" on="0"/>
        <pt x="423" y="709" on="0"/>
        <pt x="527" y="709" on="1"/>
        <pt x="633" y="709" on="0"/>
        <pt x="798" y="643" on="0"/>
        <pt x="910" y="534" on="0"/>
        <pt x="969" y="391" on="0"/>
        <pt x="969" y="315" on="1"/>
        <pt x="969" y="181" on="0"/>
        <pt x="853" y="5" on="0"/>
        <pt x="754" y="5" on="1"/>
        <pt x="694" y="5" on="0"/>
        <pt x="629" y="71" on="0"/>
        <pt x="621" y="107" on="1"/>
        <pt x="603" y="66" on="0"/>
        <pt x="532" y="8" on="0"/>
        <pt x="478" y="8" on="1"/>
        <pt x="385" y="8" on="0"/>
        <pt x="296" y="136" on="0"/>
        <pt x="296" y="233" on="1"/>
        <pt x="296" y="356" on="0"/>
        <pt x="418" y="501" on="0"/>
        <pt x="527" y="501" on="1"/>
        <pt x="568" y="501" on="0"/>
        <pt x="657" y="479" on="0"/>
        <pt x="698" y="457" on="1"/>
        <pt x="698" y="209" on="1"/>
        <pt x="698" y="146" on="0"/>
        <pt x="721" y="100" on="0"/>
        <pt x="748" y="100" on="1"/>
        <pt x="785" y="100" on="0"/>
        <pt x="833" y="193" on="0"/>
        <pt x="833" y="313" on="1"/>
        <pt x="833" y="444" on="0"/>
        <pt x="682" y="599" on="0"/>
        <pt x="526" y="599" on="1"/>
        <pt x="365" y="599" on="0"/>
        <pt x="188" y="399" on="0"/>
        <pt x="188" y="242" on="1"/>
        <pt x="188" y="82" on="0"/>
        <pt x="362" y="-109" on="0"/>
        <pt x="527" y="-109" on="1"/>
        <pt x="579" y="-109" on="0"/>
        <pt x="684" y="-89" on="0"/>
        <pt x="723" y="-75" on="1"/>
        <pt x="759" y="-179" on="1"/>
        <pt x="712" y="-197" on="0"/>
        <pt x="589" y="-221" on="0"/>
      </contour>
      <contour>
        <pt x="497" y="104" on="1"/>
        <pt x="526" y="104" on="0"/>
        <pt x="561" y="137" on="0"/>
        <pt x="570" y="156" on="1"/>
        <pt x="570" y="396" on="1"/>
        <pt x="559" y="400" on="0"/>
        <pt x="536" y="406" on="0"/>
        <pt x="522" y="406" on="1"/>
        <pt x="481" y="406" on="0"/>
        <pt x="432" y="328" on="0"/>
        <pt x="432" y="232" on="1"/>
        <pt x="432" y="163" on="0"/>
        <pt x="463" y="104" on="0"/>
      </contour>
    </TTGlyph>
    <TTGlyph name="atilde" xMin="29" yMin="-16" xMax="517" yMax="790">
      <component glyphName="a" x="0" y="0" flags="0x204"/>
      <component glyphName="tilde" x="54" y="0" flags="0x4"/>
    </TTGlyph>
    <TTGlyph name="atilde.sc" xMin="-11" yMin="0" xMax="529" yMax="820">
      <component glyphName="tilde.sc" x="43" y="0" flags="0x4"/>
      <component glyphName="a.sc" x="0" y="0" flags="0x204"/>
    </TTGlyph>
    <TTGlyph name="b" xMin="66" yMin="-16" xMax="557" yMax="758">
      <contour>
        <pt x="346" y="-16" on="1"/>
        <pt x="302" y="-16" on="0"/>
        <pt x="232" y="21" on="0"/>
        <pt x="207" y="52" on="1"/>
        <pt x="199" y="0" on="1"/>
        <pt x="66" y="0" on="1"/>
        <pt x="66" y="742" on="1"/>
        <pt x="216" y="758" on="1"/>
        <pt x="216" y="475" on="1"/>
        <pt x="240" y="508" on="0"/>
        <pt x="315" y="547" on="0"/>
        <pt x="357" y="547" on="1"/>
        <pt x="454" y="547" on="0"/>
        <pt x="557" y="398" on="0"/>
        <pt x="557" y="265" on="1"/>
        <pt x="557" y="143" on="0"/>
        <pt x="445" y="-16" on="0"/>
      </contour>
      <contour>
        <pt x="304" y="94" on="1"/>
        <pt x="347" y="94" on="0"/>
        <pt x="401" y="171" on="0"/>
        <pt x="401" y="265" on="1"/>
        <pt x="401" y="366" on="0"/>
        <pt x="350" y="436" on="0"/>
        <pt x="311" y="436" on="1"/>
        <pt x="281" y="436" on="0"/>
        <pt x="234" y="401" on="0"/>
        <pt x="216" y="372" on="1"/>
        <pt x="216" y="148" on="1"/>
        <pt x="232" y="123" on="0"/>
        <pt x="277" y="94" on="0"/>
      </contour>
    </TTGlyph>
    <TTGlyph name="b.sc" xMin="69" yMin="0" xMax="531" yMax="568">
      <contour>
        <pt x="69" y="568" on="1"/>
        <pt x="243" y="568" on="1"/>
        <pt x="364" y="568" on="0"/>
        <pt x="505" y="503" on="0"/>
        <pt x="505" y="422" on="1"/>
        <pt x="505" y="368" on="0"/>
        <pt x="436" y="311" on="0"/>
        <pt x="396" y="301" on="1"/>
        <pt x="445" y="292" on="0"/>
        <pt x="531" y="234" on="0"/>
        <pt x="531" y="167" on="1"/>
        <pt x="531" y="68" on="0"/>
        <pt x="380" y="0" on="0"/>
        <pt x="267" y="0" on="1"/>
        <pt x="69" y="0" on="1"/>
      </contour>
      <contour>
        <pt x="218" y="464" on="1"/>
        <pt x="218" y="345" on="1"/>
        <pt x="266" y="345" on="1"/>
        <pt x="309" y="345" on="0"/>
        <pt x="354" y="374" on="0"/>
        <pt x="354" y="407" on="1"/>
        <pt x="354" y="438" on="0"/>
        <pt x="306" y="464" on="0"/>
        <pt x="257" y="464" on="1"/>
      </contour>
      <contour>
        <pt x="218" y="107" on="1"/>
        <pt x="268" y="107" on="1"/>
        <pt x="316" y="107" on="0"/>
        <pt x="376" y="133" on="0"/>
        <pt x="376" y="176" on="1"/>
        <pt x="376" y="215" on="0"/>
        <pt x="322" y="248" on="0"/>
        <pt x="276" y="248" on="1"/>
        <pt x="218" y="248" on="1"/>
      </contour>
    </TTGlyph>
    <TTGlyph name="backslash" xMin="77" yMin="-111" xMax="443" yMax="815">
      <contour>
        <pt x="77" y="785" on="1"/>
        <pt x="208" y="815" on="1"/>
        <pt x="443" y="-81" on="1"/>
        <pt x="311" y="-111" on="1"/>
      </contour>
    </TTGlyph>
    <TTGlyph name="bar" xMin="120" yMin="-105" xMax="259" yMax="810">
      <contour>
        <pt x="120" y="810" on="1"/>
        <pt x="259" y="810" on="1"/>
        <pt x="259" y="-105" on="1"/>
        <pt x="120" y="-105" on="1"/>
      </contour>
    </TTGlyph>
    <TTGlyph name="beta" xMin="66" yMin="-221" xMax="578" yMax="758">
      <contour>
        <pt x="314" y="99" on="1"/>
        <pt x="358" y="99" on="0"/>
        <pt x="427" y="155" on="0"/>
        <pt x="427" y="218" on="1"/>
        <pt x="427" y="289" on="0"/>
        <pt x="351" y="347" on="0"/>
        <pt x="294" y="347" on="1"/>
        <pt x="253" y="347" on="1"/>
        <pt x="263" y="449" on="1"/>
        <pt x="290" y="449" on="1"/>
        <pt x="329" y="449" on="0"/>
        <pt x="378" y="503" on="0"/>
        <pt x="378" y="557" on="1"/>
        <pt x="378" y="606" on="0"/>
        <pt x="332" y="651" on="0"/>
        <pt x="295" y="651" on="1"/>
        <pt x="255" y="651" on="0"/>
        <pt x="211" y="600" on="0"/>
        <pt x="211" y="546" on="1"/>
        <pt x="211" y="125" on="1"/>
        <pt x="231" y="112" on="0"/>
        <pt x="280" y="99" on="0"/>
      </contour>
      <contour>
        <pt x="211" y="-200" on="1"/>
        <pt x="66" y="-221" on="1"/>
        <pt x="66" y="545" on="1"/>
        <pt x="66" y="646" on="0"/>
        <pt x="195" y="758" on="0"/>
        <pt x="296" y="758" on="1"/>
        <pt x="398" y="758" on="0"/>
        <pt x="522" y="654" on="0"/>
        <pt x="522" y="575" on="1"/>
        <pt x="522" y="505" on="0"/>
        <pt x="448" y="419" on="0"/>
        <pt x="382" y="405" on="1"/>
        <pt x="414" y="402" on="0"/>
        <pt x="484" y="382" on="0"/>
        <pt x="541" y="338" on="0"/>
        <pt x="578" y="264" on="0"/>
        <pt x="578" y="207" on="1"/>
        <pt x="578" y="107" on="0"/>
        <pt x="449" y="-16" on="0"/>
        <pt x="348" y="-16" on="1"/>
        <pt x="309" y="-16" on="0"/>
        <pt x="241" y="8" on="0"/>
        <pt x="211" y="29" on="1"/>
      </contour>
    </TTGlyph>
    <TTGlyph name="beta.sc" xMin="69" yMin="0" xMax="531" yMax="568">
      <component glyphName="b.sc" x="0" y="0" flags="0x204"/>
    </TTGlyph>
    <TTGlyph name="beta.ss10" xMin="36" yMin="-16" xMax="537" yMax="758">
      <contour>
        <pt x="36" y="344" on="1"/>
        <pt x="36" y="442" on="0"/>
        <pt x="81" y="596" on="0"/>
        <pt x="158" y="702" on="0"/>
        <pt x="262" y="758" on="0"/>
        <pt x="321" y="758" on="1"/>
        <pt x="414" y="758" on="0"/>
        <pt x="492" y="669" on="0"/>
        <pt x="492" y="617" on="1"/>
        <pt x="492" y="554" on="0"/>
        <pt x="408" y="453" on="0"/>
        <pt x="315" y="423" on="1"/>
        <pt x="334" y="428" on="0"/>
        <pt x="359" y="432" on="0"/>
        <pt x="374" y="432" on="1"/>
        <pt x="455" y="432" on="0"/>
        <pt x="537" y="319" on="0"/>
        <pt x="537" y="230" on="1"/>
        <pt x="537" y="126" on="0"/>
        <pt x="401" y="-16" on="0"/>
        <pt x="285" y="-16" on="1"/>
        <pt x="152" y="-16" on="0"/>
        <pt x="36" y="178" on="0"/>
      </contour>
      <contour>
        <pt x="311" y="652" on="1"/>
        <pt x="272" y="652" on="0"/>
        <pt x="201" y="557" on="0"/>
        <pt x="191" y="432" on="1"/>
        <pt x="220" y="443" on="1"/>
        <pt x="291" y="471" on="0"/>
        <pt x="356" y="550" on="0"/>
        <pt x="356" y="603" on="1"/>
        <pt x="356" y="628" on="0"/>
        <pt x="330" y="652" on="0"/>
      </contour>
      <contour>
        <pt x="285" y="94" on="1"/>
        <pt x="330" y="94" on="0"/>
        <pt x="380" y="162" on="0"/>
        <pt x="380" y="225" on="1"/>
        <pt x="380" y="289" on="0"/>
        <pt x="337" y="361" on="0"/>
        <pt x="287" y="361" on="1"/>
        <pt x="271" y="361" on="0"/>
        <pt x="234" y="351" on="0"/>
        <pt x="215" y="343" on="1"/>
        <pt x="188" y="331" on="1"/>
        <pt x="189" y="203" on="0"/>
        <pt x="235" y="94" on="0"/>
      </contour>
    </TTGlyph>
    <TTGlyph name="braceleft" xMin="11" yMin="-139" xMax="295" yMax="839">
      <contour>
        <pt x="77" y="677" on="1"/>
        <pt x="77" y="758" on="0"/>
        <pt x="165" y="839" on="0"/>
        <pt x="295" y="839" on="1"/>
        <pt x="295" y="734" on="1"/>
        <pt x="250" y="734" on="0"/>
        <pt x="217" y="706" on="0"/>
        <pt x="217" y="673" on="1"/>
        <pt x="217" y="481" on="1"/>
        <pt x="217" y="416" on="0"/>
        <pt x="164" y="362" on="0"/>
        <pt x="117" y="349" on="1"/>
        <pt x="163" y="339" on="0"/>
        <pt x="218" y="283" on="0"/>
        <pt x="218" y="219" on="1"/>
        <pt x="218" y="27" on="1"/>
        <pt x="218" y="-6" on="0"/>
        <pt x="250" y="-34" on="0"/>
        <pt x="295" y="-34" on="1"/>
        <pt x="295" y="-139" on="1"/>
        <pt x="165" y="-139" on="0"/>
        <pt x="77" y="-57" on="0"/>
        <pt x="77" y="23" on="1"/>
        <pt x="77" y="208" on="1"/>
        <pt x="77" y="251" on="0"/>
        <pt x="50" y="288" on="0"/>
        <pt x="11" y="288" on="1"/>
        <pt x="11" y="411" on="1"/>
        <pt x="50" y="411" on="0"/>
        <pt x="77" y="449" on="0"/>
        <pt x="77" y="492" on="1"/>
      </contour>
    </TTGlyph>
    <TTGlyph name="braceleft.case" xMin="11" yMin="-149" xMax="295" yMax="829">
      <component glyphName="braceleft" x="0" y="-10" flags="0x4"/>
    </TTGlyph>
    <TTGlyph name="braceright" xMin="29" yMin="-139" xMax="312" yMax="839">
      <contour>
        <pt x="29" y="734" on="1"/>
        <pt x="29" y="839" on="1"/>
        <pt x="159" y="839" on="0"/>
        <pt x="247" y="758" on="0"/>
        <pt x="247" y="677" on="1"/>
        <pt x="247" y="492" on="1"/>
        <pt x="247" y="449" on="0"/>
        <pt x="273" y="411" on="0"/>
        <pt x="312" y="411" on="1"/>
        <pt x="312" y="288" on="1"/>
        <pt x="273" y="288" on="0"/>
        <pt x="247" y="251" on="0"/>
        <pt x="247" y="208" on="1"/>
        <pt x="247" y="23" on="1"/>
        <pt x="247" y="-57" on="0"/>
        <pt x="159" y="-139" on="0"/>
        <pt x="29" y="-139" on="1"/>
        <pt x="29" y="-34" on="1"/>
        <pt x="73" y="-34" on="0"/>
        <pt x="106" y="-6" on="0"/>
        <pt x="106" y="27" on="1"/>
        <pt x="106" y="219" on="1"/>
        <pt x="106" y="283" on="0"/>
        <pt x="160" y="339" on="0"/>
        <pt x="207" y="349" on="1"/>
        <pt x="159" y="362" on="0"/>
        <pt x="107" y="416" on="0"/>
        <pt x="107" y="481" on="1"/>
        <pt x="107" y="673" on="1"/>
        <pt x="107" y="706" on="0"/>
        <pt x="74" y="734" on="0"/>
      </contour>
    </TTGlyph>
    <TTGlyph name="braceright.case" xMin="29" yMin="-149" xMax="312" yMax="829">
      <component glyphName="braceright" x="0" y="-10" flags="0x4"/>
    </TTGlyph>
    <TTGlyph name="bracketleft" xMin="38" yMin="-122" xMax="296" yMax="822">
      <contour>
        <pt x="38" y="822" on="1"/>
        <pt x="296" y="822" on="1"/>
        <pt x="296" y="709" on="1"/>
        <pt x="180" y="709" on="1"/>
        <pt x="180" y="-10" on="1"/>
        <pt x="296" y="-10" on="1"/>
        <pt x="296" y="-122" on="1"/>
        <pt x="38" y="-122" on="1"/>
      </contour>
    </TTGlyph>
    <TTGlyph name="bracketleft.case" xMin="38" yMin="-132" xMax="296" yMax="812">
      <component glyphName="bracketleft" x="0" y="-10" flags="0x4"/>
    </TTGlyph>
    <TTGlyph name="bracketright" xMin="28" yMin="-122" xMax="286" yMax="822">
      <contour>
        <pt x="28" y="822" on="1"/>
        <pt x="286" y="822" on="1"/>
        <pt x="286" y="-122" on="1"/>
        <pt x="28" y="-122" on="1"/>
        <pt x="28" y="-9" on="1"/>
        <pt x="144" y="-9" on="1"/>
        <pt x="144" y="709" on="1"/>
        <pt x="28" y="709" on="1"/>
      </contour>
    </TTGlyph>
    <TTGlyph name="bracketright.case" xMin="28" yMin="-132" xMax="286" yMax="812">
      <component glyphName="bracketright" x="0" y="-10" flags="0x4"/>
    </TTGlyph>
    <TTGlyph name="breve" xMin="30" yMin="634" xMax="370" yMax="816">
      <contour>
        <pt x="370" y="801" on="1"/>
        <pt x="364" y="731" on="0"/>
        <pt x="275" y="634" on="0"/>
        <pt x="199" y="634" on="1"/>
        <pt x="123" y="634" on="0"/>
        <pt x="36" y="731" on="0"/>
        <pt x="30" y="801" on="1"/>
        <pt x="114" y="816" on="1"/>
        <pt x="123" y="780" on="0"/>
        <pt x="165" y="739" on="0"/>
        <pt x="199" y="739" on="1"/>
        <pt x="233" y="739" on="0"/>
        <pt x="276" y="780" on="0"/>
        <pt x="286" y="816" on="1"/>
      </contour>
    </TTGlyph>
    <TTGlyph name="breve.cy" xMin="30" yMin="634" xMax="370" yMax="798">
      <contour>
        <pt x="370" y="783" on="1"/>
        <pt x="364" y="717" on="0"/>
        <pt x="275" y="634" on="0"/>
        <pt x="199" y="634" on="1"/>
        <pt x="123" y="634" on="0"/>
        <pt x="36" y="717" on="0"/>
        <pt x="30" y="783" on="1"/>
        <pt x="114" y="798" on="1"/>
        <pt x="123" y="767" on="0"/>
        <pt x="165" y="739" on="0"/>
        <pt x="199" y="739" on="1"/>
        <pt x="233" y="739" on="0"/>
        <pt x="276" y="767" on="0"/>
        <pt x="286" y="798" on="1"/>
      </contour>
    </TTGlyph>
    <TTGlyph name="breve.cy.case" xMin="30" yMin="760" xMax="370" yMax="924">
      <component glyphName="breve.cy" x="0" y="126" flags="0x4"/>
    </TTGlyph>
    <TTGlyph name="breve.cy.sc" xMin="30" yMin="664" xMax="370" yMax="828">
      <component glyphName="breve.cy" x="0" y="30" flags="0x4"/>
    </TTGlyph>
    <TTGlyph name="breve.case" xMin="30" yMin="751" xMax="370" yMax="924">
      <contour>
        <pt x="370" y="909" on="1"/>
        <pt x="364" y="846" on="0"/>
        <pt x="275" y="751" on="0"/>
        <pt x="199" y="751" on="1"/>
        <pt x="123" y="751" on="0"/>
        <pt x="36" y="846" on="0"/>
        <pt x="30" y="909" on="1"/>
        <pt x="114" y="924" on="1"/>
        <pt x="123" y="896" on="0"/>
        <pt x="165" y="856" on="0"/>
        <pt x="199" y="856" on="1"/>
        <pt x="233" y="856" on="0"/>
        <pt x="276" y="896" on="0"/>
        <pt x="286" y="924" on="1"/>
      </contour>
    </TTGlyph>
    <TTGlyph name="breve.sc" xMin="30" yMin="664" xMax="370" yMax="846">
      <component glyphName="breve" x="0" y="30" flags="0x4"/>
    </TTGlyph>
    <TTGlyph name="brevecombcomb" xMin="39" yMin="625" xMax="379" yMax="798">
      <component glyphName="uni0306" x="0" y="0" flags="0x204"/>
    </TTGlyph>
    <TTGlyph name="brokenbar" xMin="120" yMin="-105" xMax="259" yMax="810">
      <contour>
        <pt x="120" y="810" on="1"/>
        <pt x="259" y="810" on="1"/>
        <pt x="259" y="443" on="1"/>
        <pt x="120" y="443" on="1"/>
      </contour>
      <contour>
        <pt x="120" y="262" on="1"/>
        <pt x="259" y="262" on="1"/>
        <pt x="259" y="-105" on="1"/>
        <pt x="120" y="-105" on="1"/>
      </contour>
    </TTGlyph>
    <TTGlyph name="bullet" xMin="37" yMin="207" xMax="307" yMax="476">
      <contour>
        <pt x="37" y="342" on="1"/>
        <pt x="37" y="399" on="0"/>
        <pt x="115" y="476" on="0"/>
        <pt x="172" y="476" on="1"/>
        <pt x="229" y="476" on="0"/>
        <pt x="307" y="398" on="0"/>
        <pt x="307" y="341" on="1"/>
        <pt x="307" y="284" on="0"/>
        <pt x="229" y="207" on="0"/>
        <pt x="172" y="207" on="1"/>
        <pt x="115" y="207" on="0"/>
        <pt x="37" y="285" on="0"/>
      </contour>
    </TTGlyph>
    <TTGlyph name="bulletoperator" xMin="32" yMin="221" xMax="208" yMax="396">
      <component glyphName="periodcentered" x="0" y="0" flags="0x204"/>
    </TTGlyph>
    <TTGlyph name="c" xMin="35" yMin="-16" xMax="470" yMax="547">
      <contour>
        <pt x="35" y="261" on="1"/>
        <pt x="35" y="387" on="0"/>
        <pt x="174" y="547" on="0"/>
        <pt x="291" y="547" on="1"/>
        <pt x="345" y="547" on="0"/>
        <pt x="433" y="515" on="0"/>
        <pt x="470" y="483" on="1"/>
        <pt x="405" y="392" on="1"/>
        <pt x="380" y="412" on="0"/>
        <pt x="331" y="431" on="0"/>
        <pt x="303" y="431" on="1"/>
        <pt x="252" y="431" on="0"/>
        <pt x="193" y="352" on="0"/>
        <pt x="193" y="262" on="1"/>
        <pt x="193" y="172" on="0"/>
        <pt x="253" y="103" on="0"/>
        <pt x="302" y="103" on="1"/>
        <pt x="330" y="103" on="0"/>
        <pt x="376" y="122" on="0"/>
        <pt x="402" y="142" on="1"/>
        <pt x="470" y="46" on="1"/>
        <pt x="434" y="17" on="0"/>
        <pt x="348" y="-16" on="0"/>
        <pt x="294" y="-16" on="1"/>
        <pt x="175" y="-16" on="0"/>
        <pt x="35" y="136" on="0"/>
      </contour>
    </TTGlyph>
    <TTGlyph name="c.sc" xMin="36" yMin="-15" xMax="504" yMax="581">
      <contour>
        <pt x="36" y="286" on="1"/>
        <pt x="36" y="426" on="0"/>
        <pt x="192" y="581" on="0"/>
        <pt x="309" y="581" on="1"/>
        <pt x="369" y="581" on="0"/>
        <pt x="459" y="547" on="0"/>
        <pt x="496" y="516" on="1"/>
        <pt x="424" y="431" on="1"/>
        <pt x="401" y="450" on="0"/>
        <pt x="348" y="472" on="0"/>
        <pt x="317" y="472" on="1"/>
        <pt x="262" y="472" on="0"/>
        <pt x="191" y="381" on="0"/>
        <pt x="191" y="286" on="1"/>
        <pt x="191" y="190" on="0"/>
        <pt x="263" y="99" on="0"/>
        <pt x="321" y="99" on="1"/>
        <pt x="355" y="99" on="0"/>
        <pt x="410" y="127" on="0"/>
        <pt x="436" y="146" on="1"/>
        <pt x="504" y="61" on="1"/>
        <pt x="473" y="30" on="0"/>
        <pt x="375" y="-15" on="0"/>
        <pt x="311" y="-15" on="1"/>
        <pt x="189" y="-15" on="0"/>
        <pt x="36" y="140" on="0"/>
      </contour>
    </TTGlyph>
    <TTGlyph name="cacute" xMin="35" yMin="-16" xMax="470" yMax="831">
      <component glyphName="acute" x="113" y="0" flags="0x4"/>
      <component glyphName="c" x="0" y="0" flags="0x204"/>
    </TTGlyph>
    <TTGlyph name="cacute.loclPLK" xMin="35" yMin="-16" xMax="470" yMax="805">
      <component glyphName="c" x="0" y="0" flags="0x204"/>
      <component glyphName="acute.loclPLK" x="123" y="0" flags="0x4"/>
    </TTGlyph>
    <TTGlyph name="cacute.sc" xMin="36" yMin="-15" xMax="504" yMax="861">
      <component glyphName="acute.sc" x="143" y="0" flags="0x4"/>
      <component glyphName="c.sc" x="0" y="0" flags="0x204"/>
    </TTGlyph>
    <TTGlyph name="cacute.sc.loclPLK" xMin="36" yMin="-15" xMax="504" yMax="850">
      <component glyphName="acute.sc.loclPLK" x="148" y="0" flags="0x4"/>
      <component glyphName="c.sc" x="0" y="0" flags="0x204"/>
    </TTGlyph>
    <TTGlyph name="capslock" xMin="60" yMin="-12" xMax="660" yMax="832">
      <contour>
        <pt x="491" y="255" on="1"/>
        <pt x="229" y="255" on="1"/>
        <pt x="229" y="534" on="1"/>
        <pt x="60" y="534" on="1"/>
        <pt x="360" y="832" on="1"/>
        <pt x="660" y="534" on="1"/>
        <pt x="491" y="534" on="1"/>
      </contour>
      <contour>
        <pt x="276" y="297" on="1"/>
        <pt x="444" y="297" on="1"/>
        <pt x="444" y="579" on="1"/>
        <pt x="551" y="579" on="1"/>
        <pt x="360" y="768" on="1"/>
        <pt x="169" y="579" on="1"/>
        <pt x="276" y="579" on="1"/>
      </contour>
      <contour>
        <pt x="229" y="155" on="1"/>
        <pt x="491" y="155" on="1"/>
        <pt x="491" y="38" on="1"/>
        <pt x="491" y="16" on="0"/>
        <pt x="463" y="-12" on="0"/>
        <pt x="441" y="-12" on="1"/>
        <pt x="279" y="-12" on="1"/>
        <pt x="257" y="-12" on="0"/>
        <pt x="229" y="16" on="0"/>
        <pt x="229" y="38" on="1"/>
      </contour>
      <contour>
        <pt x="444" y="113" on="1"/>
        <pt x="276" y="113" on="1"/>
        <pt x="276" y="32" on="1"/>
        <pt x="444" y="32" on="1"/>
      </contour>
    </TTGlyph>
    <TTGlyph name="caron" xMin="30" yMin="613" xMax="404" yMax="810">
      <contour>
        <pt x="217" y="719" on="1"/>
        <pt x="349" y="810" on="1"/>
        <pt x="404" y="747" on="1"/>
        <pt x="263" y="613" on="1"/>
        <pt x="171" y="613" on="1"/>
        <pt x="30" y="747" on="1"/>
        <pt x="85" y="810" on="1"/>
      </contour>
    </TTGlyph>
    <TTGlyph name="caron.alt" xMin="74" yMin="481" xMax="199" yMax="706">
      <contour>
        <pt x="74" y="489" on="1"/>
        <pt x="84" y="706" on="1"/>
        <pt x="199" y="692" on="1"/>
        <pt x="152" y="481" on="1"/>
      </contour>
    </TTGlyph>
    <TTGlyph name="caron.case" xMin="30" yMin="750" xMax="404" yMax="940">
      <contour>
        <pt x="217" y="856" on="1"/>
        <pt x="349" y="940" on="1"/>
        <pt x="404" y="877" on="1"/>
        <pt x="263" y="750" on="1"/>
        <pt x="171" y="750" on="1"/>
        <pt x="30" y="877" on="1"/>
        <pt x="85" y="940" on="1"/>
      </contour>
    </TTGlyph>
    <TTGlyph name="caron.sc" xMin="30" yMin="643" xMax="404" yMax="840">
      <component glyphName="caron" x="0" y="30" flags="0x4"/>
    </TTGlyph>
    <TTGlyph name="caroncombcomb" xMin="39" yMin="624" xMax="413" yMax="814">
      <component glyphName="uni030C" x="0" y="0" flags="0x204"/>
    </TTGlyph>
    <TTGlyph name="ccaron" xMin="35" yMin="-16" xMax="478" yMax="810">
      <component glyphName="caron" x="74" y="0" flags="0x4"/>
      <component glyphName="c" x="0" y="0" flags="0x204"/>
    </TTGlyph>
    <TTGlyph name="ccaron.sc" xMin="36" yMin="-15" xMax="504" yMax="840">
      <component glyphName="caron.sc" x="99" y="0" flags="0x4"/>
      <component glyphName="c.sc" x="0" y="0" flags="0x204"/>
    </TTGlyph>
    <TTGlyph name="ccedilla" xMin="35" yMin="-260" xMax="470" yMax="547">
      <component glyphName="c" x="0" y="0" flags="0x204"/>
      <component glyphName="cedilla" x="138" y="0" flags="0x4"/>
    </TTGlyph>
    <TTGlyph name="ccedilla.sc" xMin="36" yMin="-260" xMax="504" yMax="581">
      <component glyphName="cedilla.sc" x="150" y="0" flags="0x4"/>
      <component glyphName="c.sc" x="0" y="0" flags="0x204"/>
    </TTGlyph>
    <TTGlyph name="ccircumflex" xMin="35" yMin="-16" xMax="478" yMax="818">
      <component glyphName="circumflex" x="74" y="0" flags="0x4"/>
      <component glyphName="c" x="0" y="0" flags="0x204"/>
    </TTGlyph>
    <TTGlyph name="ccircumflex.sc" xMin="36" yMin="-15" xMax="504" yMax="848">
      <component glyphName="c.sc" x="0" y="0" flags="0x204"/>
      <component glyphName="circumflex.sc" x="99" y="0" flags="0x4"/>
    </TTGlyph>
    <TTGlyph name="cdotaccent" xMin="35" yMin="-16" xMax="470" yMax="807">
      <component glyphName="c" x="0" y="0" flags="0x204"/>
      <component glyphName="dotaccent" x="170" y="0" flags="0x4"/>
    </TTGlyph>
    <TTGlyph name="cdotaccent.sc" xMin="36" yMin="-15" xMax="504" yMax="837">
      <component glyphName="dotaccent.sc" x="196" y="0" flags="0x4"/>
      <component glyphName="c.sc" x="0" y="0" flags="0x204"/>
    </TTGlyph>
    <TTGlyph name="cedilla" xMin="30" yMin="-260" xMax="285" yMax="16">
      <contour>
        <pt x="100" y="16" on="1"/>
        <pt x="183" y="16" on="1"/>
        <pt x="183" y="-49" on="1"/>
        <pt x="236" y="-55" on="0"/>
        <pt x="285" y="-107" on="0"/>
        <pt x="285" y="-146" on="1"/>
        <pt x="285" y="-197" on="0"/>
        <pt x="206" y="-260" on="0"/>
        <pt x="140" y="-260" on="1"/>
        <pt x="106" y="-260" on="0"/>
        <pt x="48" y="-243" on="0"/>
        <pt x="30" y="-230" on="1"/>
        <pt x="65" y="-160" on="1"/>
        <pt x="79" y="-167" on="0"/>
        <pt x="109" y="-177" on="0"/>
        <pt x="128" y="-177" on="1"/>
        <pt x="149" y="-177" on="0"/>
        <pt x="176" y="-162" on="0"/>
        <pt x="176" y="-145" on="1"/>
        <pt x="176" y="-127" on="0"/>
        <pt x="132" y="-110" on="0"/>
        <pt x="84" y="-110" on="1"/>
      </contour>
    </TTGlyph>
    <TTGlyph name="cedilla.case" xMin="30" yMin="-260" xMax="285" yMax="16">
      <component glyphName="cedilla" x="0" y="0" flags="0x204"/>
    </TTGlyph>
    <TTGlyph name="cedilla.sc" xMin="30" yMin="-260" xMax="285" yMax="16">
      <component glyphName="cedilla" x="0" y="0" flags="0x204"/>
    </TTGlyph>
    <TTGlyph name="cedillaTcedilla" xMin="30" yMin="-260" xMax="285" yMax="16">
      <contour>
        <pt x="100" y="16" on="1"/>
        <pt x="182" y="16" on="1"/>
        <pt x="182" y="-49" on="1"/>
        <pt x="235" y="-55" on="0"/>
        <pt x="285" y="-107" on="0"/>
        <pt x="285" y="-146" on="1"/>
        <pt x="285" y="-197" on="0"/>
        <pt x="204" y="-260" on="0"/>
        <pt x="138" y="-260" on="1"/>
        <pt x="104" y="-260" on="0"/>
        <pt x="48" y="-242" on="0"/>
        <pt x="30" y="-230" on="1"/>
        <pt x="65" y="-160" on="1"/>
        <pt x="79" y="-167" on="0"/>
        <pt x="109" y="-177" on="0"/>
        <pt x="125" y="-177" on="1"/>
        <pt x="147" y="-177" on="0"/>
        <pt x="176" y="-162" on="0"/>
        <pt x="176" y="-145" on="1"/>
        <pt x="176" y="-127" on="0"/>
        <pt x="132" y="-110" on="0"/>
        <pt x="84" y="-110" on="1"/>
      </contour>
    </TTGlyph>
    <TTGlyph name="cent" xMin="60" yMin="-160" xMax="495" yMax="691">
      <component glyphName="cent.lf" x="25" y="0" flags="0x4"/>
    </TTGlyph>
    <TTGlyph name="cent.lf" xMin="35" yMin="-160" xMax="470" yMax="691">
      <contour>
        <pt x="470" y="46" on="1"/>
        <pt x="443" y="24" on="0"/>
        <pt x="381" y="-6" on="0"/>
        <pt x="344" y="-12" on="1"/>
        <pt x="344" y="-160" on="1"/>
        <pt x="234" y="-160" on="1"/>
        <pt x="234" y="-10" on="1"/>
        <pt x="141" y="8" on="0"/>
        <pt x="35" y="152" on="0"/>
        <pt x="35" y="261" on="1"/>
        <pt x="35" y="371" on="0"/>
        <pt x="142" y="523" on="0"/>
        <pt x="235" y="542" on="1"/>
        <pt x="235" y="691" on="1"/>
        <pt x="344" y="691" on="1"/>
        <pt x="344" y="543" on="1"/>
        <pt x="380" y="537" on="0"/>
        <pt x="442" y="507" on="0"/>
        <pt x="470" y="483" on="1"/>
        <pt x="405" y="392" on="1"/>
        <pt x="380" y="412" on="0"/>
        <pt x="331" y="431" on="0"/>
        <pt x="303" y="431" on="1"/>
        <pt x="252" y="431" on="0"/>
        <pt x="193" y="352" on="0"/>
        <pt x="193" y="262" on="1"/>
        <pt x="193" y="172" on="0"/>
        <pt x="253" y="103" on="0"/>
        <pt x="302" y="103" on="1"/>
        <pt x="330" y="103" on="0"/>
        <pt x="376" y="122" on="0"/>
        <pt x="402" y="142" on="1"/>
      </contour>
    </TTGlyph>
    <TTGlyph name="cent.osf" xMin="35" yMin="-160" xMax="470" yMax="691">
      <component glyphName="cent.lf" x="0" y="0" flags="0x204"/>
    </TTGlyph>
    <TTGlyph name="cent.tosf" xMin="58" yMin="-160" xMax="493" yMax="691">
      <component glyphName="cent" x="-2" y="0" flags="0x4"/>
    </TTGlyph>
    <TTGlyph name="chi" xMin="-20" yMin="-220" xMax="501" yMax="544">
      <contour>
        <pt x="351" y="-220" on="1"/>
        <pt x="243" y="66" on="1"/>
        <pt x="138" y="-219" on="1"/>
        <pt x="-15" y="-203" on="1"/>
        <pt x="168" y="183" on="1"/>
        <pt x="111" y="307" on="0"/>
        <pt x="29" y="447" on="0"/>
        <pt x="-20" y="498" on="1"/>
        <pt x="127" y="544" on="1"/>
        <pt x="144" y="520" on="0"/>
        <pt x="173" y="475" on="0"/>
        <pt x="200" y="420" on="0"/>
        <pt x="228" y="346" on="0"/>
        <pt x="246" y="293" on="1"/>
        <pt x="326" y="543" on="1"/>
        <pt x="480" y="528" on="1"/>
        <pt x="322" y="185" on="1"/>
        <pt x="501" y="-196" on="1"/>
      </contour>
    </TTGlyph>
    <TTGlyph name="chi.sc" xMin="-3" yMin="0" xMax="513" yMax="568">
      <component glyphName="x.sc" x="0" y="0" flags="0x204"/>
    </TTGlyph>
    <TTGlyph name="circumflex" xMin="30" yMin="622" xMax="404" yMax="818">
      <contour>
        <pt x="217" y="713" on="1"/>
        <pt x="84" y="622" on="1"/>
        <pt x="30" y="684" on="1"/>
        <pt x="170" y="818" on="1"/>
        <pt x="263" y="818" on="1"/>
        <pt x="404" y="684" on="1"/>
        <pt x="349" y="622" on="1"/>
      </contour>
    </TTGlyph>
    <TTGlyph name="circumflex.case" xMin="30" yMin="755" xMax="404" yMax="945">
      <contour>
        <pt x="404" y="818" on="1"/>
        <pt x="349" y="755" on="1"/>
        <pt x="217" y="839" on="1"/>
        <pt x="85" y="755" on="1"/>
        <pt x="30" y="818" on="1"/>
        <pt x="171" y="945" on="1"/>
        <pt x="263" y="945" on="1"/>
      </contour>
    </TTGlyph>
    <TTGlyph name="circumflex.sc" xMin="30" yMin="652" xMax="404" yMax="848">
      <component glyphName="circumflex" x="0" y="30" flags="0x4"/>
    </TTGlyph>
    <TTGlyph name="circumflexcombcomb" xMin="39" yMin="629" xMax="413" yMax="819">
      <component glyphName="uni0302" x="0" y="0" flags="0x204"/>
    </TTGlyph>
    <TTGlyph name="clear" xMin="100" yMin="-12" xMax="1140" yMax="713">
      <contour>
        <pt x="1090" y="-12" on="1"/>
        <pt x="150" y="-12" on="1"/>
        <pt x="128" y="-12" on="0"/>
        <pt x="100" y="16" on="0"/>
        <pt x="100" y="38" on="1"/>
        <pt x="100" y="663" on="1"/>
        <pt x="100" y="685" on="0"/>
        <pt x="128" y="713" on="0"/>
        <pt x="150" y="713" on="1"/>
        <pt x="1090" y="713" on="1"/>
        <pt x="1112" y="713" on="0"/>
        <pt x="1140" y="685" on="0"/>
        <pt x="1140" y="663" on="1"/>
        <pt x="1140" y="38" on="1"/>
        <pt x="1140" y="16" on="0"/>
        <pt x="1112" y="-12" on="0"/>
      </contour>
      <contour>
        <pt x="553" y="355" on="1"/>
        <pt x="399" y="201" on="1"/>
        <pt x="466" y="134" on="1"/>
        <pt x="620" y="288" on="1"/>
        <pt x="774" y="134" on="1"/>
        <pt x="841" y="201" on="1"/>
        <pt x="687" y="355" on="1"/>
        <pt x="841" y="508" on="1"/>
        <pt x="774" y="577" on="1"/>
        <pt x="620" y="422" on="1"/>
        <pt x="466" y="577" on="1"/>
        <pt x="399" y="508" on="1"/>
      </contour>
    </TTGlyph>
    <TTGlyph name="colon" xMin="32" yMin="-16" xMax="208" yMax="507">
      <component glyphName="period" x="0" y="0" flags="0x204"/>
      <component glyphName="period" x="0" y="348" flags="0x4"/>
    </TTGlyph>
    <TTGlyph name="comma" xMin="28" yMin="-176" xMax="208" yMax="159">
      <contour>
        <pt x="32" y="72" on="1"/>
        <pt x="32" y="109" on="0"/>
        <pt x="83" y="159" on="0"/>
        <pt x="120" y="159" on="1"/>
        <pt x="157" y="159" on="0"/>
        <pt x="208" y="109" on="0"/>
        <pt x="208" y="72" on="1"/>
        <pt x="208" y="50" on="0"/>
        <pt x="193" y="5" on="0"/>
        <pt x="178" y="-30" on="1"/>
        <pt x="113" y="-176" on="1"/>
        <pt x="28" y="-176" on="1"/>
        <pt x="70" y="-1" on="1"/>
        <pt x="52" y="12" on="0"/>
        <pt x="32" y="50" on="0"/>
      </contour>
    </TTGlyph>
    <TTGlyph name="copyright" xMin="70" yMin="102" xMax="740" yMax="764">
      <contour>
        <pt x="70" y="432" on="1"/>
        <pt x="70" y="501" on="0"/>
        <pt x="123" y="623" on="0"/>
        <pt x="214" y="712" on="0"/>
        <pt x="337" y="764" on="0"/>
        <pt x="406" y="764" on="1"/>
        <pt x="475" y="764" on="0"/>
        <pt x="598" y="712" on="0"/>
        <pt x="688" y="623" on="0"/>
        <pt x="740" y="501" on="0"/>
        <pt x="740" y="432" on="1"/>
        <pt x="740" y="363" on="0"/>
        <pt x="688" y="242" on="0"/>
        <pt x="598" y="154" on="0"/>
        <pt x="475" y="102" on="0"/>
        <pt x="406" y="102" on="1"/>
        <pt x="337" y="102" on="0"/>
        <pt x="214" y="154" on="0"/>
        <pt x="123" y="242" on="0"/>
        <pt x="70" y="363" on="0"/>
      </contour>
      <contour>
        <pt x="653" y="432" on="1"/>
        <pt x="653" y="539" on="0"/>
        <pt x="511" y="688" on="0"/>
        <pt x="406" y="688" on="1"/>
        <pt x="300" y="688" on="0"/>
        <pt x="158" y="539" on="0"/>
        <pt x="158" y="432" on="1"/>
        <pt x="158" y="327" on="0"/>
        <pt x="300" y="178" on="0"/>
        <pt x="406" y="178" on="1"/>
        <pt x="511" y="178" on="0"/>
        <pt x="653" y="327" on="0"/>
      </contour>
      <contour>
        <pt x="233" y="433" on="1"/>
        <pt x="233" y="525" on="0"/>
        <pt x="333" y="629" on="0"/>
        <pt x="408" y="629" on="1"/>
        <pt x="445" y="629" on="0"/>
        <pt x="511" y="603" on="0"/>
        <pt x="537" y="580" on="1"/>
        <pt x="490" y="520" on="1"/>
        <pt x="471" y="535" on="0"/>
        <pt x="438" y="546" on="0"/>
        <pt x="419" y="546" on="1"/>
        <pt x="387" y="546" on="0"/>
        <pt x="342" y="494" on="0"/>
        <pt x="342" y="433" on="1"/>
        <pt x="342" y="373" on="0"/>
        <pt x="383" y="322" on="0"/>
        <pt x="417" y="322" on="1"/>
        <pt x="441" y="322" on="0"/>
        <pt x="479" y="337" on="0"/>
        <pt x="498" y="352" on="1"/>
        <pt x="541" y="289" on="1"/>
        <pt x="516" y="266" on="0"/>
        <pt x="449" y="237" on="0"/>
        <pt x="409" y="237" on="1"/>
        <pt x="330" y="237" on="0"/>
        <pt x="233" y="339" on="0"/>
      </contour>
    </TTGlyph>
    <TTGlyph name="currency" xMin="17" yMin="79" xMax="540" yMax="605">
      <component glyphName="currency.lf" x="-2" y="0" flags="0x4"/>
    </TTGlyph>
    <TTGlyph name="currency.lf" xMin="19" yMin="79" xMax="542" yMax="605">
      <contour>
        <pt x="474" y="79" on="1"/>
        <pt x="396" y="155" on="1"/>
        <pt x="371" y="141" on="0"/>
        <pt x="313" y="125" on="0"/>
        <pt x="280" y="125" on="1"/>
        <pt x="248" y="125" on="0"/>
        <pt x="190" y="141" on="0"/>
        <pt x="165" y="156" on="1"/>
        <pt x="87" y="79" on="1"/>
        <pt x="19" y="147" on="1"/>
        <pt x="95" y="223" on="1"/>
        <pt x="79" y="248" on="0"/>
        <pt x="62" y="309" on="0"/>
        <pt x="62" y="342" on="1"/>
        <pt x="62" y="374" on="0"/>
        <pt x="79" y="433" on="0"/>
        <pt x="95" y="458" on="1"/>
        <pt x="19" y="537" on="1"/>
        <pt x="87" y="605" on="1"/>
        <pt x="165" y="526" on="1"/>
        <pt x="190" y="541" on="0"/>
        <pt x="248" y="557" on="0"/>
        <pt x="280" y="557" on="1"/>
        <pt x="313" y="557" on="0"/>
        <pt x="371" y="541" on="0"/>
        <pt x="396" y="527" on="1"/>
        <pt x="474" y="605" on="1"/>
        <pt x="542" y="537" on="1"/>
        <pt x="466" y="460" on="1"/>
        <pt x="482" y="435" on="0"/>
        <pt x="500" y="375" on="0"/>
        <pt x="500" y="342" on="1"/>
        <pt x="500" y="308" on="0"/>
        <pt x="482" y="247" on="0"/>
        <pt x="466" y="222" on="1"/>
        <pt x="542" y="147" on="1"/>
      </contour>
      <contour>
        <pt x="381" y="342" on="1"/>
        <pt x="381" y="395" on="0"/>
        <pt x="330" y="455" on="0"/>
        <pt x="281" y="455" on="1"/>
        <pt x="232" y="455" on="0"/>
        <pt x="180" y="395" on="0"/>
        <pt x="180" y="342" on="1"/>
        <pt x="180" y="288" on="0"/>
        <pt x="232" y="228" on="0"/>
        <pt x="281" y="228" on="1"/>
        <pt x="330" y="228" on="0"/>
        <pt x="381" y="288" on="0"/>
      </contour>
    </TTGlyph>
    <TTGlyph name="currency.osf" xMin="19" yMin="79" xMax="542" yMax="605">
      <component glyphName="currency.lf" x="0" y="0" flags="0x204"/>
    </TTGlyph>
    <TTGlyph name="currency.tosf" xMin="17" yMin="79" xMax="540" yMax="605">
      <component glyphName="currency.lf" x="-2" y="0" flags="0x4"/>
    </TTGlyph>
    <TTGlyph name="d" xMin="40" yMin="-16" xMax="534" yMax="758">
      <contour>
        <pt x="288" y="94" on="1"/>
        <pt x="318" y="94" on="0"/>
        <pt x="364" y="125" on="0"/>
        <pt x="384" y="156" on="1"/>
        <pt x="384" y="389" on="1"/>
        <pt x="365" y="411" on="0"/>
        <pt x="325" y="437" on="0"/>
        <pt x="297" y="437" on="1"/>
        <pt x="252" y="437" on="0"/>
        <pt x="196" y="356" on="0"/>
        <pt x="196" y="266" on="1"/>
        <pt x="196" y="167" on="0"/>
        <pt x="247" y="94" on="0"/>
      </contour>
      <contour>
        <pt x="401" y="0" on="1"/>
        <pt x="393" y="63" on="1"/>
        <pt x="370" y="29" on="0"/>
        <pt x="294" y="-16" on="0"/>
        <pt x="241" y="-16" on="1"/>
        <pt x="141" y="-16" on="0"/>
        <pt x="40" y="138" on="0"/>
        <pt x="40" y="266" on="1"/>
        <pt x="40" y="388" on="0"/>
        <pt x="157" y="547" on="0"/>
        <pt x="259" y="547" on="1"/>
        <pt x="296" y="547" on="0"/>
        <pt x="360" y="518" on="0"/>
        <pt x="384" y="494" on="1"/>
        <pt x="384" y="758" on="1"/>
        <pt x="534" y="742" on="1"/>
        <pt x="534" y="0" on="1"/>
      </contour>
    </TTGlyph>
    <TTGlyph name="d.sc" xMin="69" yMin="0" xMax="554" yMax="568">
      <contour>
        <pt x="69" y="568" on="1"/>
        <pt x="241" y="568" on="1"/>
        <pt x="301" y="568" on="0"/>
        <pt x="415" y="546" on="0"/>
        <pt x="502" y="484" on="0"/>
        <pt x="554" y="375" on="0"/>
        <pt x="554" y="288" on="1"/>
        <pt x="554" y="203" on="0"/>
        <pt x="504" y="90" on="0"/>
        <pt x="421" y="26" on="0"/>
        <pt x="312" y="0" on="0"/>
        <pt x="254" y="0" on="1"/>
        <pt x="69" y="0" on="1"/>
      </contour>
      <contour>
        <pt x="401" y="288" on="1"/>
        <pt x="401" y="392" on="0"/>
        <pt x="323" y="461" on="0"/>
        <pt x="261" y="461" on="1"/>
        <pt x="218" y="461" on="1"/>
        <pt x="218" y="107" on="1"/>
        <pt x="264" y="107" on="1"/>
        <pt x="327" y="107" on="0"/>
        <pt x="401" y="181" on="0"/>
      </contour>
    </TTGlyph>
    <TTGlyph name="dagger" xMin="34" yMin="0" xMax="521" yMax="693">
      <contour>
        <pt x="208" y="693" on="1"/>
        <pt x="348" y="693" on="1"/>
        <pt x="348" y="552" on="1"/>
        <pt x="521" y="552" on="1"/>
        <pt x="521" y="430" on="1"/>
        <pt x="348" y="430" on="1"/>
        <pt x="348" y="0" on="1"/>
        <pt x="208" y="0" on="1"/>
        <pt x="208" y="430" on="1"/>
        <pt x="34" y="430" on="1"/>
        <pt x="34" y="552" on="1"/>
        <pt x="208" y="552" on="1"/>
      </contour>
    </TTGlyph>
    <TTGlyph name="dagger.lf" xMin="27" yMin="0" xMax="499" yMax="675">
      <contour>
        <pt x="193" y="675" on="1"/>
        <pt x="333" y="675" on="1"/>
        <pt x="333" y="534" on="1"/>
        <pt x="499" y="534" on="1"/>
        <pt x="499" y="412" on="1"/>
        <pt x="333" y="412" on="1"/>
        <pt x="333" y="0" on="1"/>
        <pt x="193" y="0" on="1"/>
        <pt x="193" y="412" on="1"/>
        <pt x="27" y="412" on="1"/>
        <pt x="27" y="534" on="1"/>
        <pt x="193" y="534" on="1"/>
      </contour>
    </TTGlyph>
    <TTGlyph name="dagger.osf" xMin="27" yMin="0" xMax="499" yMax="675">
      <component glyphName="dagger.lf" x="0" y="0" flags="0x204"/>
    </TTGlyph>
    <TTGlyph name="dagger.tosf" xMin="42" yMin="0" xMax="514" yMax="675">
      <component glyphName="dagger.lf" x="15" y="0" flags="0x4"/>
    </TTGlyph>
    <TTGlyph name="daggerdbl" xMin="34" yMin="0" xMax="521" yMax="693">
      <contour>
        <pt x="519" y="161" on="1"/>
        <pt x="348" y="161" on="1"/>
        <pt x="348" y="0" on="1"/>
        <pt x="208" y="0" on="1"/>
        <pt x="208" y="161" on="1"/>
        <pt x="37" y="161" on="1"/>
        <pt x="37" y="283" on="1"/>
        <pt x="208" y="283" on="1"/>
        <pt x="208" y="430" on="1"/>
        <pt x="34" y="430" on="1"/>
        <pt x="34" y="552" on="1"/>
        <pt x="208" y="552" on="1"/>
        <pt x="208" y="693" on="1"/>
        <pt x="348" y="693" on="1"/>
        <pt x="348" y="552" on="1"/>
        <pt x="521" y="552" on="1"/>
        <pt x="521" y="430" on="1"/>
        <pt x="348" y="430" on="1"/>
        <pt x="348" y="283" on="1"/>
        <pt x="519" y="283" on="1"/>
      </contour>
    </TTGlyph>
    <TTGlyph name="daggerdbl.lf" xMin="27" yMin="0" xMax="499" yMax="675">
      <contour>
        <pt x="499" y="146" on="1"/>
        <pt x="333" y="146" on="1"/>
        <pt x="333" y="0" on="1"/>
        <pt x="193" y="0" on="1"/>
        <pt x="193" y="146" on="1"/>
        <pt x="27" y="146" on="1"/>
        <pt x="27" y="268" on="1"/>
        <pt x="193" y="268" on="1"/>
        <pt x="193" y="412" on="1"/>
        <pt x="27" y="412" on="1"/>
        <pt x="27" y="534" on="1"/>
        <pt x="193" y="534" on="1"/>
        <pt x="193" y="675" on="1"/>
        <pt x="333" y="675" on="1"/>
        <pt x="333" y="534" on="1"/>
        <pt x="499" y="534" on="1"/>
        <pt x="499" y="412" on="1"/>
        <pt x="333" y="412" on="1"/>
        <pt x="333" y="268" on="1"/>
        <pt x="499" y="268" on="1"/>
      </contour>
    </TTGlyph>
    <TTGlyph name="daggerdbl.osf" xMin="27" yMin="0" xMax="499" yMax="675">
      <component glyphName="daggerdbl.lf" x="0" y="0" flags="0x204"/>
    </TTGlyph>
    <TTGlyph name="daggerdbl.tosf" xMin="42" yMin="0" xMax="514" yMax="675">
      <component glyphName="daggerdbl.lf" x="15" y="0" flags="0x4"/>
    </TTGlyph>
    <TTGlyph name="dcaron" xMin="40" yMin="-16" xMax="720" yMax="758">
      <component glyphName="caron.alt" x="521" y="49" flags="0x4"/>
      <component glyphName="d" x="0" y="0" flags="0x204"/>
    </TTGlyph>
    <TTGlyph name="dcaron.sc" xMin="69" yMin="0" xMax="554" yMax="840">
      <component glyphName="d.sc" x="0" y="0" flags="0x204"/>
      <component glyphName="caron.sc" x="55" y="0" flags="0x4"/>
    </TTGlyph>
    <TTGlyph name="dcroat" xMin="40" yMin="-16" xMax="598" yMax="758">
      <contour>
        <pt x="288" y="94" on="1"/>
        <pt x="318" y="94" on="0"/>
        <pt x="364" y="125" on="0"/>
        <pt x="384" y="156" on="1"/>
        <pt x="384" y="389" on="1"/>
        <pt x="365" y="411" on="0"/>
        <pt x="325" y="437" on="0"/>
        <pt x="297" y="437" on="1"/>
        <pt x="252" y="437" on="0"/>
        <pt x="196" y="356" on="0"/>
        <pt x="196" y="266" on="1"/>
        <pt x="196" y="167" on="0"/>
        <pt x="247" y="94" on="0"/>
      </contour>
      <contour>
        <pt x="401" y="0" on="1"/>
        <pt x="393" y="63" on="1"/>
        <pt x="370" y="29" on="0"/>
        <pt x="294" y="-16" on="0"/>
        <pt x="241" y="-16" on="1"/>
        <pt x="141" y="-16" on="0"/>
        <pt x="40" y="138" on="0"/>
        <pt x="40" y="266" on="1"/>
        <pt x="40" y="388" on="0"/>
        <pt x="157" y="547" on="0"/>
        <pt x="259" y="547" on="1"/>
        <pt x="296" y="547" on="0"/>
        <pt x="360" y="518" on="0"/>
        <pt x="384" y="494" on="1"/>
        <pt x="384" y="597" on="1"/>
        <pt x="251" y="597" on="1"/>
        <pt x="238" y="687" on="1"/>
        <pt x="384" y="687" on="1"/>
        <pt x="384" y="758" on="1"/>
        <pt x="534" y="742" on="1"/>
        <pt x="534" y="687" on="1"/>
        <pt x="598" y="687" on="1"/>
        <pt x="598" y="597" on="1"/>
        <pt x="534" y="597" on="1"/>
        <pt x="534" y="0" on="1"/>
      </contour>
    </TTGlyph>
    <TTGlyph name="dcroat.sc" xMin="7" yMin="0" xMax="547" yMax="568">
      <component glyphName="eth.sc" x="0" y="0" flags="0x204"/>
    </TTGlyph>
    <TTGlyph name="degree" xMin="59" yMin="391" xMax="412" yMax="729">
      <component glyphName="degree.lf" x="18" y="20" flags="0x4"/>
    </TTGlyph>
    <TTGlyph name="degree.lf" xMin="41" yMin="371" xMax="394" yMax="709">
      <contour>
        <pt x="394" y="541" on="1"/>
        <pt x="394" y="461" on="0"/>
        <pt x="284" y="371" on="0"/>
        <pt x="218" y="371" on="1"/>
        <pt x="153" y="371" on="0"/>
        <pt x="41" y="461" on="0"/>
        <pt x="41" y="541" on="1"/>
        <pt x="41" y="621" on="0"/>
        <pt x="153" y="709" on="0"/>
        <pt x="218" y="709" on="1"/>
        <pt x="284" y="709" on="0"/>
        <pt x="394" y="620" on="0"/>
      </contour>
      <contour>
        <pt x="146" y="541" on="1"/>
        <pt x="146" y="503" on="0"/>
        <pt x="187" y="459" on="0"/>
        <pt x="218" y="459" on="1"/>
        <pt x="250" y="459" on="0"/>
        <pt x="290" y="503" on="0"/>
        <pt x="290" y="541" on="1"/>
        <pt x="290" y="578" on="0"/>
        <pt x="250" y="622" on="0"/>
        <pt x="218" y="622" on="1"/>
        <pt x="187" y="622" on="0"/>
        <pt x="146" y="579" on="0"/>
      </contour>
    </TTGlyph>
    <TTGlyph name="degree.osf" xMin="41" yMin="371" xMax="394" yMax="709">
      <component glyphName="degree.lf" x="0" y="0" flags="0x204"/>
    </TTGlyph>
    <TTGlyph name="degree.tosf" xMin="59" yMin="371" xMax="412" yMax="709">
      <component glyphName="degree.lf" x="18" y="0" flags="0x4"/>
    </TTGlyph>
    <TTGlyph name="deleterightKey" xMin="100" yMin="-12" xMax="1360" yMax="713">
      <contour>
        <pt x="980" y="-12" on="1"/>
        <pt x="150" y="-12" on="1"/>
        <pt x="128" y="-12" on="0"/>
        <pt x="100" y="16" on="0"/>
        <pt x="100" y="38" on="1"/>
        <pt x="100" y="663" on="1"/>
        <pt x="100" y="685" on="0"/>
        <pt x="128" y="713" on="0"/>
        <pt x="150" y="713" on="1"/>
        <pt x="980" y="713" on="1"/>
        <pt x="1360" y="352" on="1"/>
      </contour>
      <contour>
        <pt x="503" y="355" on="1"/>
        <pt x="349" y="201" on="1"/>
        <pt x="416" y="134" on="1"/>
        <pt x="570" y="288" on="1"/>
        <pt x="724" y="134" on="1"/>
        <pt x="791" y="201" on="1"/>
        <pt x="637" y="355" on="1"/>
        <pt x="791" y="508" on="1"/>
        <pt x="724" y="577" on="1"/>
        <pt x="570" y="422" on="1"/>
        <pt x="416" y="577" on="1"/>
        <pt x="349" y="508" on="1"/>
      </contour>
    </TTGlyph>
    <TTGlyph name="delta" xMin="35" yMin="-16" xMax="542" yMax="758">
      <contour>
        <pt x="542" y="247" on="1"/>
        <pt x="542" y="131" on="0"/>
        <pt x="405" y="-16" on="0"/>
        <pt x="288" y="-16" on="1"/>
        <pt x="172" y="-16" on="0"/>
        <pt x="35" y="121" on="0"/>
        <pt x="35" y="241" on="1"/>
        <pt x="35" y="318" on="0"/>
        <pt x="115" y="429" on="0"/>
        <pt x="188" y="463" on="1"/>
        <pt x="128" y="497" on="0"/>
        <pt x="89" y="566" on="0"/>
        <pt x="89" y="607" on="1"/>
        <pt x="89" y="667" on="0"/>
        <pt x="191" y="758" on="0"/>
        <pt x="299" y="758" on="1"/>
        <pt x="361" y="758" on="0"/>
        <pt x="455" y="723" on="0"/>
        <pt x="488" y="698" on="1"/>
        <pt x="420" y="617" on="1"/>
        <pt x="394" y="634" on="0"/>
        <pt x="341" y="652" on="0"/>
        <pt x="310" y="652" on="1"/>
        <pt x="269" y="652" on="0"/>
        <pt x="234" y="623" on="0"/>
        <pt x="234" y="601" on="1"/>
        <pt x="234" y="576" on="0"/>
        <pt x="271" y="544" on="0"/>
        <pt x="337" y="516" on="1"/>
        <pt x="441" y="474" on="0"/>
        <pt x="542" y="354" on="0"/>
      </contour>
      <contour>
        <pt x="288" y="95" on="1"/>
        <pt x="336" y="95" on="0"/>
        <pt x="386" y="170" on="0"/>
        <pt x="386" y="248" on="1"/>
        <pt x="386" y="321" on="0"/>
        <pt x="340" y="393" on="0"/>
        <pt x="267" y="427" on="1"/>
        <pt x="225" y="393" on="0"/>
        <pt x="190" y="308" on="0"/>
        <pt x="190" y="247" on="1"/>
        <pt x="190" y="170" on="0"/>
        <pt x="238" y="95" on="0"/>
      </contour>
    </TTGlyph>
    <TTGlyph name="delta.sc" xMin="-11" yMin="0" xMax="536" yMax="569">
      <contour>
        <pt x="173" y="569" on="1"/>
        <pt x="353" y="569" on="1"/>
        <pt x="536" y="0" on="1"/>
        <pt x="-11" y="0" on="1"/>
      </contour>
      <contour>
        <pt x="353" y="108" on="1"/>
        <pt x="261" y="461" on="1"/>
        <pt x="168" y="108" on="1"/>
      </contour>
    </TTGlyph>
    <TTGlyph name="descRound.cy" xMin="30" yMin="-255" xMax="283" yMax="24">
      <contour>
        <pt x="86" y="0" on="1"/>
        <pt x="113" y="24" on="1"/>
        <pt x="190" y="1" on="0"/>
        <pt x="283" y="-75" on="0"/>
        <pt x="283" y="-132" on="1"/>
        <pt x="283" y="-189" on="0"/>
        <pt x="201" y="-255" on="0"/>
        <pt x="138" y="-255" on="1"/>
        <pt x="105" y="-255" on="0"/>
        <pt x="51" y="-241" on="0"/>
        <pt x="30" y="-230" on="1"/>
        <pt x="60" y="-154" on="1"/>
        <pt x="72" y="-160" on="0"/>
        <pt x="101" y="-170" on="0"/>
        <pt x="123" y="-170" on="1"/>
        <pt x="151" y="-170" on="0"/>
        <pt x="179" y="-141" on="0"/>
        <pt x="179" y="-119" on="1"/>
        <pt x="179" y="-90" on="0"/>
        <pt x="139" y="-29" on="0"/>
      </contour>
    </TTGlyph>
    <TTGlyph name="descStraight.cy" xMin="31" yMin="-164" xMax="204" yMax="111">
      <contour>
        <pt x="31" y="111" on="1"/>
        <pt x="204" y="111" on="1"/>
        <pt x="204" y="-164" on="1"/>
        <pt x="99" y="-164" on="1"/>
        <pt x="82" y="0" on="1"/>
        <pt x="43" y="0" on="1"/>
      </contour>
    </TTGlyph>
    <TTGlyph name="descStraight.cy.case" xMin="30" yMin="-164" xMax="204" yMax="120">
      <contour>
        <pt x="30" y="120" on="1"/>
        <pt x="204" y="120" on="1"/>
        <pt x="204" y="-164" on="1"/>
        <pt x="95" y="-164" on="1"/>
        <pt x="78" y="0" on="1"/>
        <pt x="31" y="0" on="1"/>
      </contour>
    </TTGlyph>
    <TTGlyph name="dieresis" xMin="31" yMin="643" xMax="416" yMax="795">
      <contour>
        <pt x="31" y="719" on="1"/>
        <pt x="31" y="751" on="0"/>
        <pt x="77" y="795" on="0"/>
        <pt x="109" y="795" on="1"/>
        <pt x="142" y="795" on="0"/>
        <pt x="187" y="751" on="0"/>
        <pt x="187" y="719" on="1"/>
        <pt x="187" y="687" on="0"/>
        <pt x="142" y="643" on="0"/>
        <pt x="109" y="643" on="1"/>
        <pt x="77" y="643" on="0"/>
        <pt x="31" y="687" on="0"/>
      </contour>
      <contour>
        <pt x="260" y="719" on="1"/>
        <pt x="260" y="751" on="0"/>
        <pt x="306" y="795" on="0"/>
        <pt x="338" y="795" on="1"/>
        <pt x="372" y="795" on="0"/>
        <pt x="416" y="751" on="0"/>
        <pt x="416" y="719" on="1"/>
        <pt x="416" y="687" on="0"/>
        <pt x="372" y="643" on="0"/>
        <pt x="338" y="643" on="1"/>
        <pt x="306" y="643" on="0"/>
        <pt x="260" y="687" on="0"/>
      </contour>
    </TTGlyph>
    <TTGlyph name="dieresis.case" xMin="31" yMin="769" xMax="416" yMax="921">
      <component glyphName="dieresis" x="0" y="126" flags="0x4"/>
    </TTGlyph>
    <TTGlyph name="dieresis.sc" xMin="31" yMin="673" xMax="416" yMax="825">
      <component glyphName="dieresis" x="0" y="30" flags="0x4"/>
    </TTGlyph>
    <TTGlyph name="dieresisacutecomb" xMin="-63" yMin="613" xMax="334" yMax="985">
      <contour>
        <pt x="2" y="865" on="1"/>
        <pt x="223" y="985" on="1"/>
        <pt x="279" y="871" on="1"/>
        <pt x="41" y="789" on="1"/>
      </contour>
      <contour>
        <pt x="178" y="690" on="1"/>
        <pt x="178" y="721" on="0"/>
        <pt x="222" y="766" on="0"/>
        <pt x="255" y="766" on="1"/>
        <pt x="288" y="766" on="0"/>
        <pt x="334" y="721" on="0"/>
        <pt x="334" y="690" on="1"/>
        <pt x="334" y="658" on="0"/>
        <pt x="288" y="613" on="0"/>
        <pt x="255" y="613" on="1"/>
        <pt x="222" y="613" on="0"/>
        <pt x="178" y="658" on="0"/>
      </contour>
      <contour>
        <pt x="-63" y="690" on="1"/>
        <pt x="-63" y="721" on="0"/>
        <pt x="-18" y="766" on="0"/>
        <pt x="16" y="766" on="1"/>
        <pt x="48" y="766" on="0"/>
        <pt x="93" y="721" on="0"/>
        <pt x="93" y="690" on="1"/>
        <pt x="93" y="658" on="0"/>
        <pt x="48" y="613" on="0"/>
        <pt x="16" y="613" on="1"/>
        <pt x="-18" y="613" on="0"/>
        <pt x="-63" y="658" on="0"/>
      </contour>
    </TTGlyph>
    <TTGlyph name="dieresiscombcomb" xMin="40" yMin="643" xMax="425" yMax="795">
      <component glyphName="uni0308" x="0" y="0" flags="0x204"/>
    </TTGlyph>
    <TTGlyph name="dieresisgravecomb" xMin="-63" yMin="613" xMax="334" yMax="985">
      <contour>
        <pt x="-8" y="871" on="1"/>
        <pt x="48" y="985" on="1"/>
        <pt x="269" y="865" on="1"/>
        <pt x="230" y="789" on="1"/>
      </contour>
      <contour>
        <pt x="-63" y="690" on="1"/>
        <pt x="-63" y="721" on="0"/>
        <pt x="-17" y="766" on="0"/>
        <pt x="16" y="766" on="1"/>
        <pt x="49" y="766" on="0"/>
        <pt x="93" y="721" on="0"/>
        <pt x="93" y="690" on="1"/>
        <pt x="93" y="658" on="0"/>
        <pt x="49" y="613" on="0"/>
        <pt x="16" y="613" on="1"/>
        <pt x="-17" y="613" on="0"/>
        <pt x="-63" y="658" on="0"/>
      </contour>
      <contour>
        <pt x="178" y="690" on="1"/>
        <pt x="178" y="721" on="0"/>
        <pt x="223" y="766" on="0"/>
        <pt x="255" y="766" on="1"/>
        <pt x="289" y="766" on="0"/>
        <pt x="334" y="721" on="0"/>
        <pt x="334" y="690" on="1"/>
        <pt x="334" y="658" on="0"/>
        <pt x="289" y="613" on="0"/>
        <pt x="255" y="613" on="1"/>
        <pt x="223" y="613" on="0"/>
        <pt x="178" y="658" on="0"/>
      </contour>
    </TTGlyph>
    <TTGlyph name="dieresistonos" xMin="30" yMin="611" xMax="446" yMax="946">
      <contour>
        <pt x="193" y="749" on="1"/>
        <pt x="222" y="946" on="1"/>
        <pt x="351" y="924" on="1"/>
        <pt x="279" y="736" on="1"/>
      </contour>
      <contour>
        <pt x="293" y="686" on="1"/>
        <pt x="293" y="717" on="0"/>
        <pt x="338" y="761" on="0"/>
        <pt x="369" y="761" on="1"/>
        <pt x="402" y="761" on="0"/>
        <pt x="446" y="717" on="0"/>
        <pt x="446" y="686" on="1"/>
        <pt x="446" y="655" on="0"/>
        <pt x="402" y="611" on="0"/>
        <pt x="369" y="611" on="1"/>
        <pt x="338" y="611" on="0"/>
        <pt x="293" y="655" on="0"/>
      </contour>
      <contour>
        <pt x="30" y="686" on="1"/>
        <pt x="30" y="717" on="0"/>
        <pt x="75" y="761" on="0"/>
        <pt x="107" y="761" on="1"/>
        <pt x="139" y="761" on="0"/>
        <pt x="183" y="717" on="0"/>
        <pt x="183" y="686" on="1"/>
        <pt x="183" y="655" on="0"/>
        <pt x="139" y="611" on="0"/>
        <pt x="107" y="611" on="1"/>
        <pt x="75" y="611" on="0"/>
        <pt x="30" y="655" on="0"/>
      </contour>
    </TTGlyph>
    <TTGlyph name="divide" xMin="70" yMin="5" xMax="486" yMax="660">
      <component glyphName="divide.lf" x="20" y="0" flags="0x4"/>
    </TTGlyph>
    <TTGlyph name="divide.lf" xMin="50" yMin="5" xMax="466" yMax="660">
      <component glyphName="minus.lf" x="0" y="0" flags="0x204"/>
      <component glyphName="period" x="139" y="21" flags="0x4"/>
      <component glyphName="period" x="139" y="501" flags="0x4"/>
    </TTGlyph>
    <TTGlyph name="divide.osf" xMin="50" yMin="5" xMax="466" yMax="660">
      <component glyphName="divide.lf" x="0" y="0" flags="0x204"/>
    </TTGlyph>
    <TTGlyph name="divide.tosf" xMin="70" yMin="5" xMax="486" yMax="660">
      <component glyphName="divide.lf" x="20" y="0" flags="0x4"/>
    </TTGlyph>
    <TTGlyph name="divisionslash" xMin="-167" yMin="-85" xMax="331" yMax="758">
      <component glyphName="fraction" x="0" y="0" flags="0x204"/>
    </TTGlyph>
    <TTGlyph name="dollar" xMin="13" yMin="-160" xMax="521" yMax="851">
      <contour>
        <pt x="335" y="-160" on="1"/>
        <pt x="225" y="-160" on="1"/>
        <pt x="225" y="-6" on="1"/>
        <pt x="155" y="0" on="0"/>
        <pt x="50" y="52" on="0"/>
        <pt x="13" y="88" on="1"/>
        <pt x="89" y="174" on="1"/>
        <pt x="124" y="142" on="0"/>
        <pt x="207" y="106" on="0"/>
        <pt x="257" y="106" on="1"/>
        <pt x="306" y="106" on="0"/>
        <pt x="367" y="152" on="0"/>
        <pt x="367" y="194" on="1"/>
        <pt x="367" y="233" on="0"/>
        <pt x="317" y="277" on="0"/>
        <pt x="243" y="300" on="1"/>
        <pt x="134" y="334" on="0"/>
        <pt x="41" y="432" on="0"/>
        <pt x="41" y="508" on="1"/>
        <pt x="41" y="583" on="0"/>
        <pt x="144" y="684" on="0"/>
        <pt x="225" y="696" on="1"/>
        <pt x="225" y="851" on="1"/>
        <pt x="335" y="851" on="1"/>
        <pt x="335" y="696" on="1"/>
        <pt x="386" y="689" on="0"/>
        <pt x="468" y="647" on="0"/>
        <pt x="502" y="614" on="1"/>
        <pt x="431" y="531" on="1"/>
        <pt x="397" y="560" on="0"/>
        <pt x="326" y="588" on="0"/>
        <pt x="286" y="588" on="1"/>
        <pt x="244" y="588" on="0"/>
        <pt x="193" y="552" on="0"/>
        <pt x="193" y="518" on="1"/>
        <pt x="193" y="484" on="0"/>
        <pt x="245" y="446" on="0"/>
        <pt x="324" y="421" on="1"/>
        <pt x="416" y="392" on="0"/>
        <pt x="521" y="298" on="0"/>
        <pt x="521" y="205" on="1"/>
        <pt x="521" y="127" on="0"/>
        <pt x="423" y="17" on="0"/>
        <pt x="335" y="0" on="1"/>
      </contour>
    </TTGlyph>
    <TTGlyph name="dollar.lf" xMin="11" yMin="-160" xMax="521" yMax="829">
      <contour>
        <pt x="336" y="-160" on="1"/>
        <pt x="226" y="-160" on="1"/>
        <pt x="226" y="-9" on="1"/>
        <pt x="155" y="-4" on="0"/>
        <pt x="48" y="48" on="0"/>
        <pt x="11" y="84" on="1"/>
        <pt x="88" y="168" on="1"/>
        <pt x="123" y="137" on="0"/>
        <pt x="206" y="101" on="0"/>
        <pt x="255" y="101" on="1"/>
        <pt x="305" y="101" on="0"/>
        <pt x="365" y="147" on="0"/>
        <pt x="365" y="187" on="1"/>
        <pt x="365" y="225" on="0"/>
        <pt x="315" y="269" on="0"/>
        <pt x="241" y="291" on="1"/>
        <pt x="132" y="325" on="0"/>
        <pt x="39" y="422" on="0"/>
        <pt x="39" y="496" on="1"/>
        <pt x="39" y="571" on="0"/>
        <pt x="144" y="670" on="0"/>
        <pt x="226" y="682" on="1"/>
        <pt x="226" y="829" on="1"/>
        <pt x="336" y="829" on="1"/>
        <pt x="336" y="681" on="1"/>
        <pt x="387" y="674" on="0"/>
        <pt x="468" y="633" on="0"/>
        <pt x="502" y="601" on="1"/>
        <pt x="431" y="519" on="1"/>
        <pt x="397" y="547" on="0"/>
        <pt x="325" y="575" on="0"/>
        <pt x="285" y="575" on="1"/>
        <pt x="243" y="575" on="0"/>
        <pt x="192" y="540" on="0"/>
        <pt x="192" y="506" on="1"/>
        <pt x="192" y="473" on="0"/>
        <pt x="244" y="436" on="0"/>
        <pt x="323" y="411" on="1"/>
        <pt x="415" y="382" on="0"/>
        <pt x="521" y="290" on="0"/>
        <pt x="521" y="198" on="1"/>
        <pt x="521" y="122" on="0"/>
        <pt x="423" y="13" on="0"/>
        <pt x="336" y="-3" on="1"/>
      </contour>
    </TTGlyph>
    <TTGlyph name="dollar.osf" xMin="11" yMin="-160" xMax="521" yMax="829">
      <component glyphName="dollar.lf" x="0" y="0" flags="0x204"/>
    </TTGlyph>
    <TTGlyph name="dollar.tosf" xMin="14" yMin="-160" xMax="511" yMax="830">
      <contour>
        <pt x="333" y="-160" on="1"/>
        <pt x="223" y="-160" on="1"/>
        <pt x="223" y="-8" on="1"/>
        <pt x="157" y="-2" on="0"/>
        <pt x="51" y="48" on="0"/>
        <pt x="14" y="85" on="1"/>
        <pt x="91" y="169" on="1"/>
        <pt x="126" y="137" on="0"/>
        <pt x="210" y="102" on="0"/>
        <pt x="254" y="102" on="1"/>
        <pt x="301" y="102" on="0"/>
        <pt x="360" y="148" on="0"/>
        <pt x="360" y="188" on="1"/>
        <pt x="360" y="226" on="0"/>
        <pt x="312" y="270" on="0"/>
        <pt x="243" y="293" on="1"/>
        <pt x="138" y="329" on="0"/>
        <pt x="48" y="422" on="0"/>
        <pt x="48" y="496" on="1"/>
        <pt x="48" y="571" on="0"/>
        <pt x="149" y="668" on="0"/>
        <pt x="223" y="681" on="1"/>
        <pt x="223" y="830" on="1"/>
        <pt x="333" y="830" on="1"/>
        <pt x="333" y="682" on="1"/>
        <pt x="382" y="675" on="0"/>
        <pt x="464" y="634" on="0"/>
        <pt x="498" y="601" on="1"/>
        <pt x="432" y="519" on="1"/>
        <pt x="395" y="548" on="0"/>
        <pt x="324" y="575" on="0"/>
        <pt x="291" y="575" on="1"/>
        <pt x="251" y="575" on="0"/>
        <pt x="198" y="541" on="0"/>
        <pt x="198" y="507" on="1"/>
        <pt x="198" y="474" on="0"/>
        <pt x="247" y="434" on="0"/>
        <pt x="322" y="409" on="1"/>
        <pt x="408" y="379" on="0"/>
        <pt x="511" y="290" on="0"/>
        <pt x="511" y="199" on="1"/>
        <pt x="511" y="123" on="0"/>
        <pt x="417" y="14" on="0"/>
        <pt x="333" y="-3" on="1"/>
      </contour>
    </TTGlyph>
    <TTGlyph name="dotaccent" xMin="30" yMin="634" xMax="210" yMax="807">
      <contour>
        <pt x="30" y="720" on="1"/>
        <pt x="30" y="757" on="0"/>
        <pt x="80" y="807" on="0"/>
        <pt x="120" y="807" on="1"/>
        <pt x="160" y="807" on="0"/>
        <pt x="210" y="757" on="0"/>
        <pt x="210" y="720" on="1"/>
        <pt x="210" y="684" on="0"/>
        <pt x="160" y="634" on="0"/>
        <pt x="120" y="634" on="1"/>
        <pt x="80" y="634" on="0"/>
        <pt x="30" y="684" on="0"/>
      </contour>
    </TTGlyph>
    <TTGlyph name="dotaccent.case" xMin="30" yMin="760" xMax="210" yMax="933">
      <component glyphName="dotaccent" x="0" y="126" flags="0x4"/>
    </TTGlyph>
    <TTGlyph name="dotaccent.sc" xMin="30" yMin="664" xMax="210" yMax="837">
      <component glyphName="dotaccent" x="0" y="30" flags="0x4"/>
    </TTGlyph>
    <TTGlyph name="dotaccentcombcomb" xMin="39" yMin="634" xMax="219" yMax="807">
      <component glyphName="uni0307" x="0" y="0" flags="0x204"/>
    </TTGlyph>
    <TTGlyph name="dotlessi" xMin="66" yMin="0" xMax="216" yMax="531">
      <contour>
        <pt x="66" y="531" on="1"/>
        <pt x="216" y="531" on="1"/>
        <pt x="216" y="0" on="1"/>
        <pt x="66" y="0" on="1"/>
      </contour>
    </TTGlyph>
    <TTGlyph name="dotlessi.sc" xMin="69" yMin="0" xMax="219" yMax="568">
      <component glyphName="i.sc" x="0" y="0" flags="0x204"/>
    </TTGlyph>
    <TTGlyph name="dotlessj.sc" xMin="-9" yMin="-146" xMax="229" yMax="568">
      <component glyphName="j.sc" x="0" y="0" flags="0x204"/>
    </TTGlyph>
    <TTGlyph name="dotmath" xMin="32" yMin="221" xMax="208" yMax="396">
      <component glyphName="periodcentered" x="0" y="0" flags="0x204"/>
    </TTGlyph>
    <TTGlyph name="e" xMin="35" yMin="-16" xMax="521" yMax="547">
      <contour>
        <pt x="283" y="446" on="1"/>
        <pt x="242" y="446" on="0"/>
        <pt x="194" y="386" on="0"/>
        <pt x="189" y="313" on="1"/>
        <pt x="374" y="313" on="1"/>
        <pt x="374" y="319" on="1"/>
        <pt x="373" y="376" on="0"/>
        <pt x="332" y="446" on="0"/>
      </contour>
      <contour>
        <pt x="502" y="57" on="1"/>
        <pt x="462" y="26" on="0"/>
        <pt x="361" y="-16" on="0"/>
        <pt x="298" y="-16" on="1"/>
        <pt x="168" y="-16" on="0"/>
        <pt x="35" y="138" on="0"/>
        <pt x="35" y="262" on="1"/>
        <pt x="35" y="381" on="0"/>
        <pt x="161" y="547" on="0"/>
        <pt x="280" y="547" on="1"/>
        <pt x="393" y="547" on="0"/>
        <pt x="521" y="404" on="0"/>
        <pt x="521" y="276" on="1"/>
        <pt x="521" y="263" on="0"/>
        <pt x="519" y="232" on="0"/>
        <pt x="518" y="221" on="1"/>
        <pt x="189" y="221" on="1"/>
        <pt x="196" y="147" on="0"/>
        <pt x="262" y="94" on="0"/>
        <pt x="312" y="94" on="1"/>
        <pt x="345" y="94" on="0"/>
        <pt x="406" y="117" on="0"/>
        <pt x="440" y="141" on="1"/>
      </contour>
    </TTGlyph>
    <TTGlyph name="e.sc" xMin="69" yMin="0" xMax="443" yMax="568">
      <contour>
        <pt x="69" y="568" on="1"/>
        <pt x="443" y="568" on="1"/>
        <pt x="428" y="462" on="1"/>
        <pt x="218" y="462" on="1"/>
        <pt x="218" y="341" on="1"/>
        <pt x="401" y="341" on="1"/>
        <pt x="401" y="238" on="1"/>
        <pt x="218" y="238" on="1"/>
        <pt x="218" y="106" on="1"/>
        <pt x="441" y="106" on="1"/>
        <pt x="441" y="0" on="1"/>
        <pt x="69" y="0" on="1"/>
      </contour>
    </TTGlyph>
    <TTGlyph name="eacute" xMin="35" yMin="-16" xMax="521" yMax="831">
      <component glyphName="acute" x="105" y="0" flags="0x4"/>
      <component glyphName="e" x="0" y="0" flags="0x204"/>
    </TTGlyph>
    <TTGlyph name="eacute.sc" xMin="69" yMin="0" xMax="443" yMax="861">
      <component glyphName="acute.sc" x="84" y="0" flags="0x4"/>
      <component glyphName="e.sc" x="0" y="0" flags="0x204"/>
    </TTGlyph>
    <TTGlyph name="ebreve" xMin="35" yMin="-16" xMax="521" yMax="816">
      <component glyphName="e" x="0" y="0" flags="0x204"/>
      <component glyphName="breve" x="82" y="0" flags="0x4"/>
    </TTGlyph>
    <TTGlyph name="ebreve.sc" xMin="69" yMin="0" xMax="443" yMax="846">
      <component glyphName="breve.sc" x="57" y="0" flags="0x4"/>
      <component glyphName="e.sc" x="0" y="0" flags="0x204"/>
    </TTGlyph>
    <TTGlyph name="ecaron" xMin="35" yMin="-16" xMax="521" yMax="810">
      <component glyphName="caron" x="65" y="0" flags="0x4"/>
      <component glyphName="e" x="0" y="0" flags="0x204"/>
    </TTGlyph>
    <TTGlyph name="ecaron.sc" xMin="69" yMin="0" xMax="444" yMax="840">
      <component glyphName="caron.sc" x="40" y="0" flags="0x4"/>
      <component glyphName="e.sc" x="0" y="0" flags="0x204"/>
    </TTGlyph>
    <TTGlyph name="ecircumflex" xMin="35" yMin="-16" xMax="521" yMax="818">
      <component glyphName="circumflex" x="65" y="0" flags="0x4"/>
      <component glyphName="e" x="0" y="0" flags="0x204"/>
    </TTGlyph>
    <TTGlyph name="ecircumflex.sc" xMin="69" yMin="0" xMax="444" yMax="848">
      <component glyphName="e.sc" x="0" y="0" flags="0x204"/>
      <component glyphName="circumflex.sc" x="40" y="0" flags="0x4"/>
    </TTGlyph>
    <TTGlyph name="edieresis" xMin="35" yMin="-16" xMax="521" yMax="795">
      <component glyphName="dieresis" x="58" y="0" flags="0x4"/>
      <component glyphName="e" x="0" y="0" flags="0x204"/>
    </TTGlyph>
    <TTGlyph name="edieresis.sc" xMin="64" yMin="0" xMax="449" yMax="825">
      <component glyphName="dieresis.sc" x="33" y="0" flags="0x4"/>
      <component glyphName="e.sc" x="0" y="0" flags="0x204"/>
    </TTGlyph>
    <TTGlyph name="edotaccent" xMin="35" yMin="-16" xMax="521" yMax="807">
      <component glyphName="e" x="0" y="0" flags="0x204"/>
      <component glyphName="dotaccent" x="162" y="0" flags="0x4"/>
    </TTGlyph>
    <TTGlyph name="edotaccent.sc" xMin="69" yMin="0" xMax="443" yMax="837">
      <component glyphName="dotaccent.sc" x="137" y="0" flags="0x4"/>
      <component glyphName="e.sc" x="0" y="0" flags="0x204"/>
    </TTGlyph>
    <TTGlyph name="egrave" xMin="35" yMin="-16" xMax="521" yMax="831">
      <component glyphName="e" x="0" y="0" flags="0x204"/>
      <component glyphName="grave" x="125" y="0" flags="0x4"/>
    </TTGlyph>
    <TTGlyph name="egrave.sc" xMin="69" yMin="0" xMax="443" yMax="861">
      <component glyphName="grave.sc" x="95" y="0" flags="0x4"/>
      <component glyphName="e.sc" x="0" y="0" flags="0x204"/>
    </TTGlyph>
    <TTGlyph name="eight" xMin="26" yMin="-16" xMax="530" yMax="709">
      <contour>
        <pt x="275" y="-16" on="1"/>
        <pt x="159" y="-16" on="0"/>
        <pt x="26" y="100" on="0"/>
        <pt x="26" y="184" on="1"/>
        <pt x="26" y="247" on="0"/>
        <pt x="94" y="333" on="0"/>
        <pt x="151" y="359" on="1"/>
        <pt x="98" y="390" on="0"/>
        <pt x="52" y="472" on="0"/>
        <pt x="52" y="522" on="1"/>
        <pt x="52" y="609" on="0"/>
        <pt x="183" y="709" on="0"/>
        <pt x="279" y="709" on="1"/>
        <pt x="374" y="709" on="0"/>
        <pt x="504" y="615" on="0"/>
        <pt x="504" y="528" on="1"/>
        <pt x="504" y="481" on="0"/>
        <pt x="452" y="402" on="0"/>
        <pt x="397" y="372" on="1"/>
        <pt x="464" y="340" on="0"/>
        <pt x="530" y="250" on="0"/>
        <pt x="530" y="187" on="1"/>
        <pt x="530" y="102" on="0"/>
        <pt x="394" y="-16" on="0"/>
      </contour>
      <contour>
        <pt x="289" y="415" on="1"/>
        <pt x="301" y="411" on="1"/>
        <pt x="335" y="434" on="0"/>
        <pt x="362" y="487" on="0"/>
        <pt x="362" y="521" on="1"/>
        <pt x="362" y="561" on="0"/>
        <pt x="317" y="607" on="0"/>
        <pt x="278" y="607" on="1"/>
        <pt x="241" y="607" on="0"/>
        <pt x="195" y="565" on="0"/>
        <pt x="195" y="520" on="1"/>
        <pt x="195" y="479" on="0"/>
        <pt x="240" y="433" on="0"/>
      </contour>
      <contour>
        <pt x="280" y="92" on="1"/>
        <pt x="329" y="92" on="0"/>
        <pt x="382" y="147" on="0"/>
        <pt x="382" y="188" on="1"/>
        <pt x="382" y="234" on="0"/>
        <pt x="333" y="286" on="0"/>
        <pt x="273" y="305" on="1"/>
        <pt x="243" y="317" on="1"/>
        <pt x="208" y="297" on="0"/>
        <pt x="174" y="234" on="0"/>
        <pt x="174" y="191" on="1"/>
        <pt x="174" y="145" on="0"/>
        <pt x="232" y="92" on="0"/>
      </contour>
    </TTGlyph>
    <TTGlyph name="eight.dnom" xMin="25" yMin="-12" xMax="375" yMax="430">
      <contour>
        <pt x="198" y="-12" on="1"/>
        <pt x="115" y="-12" on="0"/>
        <pt x="25" y="63" on="0"/>
        <pt x="25" y="113" on="1"/>
        <pt x="25" y="149" on="0"/>
        <pt x="68" y="199" on="0"/>
        <pt x="107" y="215" on="1"/>
        <pt x="71" y="236" on="0"/>
        <pt x="42" y="288" on="0"/>
        <pt x="42" y="316" on="1"/>
        <pt x="42" y="365" on="0"/>
        <pt x="130" y="430" on="0"/>
        <pt x="200" y="430" on="1"/>
        <pt x="270" y="430" on="0"/>
        <pt x="359" y="372" on="0"/>
        <pt x="359" y="321" on="1"/>
        <pt x="359" y="296" on="0"/>
        <pt x="325" y="245" on="0"/>
        <pt x="287" y="226" on="1"/>
        <pt x="333" y="204" on="0"/>
        <pt x="375" y="148" on="0"/>
        <pt x="375" y="114" on="1"/>
        <pt x="375" y="65" on="0"/>
        <pt x="283" y="-12" on="0"/>
      </contour>
      <contour>
        <pt x="198" y="261" on="1"/>
        <pt x="213" y="255" on="1"/>
        <pt x="235" y="269" on="0"/>
        <pt x="249" y="299" on="0"/>
        <pt x="249" y="315" on="1"/>
        <pt x="249" y="334" on="0"/>
        <pt x="224" y="357" on="0"/>
        <pt x="201" y="357" on="1"/>
        <pt x="179" y="357" on="0"/>
        <pt x="152" y="336" on="0"/>
        <pt x="152" y="314" on="1"/>
        <pt x="152" y="297" on="0"/>
        <pt x="173" y="270" on="0"/>
      </contour>
      <contour>
        <pt x="201" y="68" on="1"/>
        <pt x="232" y="68" on="0"/>
        <pt x="263" y="96" on="0"/>
        <pt x="263" y="115" on="1"/>
        <pt x="263" y="138" on="0"/>
        <pt x="235" y="164" on="0"/>
        <pt x="201" y="175" on="1"/>
        <pt x="176" y="184" on="1"/>
        <pt x="157" y="173" on="0"/>
        <pt x="138" y="139" on="0"/>
        <pt x="138" y="118" on="1"/>
        <pt x="138" y="95" on="0"/>
        <pt x="172" y="68" on="0"/>
      </contour>
    </TTGlyph>
    <TTGlyph name="eight.lf" xMin="31" yMin="-16" xMax="546" yMax="688">
      <contour>
        <pt x="285" y="-16" on="1"/>
        <pt x="166" y="-16" on="0"/>
        <pt x="31" y="99" on="0"/>
        <pt x="31" y="180" on="1"/>
        <pt x="31" y="240" on="0"/>
        <pt x="99" y="323" on="0"/>
        <pt x="158" y="348" on="1"/>
        <pt x="104" y="379" on="0"/>
        <pt x="58" y="461" on="0"/>
        <pt x="58" y="508" on="1"/>
        <pt x="58" y="589" on="0"/>
        <pt x="191" y="688" on="0"/>
        <pt x="289" y="688" on="1"/>
        <pt x="386" y="688" on="0"/>
        <pt x="519" y="598" on="0"/>
        <pt x="519" y="515" on="1"/>
        <pt x="519" y="471" on="0"/>
        <pt x="467" y="393" on="0"/>
        <pt x="410" y="363" on="1"/>
        <pt x="479" y="330" on="0"/>
        <pt x="546" y="240" on="0"/>
        <pt x="546" y="182" on="1"/>
        <pt x="546" y="101" on="0"/>
        <pt x="407" y="-16" on="0"/>
      </contour>
      <contour>
        <pt x="290" y="408" on="1"/>
        <pt x="311" y="400" on="1"/>
        <pt x="348" y="424" on="0"/>
        <pt x="374" y="476" on="0"/>
        <pt x="374" y="508" on="1"/>
        <pt x="374" y="542" on="0"/>
        <pt x="331" y="586" on="0"/>
        <pt x="290" y="586" on="1"/>
        <pt x="251" y="586" on="0"/>
        <pt x="203" y="546" on="0"/>
        <pt x="203" y="506" on="1"/>
        <pt x="203" y="469" on="0"/>
        <pt x="247" y="425" on="0"/>
      </contour>
      <contour>
        <pt x="290" y="92" on="1"/>
        <pt x="341" y="92" on="0"/>
        <pt x="395" y="145" on="0"/>
        <pt x="395" y="183" on="1"/>
        <pt x="395" y="226" on="0"/>
        <pt x="345" y="274" on="0"/>
        <pt x="286" y="296" on="1"/>
        <pt x="253" y="308" on="1"/>
        <pt x="217" y="288" on="0"/>
        <pt x="182" y="226" on="0"/>
        <pt x="182" y="186" on="1"/>
        <pt x="182" y="143" on="0"/>
        <pt x="241" y="92" on="0"/>
      </contour>
    </TTGlyph>
    <TTGlyph name="eight.numr" xMin="25" yMin="260" xMax="375" yMax="702">
      <component glyphName="eight.dnom" x="0" y="272" flags="0x4"/>
    </TTGlyph>
    <TTGlyph name="eight.osf" xMin="31" yMin="-16" xMax="546" yMax="688">
      <contour>
        <pt x="285" y="-16" on="1"/>
        <pt x="166" y="-16" on="0"/>
        <pt x="31" y="99" on="0"/>
        <pt x="31" y="180" on="1"/>
        <pt x="31" y="240" on="0"/>
        <pt x="99" y="323" on="0"/>
        <pt x="158" y="348" on="1"/>
        <pt x="104" y="379" on="0"/>
        <pt x="58" y="461" on="0"/>
        <pt x="58" y="508" on="1"/>
        <pt x="58" y="589" on="0"/>
        <pt x="191" y="688" on="0"/>
        <pt x="289" y="688" on="1"/>
        <pt x="386" y="688" on="0"/>
        <pt x="519" y="598" on="0"/>
        <pt x="519" y="515" on="1"/>
        <pt x="519" y="471" on="0"/>
        <pt x="467" y="393" on="0"/>
        <pt x="410" y="363" on="1"/>
        <pt x="479" y="330" on="0"/>
        <pt x="546" y="240" on="0"/>
        <pt x="546" y="182" on="1"/>
        <pt x="546" y="101" on="0"/>
        <pt x="407" y="-16" on="0"/>
      </contour>
      <contour>
        <pt x="290" y="408" on="1"/>
        <pt x="311" y="400" on="1"/>
        <pt x="348" y="424" on="0"/>
        <pt x="374" y="476" on="0"/>
        <pt x="374" y="508" on="1"/>
        <pt x="374" y="542" on="0"/>
        <pt x="331" y="586" on="0"/>
        <pt x="290" y="586" on="1"/>
        <pt x="251" y="586" on="0"/>
        <pt x="203" y="546" on="0"/>
        <pt x="203" y="506" on="1"/>
        <pt x="203" y="469" on="0"/>
        <pt x="247" y="425" on="0"/>
      </contour>
      <contour>
        <pt x="290" y="92" on="1"/>
        <pt x="341" y="92" on="0"/>
        <pt x="395" y="145" on="0"/>
        <pt x="395" y="183" on="1"/>
        <pt x="395" y="226" on="0"/>
        <pt x="345" y="274" on="0"/>
        <pt x="286" y="296" on="1"/>
        <pt x="253" y="308" on="1"/>
        <pt x="217" y="288" on="0"/>
        <pt x="182" y="226" on="0"/>
        <pt x="182" y="186" on="1"/>
        <pt x="182" y="143" on="0"/>
        <pt x="241" y="92" on="0"/>
      </contour>
    </TTGlyph>
    <TTGlyph name="eight.tosf" xMin="28" yMin="-16" xMax="532" yMax="688">
      <contour>
        <pt x="277" y="-16" on="1"/>
        <pt x="160" y="-16" on="0"/>
        <pt x="28" y="99" on="0"/>
        <pt x="28" y="180" on="1"/>
        <pt x="28" y="240" on="0"/>
        <pt x="95" y="323" on="0"/>
        <pt x="152" y="349" on="1"/>
        <pt x="100" y="380" on="0"/>
        <pt x="54" y="461" on="0"/>
        <pt x="54" y="508" on="1"/>
        <pt x="54" y="589" on="0"/>
        <pt x="184" y="688" on="0"/>
        <pt x="280" y="688" on="1"/>
        <pt x="376" y="688" on="0"/>
        <pt x="506" y="597" on="0"/>
        <pt x="506" y="513" on="1"/>
        <pt x="506" y="469" on="0"/>
        <pt x="454" y="392" on="0"/>
        <pt x="400" y="362" on="1"/>
        <pt x="467" y="329" on="0"/>
        <pt x="532" y="240" on="0"/>
        <pt x="532" y="182" on="1"/>
        <pt x="532" y="101" on="0"/>
        <pt x="397" y="-16" on="0"/>
      </contour>
      <contour>
        <pt x="287" y="406" on="1"/>
        <pt x="303" y="400" on="1"/>
        <pt x="337" y="424" on="0"/>
        <pt x="364" y="475" on="0"/>
        <pt x="364" y="507" on="1"/>
        <pt x="364" y="542" on="0"/>
        <pt x="320" y="586" on="0"/>
        <pt x="280" y="586" on="1"/>
        <pt x="243" y="586" on="0"/>
        <pt x="197" y="545" on="0"/>
        <pt x="197" y="505" on="1"/>
        <pt x="197" y="468" on="0"/>
        <pt x="241" y="423" on="0"/>
      </contour>
      <contour>
        <pt x="282" y="92" on="1"/>
        <pt x="331" y="92" on="0"/>
        <pt x="384" y="145" on="0"/>
        <pt x="384" y="183" on="1"/>
        <pt x="384" y="226" on="0"/>
        <pt x="334" y="274" on="0"/>
        <pt x="277" y="295" on="1"/>
        <pt x="244" y="308" on="1"/>
        <pt x="210" y="288" on="0"/>
        <pt x="176" y="226" on="0"/>
        <pt x="176" y="186" on="1"/>
        <pt x="176" y="143" on="0"/>
        <pt x="233" y="92" on="0"/>
      </contour>
    </TTGlyph>
    <TTGlyph name="eightinferior" xMin="25" yMin="-217" xMax="375" yMax="225">
      <component glyphName="eight.dnom" x="0" y="-205" flags="0x4"/>
    </TTGlyph>
    <TTGlyph name="eightsuperior" xMin="25" yMin="309" xMax="375" yMax="751">
      <component glyphName="eight.dnom" x="0" y="321" flags="0x4"/>
    </TTGlyph>
    <TTGlyph name="ellipsis" xMin="32" yMin="-16" xMax="696" yMax="159">
      <component glyphName="period" x="244" y="0" flags="0x4"/>
      <component glyphName="period" x="488" y="0" flags="0x4"/>
      <component glyphName="period" x="0" y="0" flags="0x204"/>
    </TTGlyph>
    <TTGlyph name="emacron" xMin="35" yMin="-16" xMax="521" yMax="761">
      <component glyphName="e" x="0" y="0" flags="0x204"/>
      <component glyphName="macron" x="101" y="0" flags="0x4"/>
    </TTGlyph>
    <TTGlyph name="emacron.sc" xMin="69" yMin="0" xMax="443" yMax="791">
      <component glyphName="macron.sc" x="76" y="0" flags="0x4"/>
      <component glyphName="e.sc" x="0" y="0" flags="0x204"/>
    </TTGlyph>
    <TTGlyph name="emdash" xMin="23" yMin="254" xMax="773" yMax="372">
      <contour>
        <pt x="773" y="254" on="1"/>
        <pt x="23" y="254" on="1"/>
        <pt x="23" y="372" on="1"/>
        <pt x="773" y="372" on="1"/>
      </contour>
    </TTGlyph>
    <TTGlyph name="emdash.case" xMin="23" yMin="299" xMax="773" yMax="417">
      <component glyphName="emdash" x="0" y="45" flags="0x4"/>
    </TTGlyph>
    <TTGlyph name="emptyset" xMin="84" yMin="-16" xMax="816" yMax="716">
      <contour>
        <pt x="451" y="-16" on="1"/>
        <pt x="399" y="-16" on="0"/>
        <pt x="302" y="11" on="0"/>
        <pt x="260" y="36" on="1"/>
        <pt x="225" y="-12" on="1"/>
        <pt x="122" y="-12" on="1"/>
        <pt x="195" y="87" on="1"/>
        <pt x="144" y="136" on="0"/>
        <pt x="84" y="271" on="0"/>
        <pt x="84" y="349" on="1"/>
        <pt x="84" y="425" on="0"/>
        <pt x="142" y="560" on="0"/>
        <pt x="241" y="659" on="0"/>
        <pt x="375" y="716" on="0"/>
        <pt x="451" y="716" on="1"/>
        <pt x="498" y="716" on="0"/>
        <pt x="587" y="693" on="0"/>
        <pt x="626" y="672" on="1"/>
        <pt x="655" y="712" on="1"/>
        <pt x="758" y="712" on="1"/>
        <pt x="694" y="625" on="1"/>
        <pt x="750" y="575" on="0"/>
        <pt x="816" y="432" on="0"/>
        <pt x="816" y="349" on="1"/>
        <pt x="816" y="273" on="0"/>
        <pt x="759" y="139" on="0"/>
        <pt x="660" y="41" on="0"/>
        <pt x="527" y="-16" on="0"/>
      </contour>
      <contour>
        <pt x="175" y="349" on="1"/>
        <pt x="175" y="295" on="0"/>
        <pt x="214" y="196" on="0"/>
        <pt x="248" y="159" on="1"/>
        <pt x="573" y="601" on="1"/>
        <pt x="546" y="614" on="0"/>
        <pt x="484" y="629" on="0"/>
        <pt x="451" y="629" on="1"/>
        <pt x="393" y="629" on="0"/>
        <pt x="292" y="585" on="0"/>
        <pt x="218" y="509" on="0"/>
        <pt x="175" y="407" on="0"/>
      </contour>
      <contour>
        <pt x="451" y="71" on="1"/>
        <pt x="509" y="71" on="0"/>
        <pt x="610" y="115" on="0"/>
        <pt x="683" y="190" on="0"/>
        <pt x="726" y="292" on="0"/>
        <pt x="726" y="349" on="1"/>
        <pt x="726" y="409" on="0"/>
        <pt x="681" y="515" on="0"/>
        <pt x="641" y="553" on="1"/>
        <pt x="313" y="107" on="1"/>
        <pt x="343" y="90" on="0"/>
        <pt x="413" y="71" on="0"/>
      </contour>
    </TTGlyph>
    <TTGlyph name="endash" xMin="23" yMin="254" xMax="497" yMax="372">
      <contour>
        <pt x="497" y="254" on="1"/>
        <pt x="23" y="254" on="1"/>
        <pt x="23" y="372" on="1"/>
        <pt x="497" y="372" on="1"/>
      </contour>
    </TTGlyph>
    <TTGlyph name="endash.case" xMin="23" yMin="299" xMax="497" yMax="417">
      <component glyphName="endash" x="0" y="45" flags="0x4"/>
    </TTGlyph>
    <TTGlyph name="eng" xMin="66" yMin="-220" xMax="517" yMax="547">
      <contour>
        <pt x="517" y="57" on="1"/>
        <pt x="517" y="-71" on="0"/>
        <pt x="401" y="-186" on="0"/>
        <pt x="309" y="-220" on="1"/>
        <pt x="260" y="-111" on="1"/>
        <pt x="311" y="-88" on="0"/>
        <pt x="367" y="-26" on="0"/>
        <pt x="367" y="47" on="1"/>
        <pt x="367" y="361" on="1"/>
        <pt x="367" y="405" on="0"/>
        <pt x="337" y="436" on="0"/>
        <pt x="313" y="436" on="1"/>
        <pt x="285" y="436" on="0"/>
        <pt x="237" y="399" on="0"/>
        <pt x="216" y="365" on="1"/>
        <pt x="216" y="0" on="1"/>
        <pt x="66" y="0" on="1"/>
        <pt x="66" y="531" on="1"/>
        <pt x="196" y="531" on="1"/>
        <pt x="208" y="465" on="1"/>
        <pt x="240" y="505" on="0"/>
        <pt x="320" y="547" on="0"/>
        <pt x="369" y="547" on="1"/>
        <pt x="438" y="547" on="0"/>
        <pt x="517" y="462" on="0"/>
        <pt x="517" y="387" on="1"/>
      </contour>
    </TTGlyph>
    <TTGlyph name="eng.sc" xMin="69" yMin="-220" xMax="536" yMax="568">
      <contour>
        <pt x="536" y="0" on="1"/>
        <pt x="536" y="-87" on="0"/>
        <pt x="424" y="-185" on="0"/>
        <pt x="328" y="-220" on="1"/>
        <pt x="288" y="-128" on="1"/>
        <pt x="348" y="-103" on="0"/>
        <pt x="403" y="-51" on="0"/>
        <pt x="403" y="0" on="1"/>
        <pt x="347" y="0" on="1"/>
        <pt x="179" y="436" on="1"/>
        <pt x="186" y="390" on="0"/>
        <pt x="202" y="273" on="0"/>
        <pt x="202" y="195" on="1"/>
        <pt x="202" y="0" on="1"/>
        <pt x="69" y="0" on="1"/>
        <pt x="69" y="568" on="1"/>
        <pt x="254" y="568" on="1"/>
        <pt x="426" y="131" on="1"/>
        <pt x="418" y="174" on="0"/>
        <pt x="403" y="287" on="0"/>
        <pt x="403" y="359" on="1"/>
        <pt x="403" y="568" on="1"/>
        <pt x="536" y="568" on="1"/>
      </contour>
    </TTGlyph>
    <TTGlyph name="eogonek" xMin="35" yMin="-235" xMax="521" yMax="547">
      <component glyphName="e" x="0" y="0" flags="0x204"/>
      <component glyphName="ogonek.thin" x="193" y="9" flags="0x4"/>
    </TTGlyph>
    <TTGlyph name="eogonek.sc" xMin="69" yMin="-244" xMax="443" yMax="568">
      <component glyphName="ogonek.thin.sc" x="184" y="0" flags="0x4"/>
      <component glyphName="e.sc" x="0" y="0" flags="0x204"/>
    </TTGlyph>
    <TTGlyph name="epsilon" xMin="35" yMin="-16" xMax="475" yMax="547">
      <contour>
        <pt x="56" y="404" on="1"/>
        <pt x="56" y="471" on="0"/>
        <pt x="172" y="547" on="0"/>
        <pt x="266" y="547" on="1"/>
        <pt x="324" y="547" on="0"/>
        <pt x="419" y="519" on="0"/>
        <pt x="459" y="488" on="1"/>
        <pt x="396" y="409" on="1"/>
        <pt x="368" y="425" on="0"/>
        <pt x="316" y="442" on="0"/>
        <pt x="283" y="442" on="1"/>
        <pt x="248" y="442" on="0"/>
        <pt x="207" y="412" on="0"/>
        <pt x="207" y="384" on="1"/>
        <pt x="207" y="356" on="0"/>
        <pt x="248" y="322" on="0"/>
        <pt x="286" y="322" on="1"/>
        <pt x="352" y="322" on="1"/>
        <pt x="337" y="224" on="1"/>
        <pt x="279" y="224" on="1"/>
        <pt x="232" y="224" on="0"/>
        <pt x="192" y="191" on="0"/>
        <pt x="192" y="159" on="1"/>
        <pt x="192" y="128" on="0"/>
        <pt x="237" y="92" on="0"/>
        <pt x="282" y="92" on="1"/>
        <pt x="316" y="92" on="0"/>
        <pt x="375" y="112" on="0"/>
        <pt x="411" y="133" on="1"/>
        <pt x="475" y="47" on="1"/>
        <pt x="436" y="17" on="0"/>
        <pt x="328" y="-16" on="0"/>
        <pt x="264" y="-16" on="1"/>
        <pt x="165" y="-16" on="0"/>
        <pt x="35" y="67" on="0"/>
        <pt x="35" y="146" on="1"/>
        <pt x="35" y="208" on="0"/>
        <pt x="108" y="275" on="0"/>
        <pt x="176" y="283" on="1"/>
        <pt x="116" y="294" on="0"/>
        <pt x="56" y="360" on="0"/>
      </contour>
    </TTGlyph>
    <TTGlyph name="epsilon.sc" xMin="69" yMin="0" xMax="443" yMax="568">
      <component glyphName="e.sc" x="0" y="0" flags="0x204"/>
    </TTGlyph>
    <TTGlyph name="epsilontonos" xMin="35" yMin="-16" xMax="475" yMax="843">
      <component glyphName="tonos" x="177" y="0" flags="0x4"/>
      <component glyphName="epsilon" x="0" y="0" flags="0x204"/>
    </TTGlyph>
    <TTGlyph name="epsilontonos.sc" xMin="69" yMin="0" xMax="443" yMax="568">
      <component glyphName="e.sc" x="0" y="0" flags="0x204"/>
    </TTGlyph>
    <TTGlyph name="equal" xMin="70" yMin="169" xMax="486" yMax="494">
      <component glyphName="equal.lf" x="20" y="0" flags="0x4"/>
    </TTGlyph>
    <TTGlyph name="equal.dnom" xMin="60" yMin="97" xMax="340" yMax="310">
      <contour>
        <pt x="340" y="229" on="1"/>
        <pt x="60" y="229" on="1"/>
        <pt x="60" y="310" on="1"/>
        <pt x="340" y="310" on="1"/>
      </contour>
      <contour>
        <pt x="340" y="97" on="1"/>
        <pt x="60" y="97" on="1"/>
        <pt x="60" y="178" on="1"/>
        <pt x="340" y="178" on="1"/>
      </contour>
    </TTGlyph>
    <TTGlyph name="equal.lf" xMin="50" yMin="169" xMax="466" yMax="494">
      <component glyphName="minus.lf" x="0" y="103" flags="0x4"/>
      <component glyphName="minus.lf" x="0" y="-105" flags="0x4"/>
    </TTGlyph>
    <TTGlyph name="equal.numr" xMin="60" yMin="374" xMax="340" yMax="587">
      <component glyphName="equal.dnom" x="0" y="277" flags="0x4"/>
    </TTGlyph>
    <TTGlyph name="equal.osf" xMin="50" yMin="169" xMax="466" yMax="494">
      <component glyphName="equal.lf" x="0" y="0" flags="0x204"/>
    </TTGlyph>
    <TTGlyph name="equal.tosf" xMin="70" yMin="169" xMax="486" yMax="494">
      <component glyphName="equal.lf" x="20" y="0" flags="0x4"/>
    </TTGlyph>
    <TTGlyph name="equalsuperior" xMin="60" yMin="412" xMax="340" yMax="625">
      <component glyphName="equal.dnom" x="0" y="315" flags="0x4"/>
    </TTGlyph>
    <TTGlyph name="estimated" xMin="70" yMin="-15" xMax="875" yMax="715">
      <contour>
        <pt x="875" y="339" on="1"/>
        <pt x="218" y="339" on="1"/>
        <pt x="218" y="121" on="1"/>
        <pt x="234" y="97" on="0"/>
        <pt x="291" y="61" on="0"/>
        <pt x="361" y="37" on="0"/>
        <pt x="438" y="24" on="0"/>
        <pt x="473" y="24" on="1"/>
        <pt x="543" y="24" on="0"/>
        <pt x="691" y="73" on="0"/>
        <pt x="733" y="122" on="1"/>
        <pt x="791" y="122" on="1"/>
        <pt x="737" y="59" on="0"/>
        <pt x="576" y="-15" on="0"/>
        <pt x="472" y="-15" on="1"/>
        <pt x="387" y="-15" on="0"/>
        <pt x="239" y="39" on="0"/>
        <pt x="131" y="135" on="0"/>
        <pt x="70" y="269" on="0"/>
        <pt x="70" y="347" on="1"/>
        <pt x="70" y="425" on="0"/>
        <pt x="134" y="561" on="0"/>
        <pt x="243" y="659" on="0"/>
        <pt x="390" y="715" on="0"/>
        <pt x="472" y="715" on="1"/>
        <pt x="552" y="715" on="0"/>
        <pt x="699" y="660" on="0"/>
        <pt x="809" y="561" on="0"/>
        <pt x="875" y="422" on="0"/>
      </contour>
      <contour>
        <pt x="727" y="379" on="1"/>
        <pt x="727" y="574" on="1"/>
        <pt x="685" y="620" on="0"/>
        <pt x="560" y="676" on="0"/>
        <pt x="473" y="676" on="1"/>
        <pt x="386" y="676" on="0"/>
        <pt x="256" y="621" on="0"/>
        <pt x="218" y="575" on="1"/>
        <pt x="218" y="379" on="1"/>
      </contour>
    </TTGlyph>
    <TTGlyph name="eta" xMin="49" yMin="-221" xMax="520" yMax="547">
      <contour>
        <pt x="520" y="-221" on="1"/>
        <pt x="370" y="-205" on="1"/>
        <pt x="370" y="361" on="1"/>
        <pt x="370" y="405" on="0"/>
        <pt x="341" y="436" on="0"/>
        <pt x="316" y="436" on="1"/>
        <pt x="288" y="436" on="0"/>
        <pt x="240" y="399" on="0"/>
        <pt x="221" y="368" on="1"/>
        <pt x="221" y="0" on="1"/>
        <pt x="71" y="0" on="1"/>
        <pt x="71" y="379" on="1"/>
        <pt x="71" y="423" on="0"/>
        <pt x="59" y="495" on="0"/>
        <pt x="49" y="525" on="1"/>
        <pt x="187" y="544" on="1"/>
        <pt x="194" y="530" on="0"/>
        <pt x="207" y="492" on="0"/>
        <pt x="211" y="467" on="1"/>
        <pt x="243" y="506" on="0"/>
        <pt x="323" y="547" on="0"/>
        <pt x="372" y="547" on="1"/>
        <pt x="441" y="547" on="0"/>
        <pt x="520" y="462" on="0"/>
        <pt x="520" y="387" on="1"/>
      </contour>
    </TTGlyph>
    <TTGlyph name="eta.sc" xMin="69" yMin="0" xMax="540" yMax="568">
      <component glyphName="h.sc" x="0" y="0" flags="0x204"/>
    </TTGlyph>
    <TTGlyph name="etatonos" xMin="49" yMin="-221" xMax="520" yMax="843">
      <component glyphName="tonos" x="206" y="0" flags="0x4"/>
      <component glyphName="eta" x="0" y="0" flags="0x204"/>
    </TTGlyph>
    <TTGlyph name="etatonos.sc" xMin="69" yMin="0" xMax="540" yMax="568">
      <component glyphName="h.sc" x="0" y="0" flags="0x204"/>
    </TTGlyph>
    <TTGlyph name="eth" xMin="35" yMin="-16" xMax="538" yMax="795">
      <contour>
        <pt x="282" y="-16" on="1"/>
        <pt x="178" y="-16" on="0"/>
        <pt x="35" y="115" on="0"/>
        <pt x="35" y="234" on="1"/>
        <pt x="35" y="334" on="0"/>
        <pt x="150" y="479" on="0"/>
        <pt x="242" y="479" on="1"/>
        <pt x="285" y="479" on="0"/>
        <pt x="351" y="452" on="0"/>
        <pt x="377" y="429" on="1"/>
        <pt x="363" y="475" on="0"/>
        <pt x="315" y="551" on="0"/>
        <pt x="272" y="585" on="1"/>
        <pt x="215" y="529" on="1"/>
        <pt x="120" y="574" on="1"/>
        <pt x="179" y="634" on="1"/>
        <pt x="153" y="643" on="0"/>
        <pt x="107" y="654" on="0"/>
        <pt x="85" y="658" on="1"/>
        <pt x="115" y="757" on="1"/>
        <pt x="152" y="751" on="0"/>
        <pt x="220" y="734" on="0"/>
        <pt x="261" y="718" on="1"/>
        <pt x="334" y="795" on="1"/>
        <pt x="412" y="727" on="1"/>
        <pt x="355" y="670" on="1"/>
        <pt x="456" y="597" on="0"/>
        <pt x="538" y="402" on="0"/>
        <pt x="538" y="275" on="1"/>
        <pt x="538" y="153" on="0"/>
        <pt x="403" y="-16" on="0"/>
      </contour>
      <contour>
        <pt x="284" y="94" on="1"/>
        <pt x="334" y="94" on="0"/>
        <pt x="385" y="175" on="0"/>
        <pt x="385" y="257" on="1"/>
        <pt x="385" y="276" on="0"/>
        <pt x="384" y="311" on="0"/>
        <pt x="384" y="327" on="1"/>
        <pt x="365" y="349" on="0"/>
        <pt x="313" y="373" on="0"/>
        <pt x="281" y="373" on="1"/>
        <pt x="230" y="373" on="0"/>
        <pt x="188" y="297" on="0"/>
        <pt x="188" y="237" on="1"/>
        <pt x="188" y="162" on="0"/>
        <pt x="241" y="94" on="0"/>
      </contour>
    </TTGlyph>
    <TTGlyph name="eth.sc" xMin="7" yMin="0" xMax="547" yMax="568">
      <contour>
        <pt x="247" y="0" on="1"/>
        <pt x="62" y="0" on="1"/>
        <pt x="62" y="248" on="1"/>
        <pt x="7" y="248" on="1"/>
        <pt x="7" y="335" on="1"/>
        <pt x="62" y="335" on="1"/>
        <pt x="62" y="568" on="1"/>
        <pt x="234" y="568" on="1"/>
        <pt x="294" y="568" on="0"/>
        <pt x="408" y="546" on="0"/>
        <pt x="495" y="484" on="0"/>
        <pt x="547" y="375" on="0"/>
        <pt x="547" y="288" on="1"/>
        <pt x="547" y="203" on="0"/>
        <pt x="497" y="90" on="0"/>
        <pt x="414" y="26" on="0"/>
        <pt x="305" y="0" on="0"/>
      </contour>
      <contour>
        <pt x="211" y="107" on="1"/>
        <pt x="257" y="107" on="1"/>
        <pt x="320" y="107" on="0"/>
        <pt x="394" y="181" on="0"/>
        <pt x="394" y="288" on="1"/>
        <pt x="394" y="392" on="0"/>
        <pt x="316" y="461" on="0"/>
        <pt x="255" y="461" on="1"/>
        <pt x="211" y="461" on="1"/>
        <pt x="211" y="335" on="1"/>
        <pt x="300" y="335" on="1"/>
        <pt x="300" y="248" on="1"/>
        <pt x="211" y="248" on="1"/>
      </contour>
    </TTGlyph>
    <TTGlyph name="exclam" xMin="32" yMin="-16" xMax="208" yMax="693">
      <contour>
        <pt x="40" y="693" on="1"/>
        <pt x="200" y="693" on="1"/>
        <pt x="181" y="252" on="1"/>
        <pt x="59" y="252" on="1"/>
      </contour>
      <contour>
        <pt x="32" y="72" on="1"/>
        <pt x="32" y="108" on="0"/>
        <pt x="83" y="159" on="0"/>
        <pt x="120" y="159" on="1"/>
        <pt x="157" y="159" on="0"/>
        <pt x="208" y="108" on="0"/>
        <pt x="208" y="72" on="1"/>
        <pt x="208" y="35" on="0"/>
        <pt x="157" y="-16" on="0"/>
        <pt x="120" y="-16" on="1"/>
        <pt x="83" y="-16" on="0"/>
        <pt x="32" y="35" on="0"/>
      </contour>
    </TTGlyph>
    <TTGlyph name="exclamdown" xMin="32" yMin="-205" xMax="208" yMax="508">
      <contour>
        <pt x="32" y="420" on="1"/>
        <pt x="32" y="456" on="0"/>
        <pt x="83" y="508" on="0"/>
        <pt x="120" y="508" on="1"/>
        <pt x="157" y="508" on="0"/>
        <pt x="208" y="456" on="0"/>
        <pt x="208" y="420" on="1"/>
        <pt x="208" y="384" on="0"/>
        <pt x="157" y="332" on="0"/>
        <pt x="120" y="332" on="1"/>
        <pt x="83" y="332" on="0"/>
        <pt x="32" y="384" on="0"/>
      </contour>
      <contour>
        <pt x="60" y="237" on="1"/>
        <pt x="182" y="237" on="1"/>
        <pt x="201" y="-205" on="1"/>
        <pt x="41" y="-205" on="1"/>
      </contour>
    </TTGlyph>
    <TTGlyph name="exclamdown.case" xMin="32" yMin="0" xMax="208" yMax="709">
      <contour>
        <pt x="208" y="621" on="1"/>
        <pt x="208" y="585" on="0"/>
        <pt x="157" y="534" on="0"/>
        <pt x="120" y="534" on="1"/>
        <pt x="83" y="534" on="0"/>
        <pt x="32" y="585" on="0"/>
        <pt x="32" y="621" on="1"/>
        <pt x="32" y="658" on="0"/>
        <pt x="83" y="709" on="0"/>
        <pt x="120" y="709" on="1"/>
        <pt x="157" y="709" on="0"/>
        <pt x="208" y="658" on="0"/>
      </contour>
      <contour>
        <pt x="200" y="0" on="1"/>
        <pt x="40" y="0" on="1"/>
        <pt x="59" y="441" on="1"/>
        <pt x="181" y="441" on="1"/>
      </contour>
    </TTGlyph>
    <TTGlyph name="f" xMin="3" yMin="0" xMax="427" yMax="758">
      <contour>
        <pt x="345" y="425" on="1"/>
        <pt x="235" y="425" on="1"/>
        <pt x="235" y="0" on="1"/>
        <pt x="85" y="0" on="1"/>
        <pt x="85" y="425" on="1"/>
        <pt x="3" y="425" on="1"/>
        <pt x="3" y="531" on="1"/>
        <pt x="85" y="531" on="1"/>
        <pt x="85" y="580" on="1"/>
        <pt x="85" y="655" on="0"/>
        <pt x="185" y="758" on="0"/>
        <pt x="284" y="758" on="1"/>
        <pt x="324" y="758" on="0"/>
        <pt x="397" y="739" on="0"/>
        <pt x="427" y="725" on="1"/>
        <pt x="385" y="626" on="1"/>
        <pt x="362" y="637" on="0"/>
        <pt x="319" y="646" on="0"/>
        <pt x="301" y="646" on="1"/>
        <pt x="266" y="646" on="0"/>
        <pt x="235" y="613" on="0"/>
        <pt x="235" y="575" on="1"/>
        <pt x="235" y="531" on="1"/>
        <pt x="361" y="531" on="1"/>
      </contour>
    </TTGlyph>
    <TTGlyph name="f.sc" xMin="69" yMin="0" xMax="432" yMax="568">
      <contour>
        <pt x="69" y="568" on="1"/>
        <pt x="432" y="568" on="1"/>
        <pt x="416" y="462" on="1"/>
        <pt x="218" y="462" on="1"/>
        <pt x="218" y="325" on="1"/>
        <pt x="391" y="325" on="1"/>
        <pt x="391" y="219" on="1"/>
        <pt x="218" y="219" on="1"/>
        <pt x="218" y="0" on="1"/>
        <pt x="69" y="0" on="1"/>
      </contour>
    </TTGlyph>
    <TTGlyph name="f_i" xMin="4" yMin="0" xMax="530" yMax="758">
      <component glyphName="fi" x="0" y="0" flags="0x204"/>
    </TTGlyph>
    <TTGlyph name="f_i.sc" xMin="69" yMin="0" xMax="663" yMax="568">
      <component glyphName="f.sc" x="0" y="0" flags="0x204"/>
      <component glyphName="i.sc" x="444" y="0" flags="0x4"/>
    </TTGlyph>
    <TTGlyph name="f_l" xMin="4" yMin="-16" xMax="626" yMax="758">
      <component glyphName="fl" x="0" y="0" flags="0x204"/>
    </TTGlyph>
    <TTGlyph name="f_l.sc" xMin="69" yMin="0" xMax="896" yMax="568">
      <component glyphName="l.sc" x="444" y="0" flags="0x4"/>
      <component glyphName="f.sc" x="0" y="0" flags="0x204"/>
    </TTGlyph>
    <TTGlyph name="fi" xMin="4" yMin="0" xMax="530" yMax="758">
      <contour>
        <pt x="85" y="579" on="1"/>
        <pt x="85" y="654" on="0"/>
        <pt x="187" y="758" on="0"/>
        <pt x="301" y="758" on="1"/>
        <pt x="355" y="758" on="0"/>
        <pt x="442" y="734" on="0"/>
        <pt x="474" y="718" on="1"/>
        <pt x="431" y="622" on="1"/>
        <pt x="407" y="632" on="0"/>
        <pt x="350" y="646" on="0"/>
        <pt x="320" y="646" on="1"/>
        <pt x="271" y="646" on="0"/>
        <pt x="235" y="612" on="0"/>
        <pt x="235" y="574" on="1"/>
        <pt x="235" y="531" on="1"/>
        <pt x="530" y="531" on="1"/>
        <pt x="530" y="0" on="1"/>
        <pt x="380" y="0" on="1"/>
        <pt x="380" y="425" on="1"/>
        <pt x="235" y="425" on="1"/>
        <pt x="235" y="0" on="1"/>
        <pt x="85" y="0" on="1"/>
        <pt x="85" y="425" on="1"/>
        <pt x="4" y="425" on="1"/>
        <pt x="4" y="531" on="1"/>
        <pt x="85" y="531" on="1"/>
      </contour>
    </TTGlyph>
    <TTGlyph name="fi.sc" xMin="69" yMin="0" xMax="663" yMax="568">
      <component glyphName="f.sc" x="0" y="0" flags="0x204"/>
      <component glyphName="i.sc" x="444" y="0" flags="0x4"/>
    </TTGlyph>
    <TTGlyph name="figuredash" xMin="15" yMin="274" xMax="541" yMax="392">
      <component glyphName="figuredash.lf" x="-2" y="0" flags="0x4"/>
    </TTGlyph>
    <TTGlyph name="figuredash.lf" xMin="17" yMin="274" xMax="543" yMax="392">
      <contour>
        <pt x="543" y="274" on="1"/>
        <pt x="17" y="274" on="1"/>
        <pt x="17" y="392" on="1"/>
        <pt x="543" y="392" on="1"/>
      </contour>
    </TTGlyph>
    <TTGlyph name="figuredash.osf" xMin="17" yMin="274" xMax="543" yMax="392">
      <component glyphName="figuredash.lf" x="0" y="0" flags="0x204"/>
    </TTGlyph>
    <TTGlyph name="figuredash.tosf" xMin="15" yMin="274" xMax="541" yMax="392">
      <component glyphName="figuredash.lf" x="-2" y="0" flags="0x4"/>
    </TTGlyph>
    <TTGlyph name="five" xMin="23" yMin="-16" xMax="514" yMax="693">
      <contour>
        <pt x="69" y="693" on="1"/>
        <pt x="483" y="693" on="1"/>
        <pt x="466" y="585" on="1"/>
        <pt x="213" y="585" on="1"/>
        <pt x="213" y="427" on="1"/>
        <pt x="241" y="440" on="0"/>
        <pt x="295" y="452" on="0"/>
        <pt x="320" y="452" on="1"/>
        <pt x="403" y="452" on="0"/>
        <pt x="514" y="335" on="0"/>
        <pt x="514" y="227" on="1"/>
        <pt x="514" y="117" on="0"/>
        <pt x="370" y="-16" on="0"/>
        <pt x="248" y="-16" on="1"/>
        <pt x="174" y="-16" on="0"/>
        <pt x="62" y="40" on="0"/>
        <pt x="23" y="84" on="1"/>
        <pt x="108" y="163" on="1"/>
        <pt x="134" y="132" on="0"/>
        <pt x="203" y="97" on="0"/>
        <pt x="243" y="97" on="1"/>
        <pt x="298" y="97" on="0"/>
        <pt x="360" y="163" on="0"/>
        <pt x="360" y="227" on="1"/>
        <pt x="360" y="295" on="0"/>
        <pt x="304" y="348" on="0"/>
        <pt x="261" y="348" on="1"/>
        <pt x="239" y="348" on="0"/>
        <pt x="198" y="337" on="0"/>
        <pt x="172" y="324" on="1"/>
        <pt x="69" y="324" on="1"/>
      </contour>
    </TTGlyph>
</ttFont>
